SplineFontDB: 3.0
FontName: Samim-Bold
FullName: Samim Bold
FamilyName: Samim
Weight: Bold
Copyright: Copyright (c) 2003 by Bitstream, Inc. All Rights Reserved.\nDejaVu changes are in public domain\nCopyright (c) 2015 by Saber Rastikerdar. All Rights Reserved.
Version: 0.10.3
ItalicAngle: 0
UnderlinePosition: -100
UnderlineWidth: 100
Ascent: 1536
Descent: 512
InvalidEm: 0
LayerCount: 2
Layer: 0 1 "Back" 1
Layer: 1 1 "Fore" 0
XUID: [1021 502 1027637223 1956352]
UniqueID: 4152923
UseUniqueID: 1
FSType: 0
OS2Version: 1
OS2_WeightWidthSlopeOnly: 0
OS2_UseTypoMetrics: 1
CreationTime: 1431850356
ModificationTime: 1461635346
PfmFamily: 33
TTFWeight: 700
TTFWidth: 5
LineGap: 0
VLineGap: 0
Panose: 2 11 6 3 3 8 4 2 2 4
OS2TypoAscent: 2000
OS2TypoAOffset: 0
OS2TypoDescent: -750
OS2TypoDOffset: 0
OS2TypoLinegap: 0
OS2WinAscent: 2000
OS2WinAOffset: 0
OS2WinDescent: 750
OS2WinDOffset: 0
HheadAscent: 2000
HheadAOffset: 0
HheadDescent: -750
HheadDOffset: 0
OS2SubXSize: 1331
OS2SubYSize: 1433
OS2SubXOff: 0
OS2SubYOff: 286
OS2SupXSize: 1331
OS2SupYSize: 1433
OS2SupXOff: 0
OS2SupYOff: 983
OS2StrikeYSize: 102
OS2StrikeYPos: 530
OS2Vendor: 'PfEd'
OS2CodePages: 600001ff.dfff0000
Lookup: 1 0 0 "'case' Case-Sensitive Forms in Latin lookup 0" { "'case' Case-Sensitive Forms in Latin lookup 0 subtable"  } ['case' ('DFLT' <'dflt' > 'latn' <'CAT ' 'ESP ' 'GAL ' 'dflt' > ) ]
Lookup: 6 1 0 "'ccmp' Glyph Composition/Decomposition lookup 2" { "'ccmp' Glyph Composition/Decomposition lookup 2 subtable"  } ['ccmp' ('arab' <'KUR ' 'SND ' 'URD ' 'dflt' > 'hebr' <'dflt' > 'nko ' <'dflt' > ) ]
Lookup: 6 0 0 "'ccmp' Glyph Composition/Decomposition lookup 3" { "'ccmp' Glyph Composition/Decomposition lookup 3 subtable"  } ['ccmp' ('cyrl' <'MKD ' 'SRB ' 'dflt' > 'grek' <'dflt' > 'latn' <'ISM ' 'KSM ' 'LSM ' 'MOL ' 'NSM ' 'ROM ' 'SKS ' 'SSM ' 'dflt' > ) ]

StartChar: exclam
Encoding: 33 33 1
Width: 827
GlyphClass: 2
Flags: W
LayerCount: 2
Fore
SplineSet
557.5 77.2998046875 m 2,0,1
 557.5 0.2998046875 557.5 0.2998046875 486.5 0.2998046875 c 2,2,-1
 344.5 0.2998046875 l 2,3,4
 270.5 0.2998046875 270.5 0.2998046875 270.5 77.2998046875 c 2,5,-1
 270.5 219.299804688 l 2,6,7
 270.5 294.299804688 270.5 294.299804688 344.5 294.299804688 c 2,8,-1
 483.5 294.299804688 l 2,9,10
 557.5 294.299804688 557.5 294.299804688 557.5 220.299804688 c 6,11,-1
 557.5 77.2998046875 l 2,0,1
273.056640625 1480 m 1,12,-1
 553.899414062 1480 l 1,13,-1
 532.663085938 447 l 1,14,-1
 295.35546875 447 l 1,15,-1
 273.056640625 1480 l 1,12,-1
EndSplineSet
EndChar

StartChar: period
Encoding: 46 46 2
Width: 657
GlyphClass: 2
Flags: W
LayerCount: 2
Fore
SplineSet
470.5 77.2998046875 m 2,0,1
 470.5 58.958984375 470.5 58.958984375 462.575195312 41.7099609375 c 128,-1,2
 454.650390625 24.4619140625 454.650390625 24.4619140625 437.932617188 12.380859375 c 128,-1,3
 421.213867188 0.2998046875 421.213867188 0.2998046875 399.5 0.2998046875 c 2,4,-1
 257.5 0.2998046875 l 2,5,6
 225.141601562 0.2998046875 225.141601562 0.2998046875 204.739257812 20.6337890625 c 0,7,8
 183.5 41.802734375 183.5 41.802734375 183.5 77.2998046875 c 2,9,-1
 183.5 219.299804688 l 2,10,11
 183.5 234.077148438 183.5 234.077148438 188.198242188 248.340820312 c 128,-1,12
 192.896484375 262.603515625 192.896484375 262.603515625 204.206054688 273.899414062 c 0,13,14
 224.630859375 294.299804688 224.630859375 294.299804688 257.5 294.299804688 c 2,15,-1
 396.5 294.299804688 l 2,16,17
 429.639648438 294.299804688 429.639648438 294.299804688 450.069335938 273.869140625 c 128,-1,18
 470.5 253.439453125 470.5 253.439453125 470.5 220.299804688 c 2,19,-1
 470.5 77.2998046875 l 2,0,1
EndSplineSet
EndChar

StartChar: colon
Encoding: 58 58 3
Width: 696
GlyphClass: 2
Flags: W
LayerCount: 2
Fore
SplineSet
491.5 828.299804688 m 2,0,-1
 491.5 685.299804688 l 2,1,2
 491.5 648.84765625 491.5 648.84765625 470.233398438 627.739257812 c 0,3,4
 450.6484375 608.299804688 450.6484375 608.299804688 420.5 608.299804688 c 2,5,-1
 278.5 608.299804688 l 2,6,7
 246.141601562 608.299804688 246.141601562 608.299804688 225.739257812 628.633789062 c 0,8,9
 204.5 649.802734375 204.5 649.802734375 204.5 685.299804688 c 2,10,-1
 204.5 827.299804688 l 2,11,12
 204.5 861.217773438 204.5 861.217773438 225.206054688 881.899414062 c 0,13,14
 245.630859375 902.299804688 245.630859375 902.299804688 278.5 902.299804688 c 2,15,-1
 417.5 902.299804688 l 2,16,17
 437.413085938 902.299804688 437.413085938 902.299804688 454.479492188 892.328125 c 128,-1,18
 471.546875 882.357421875 471.546875 882.357421875 481.5234375 865.2890625 c 128,-1,19
 491.5 848.220703125 491.5 848.220703125 491.5 828.299804688 c 2,0,-1
491.5 77.2998046875 m 2,20,21
 491.5 58.958984375 491.5 58.958984375 483.575195312 41.7099609375 c 128,-1,22
 475.650390625 24.4619140625 475.650390625 24.4619140625 458.932617188 12.380859375 c 128,-1,23
 442.213867188 0.2998046875 442.213867188 0.2998046875 420.5 0.2998046875 c 2,24,-1
 278.5 0.2998046875 l 2,25,26
 246.141601562 0.2998046875 246.141601562 0.2998046875 225.739257812 20.6337890625 c 0,27,28
 204.5 41.802734375 204.5 41.802734375 204.5 77.2998046875 c 2,29,-1
 204.5 219.299804688 l 2,30,31
 204.5 253.217773438 204.5 253.217773438 225.206054688 273.899414062 c 0,32,33
 245.630859375 294.299804688 245.630859375 294.299804688 278.5 294.299804688 c 2,34,-1
 417.5 294.299804688 l 2,35,36
 450.639648438 294.299804688 450.639648438 294.299804688 471.069335938 273.869140625 c 128,-1,37
 491.5 253.439453125 491.5 253.439453125 491.5 220.299804688 c 2,38,-1
 491.5 77.2998046875 l 2,20,21
EndSplineSet
EndChar

StartChar: afii57388
Encoding: 1548 1548 5
Width: 670
VWidth: 2054
GlyphClass: 2
Flags: W
LayerCount: 2
Fore
SplineSet
419.6953125 338.215820312 m 1,0,1
 475.483418302 334.37110298 475.483418302 334.37110298 498.870615401 304.553715553 c 128,-1,2
 522.2578125 274.736328125 522.2578125 274.736328125 522.2578125 238.3203125 c 2,3,-1
 522.2578125 107.650390625 l 2,4,5
 522.2578125 51.3173828125 522.2578125 51.3173828125 492.40625 25.2290039062 c 128,-1,6
 462.5546875 -0.859375 462.5546875 -0.859375 421.357421875 -0.859375 c 2,7,-1
 299.033203125 -0.859375 l 1,8,9
 234.424265485 2.16255847242 234.424265485 2.16255847242 205.575195312 50.38671875 c 0,10,11
 191.328125 74.2021484375 191.328125 74.2021484375 191.328125 104.880859375 c 2,12,-1
 191.328125 253.533203125 l 1,13,14
 212.168332101 478.587497029 212.168332101 478.587497029 419.177734375 654.685546875 c 2,15,-1
 441.833984375 673.958984375 l 1,16,-1
 585.333007812 602.279296875 l 1,17,-1
 545.345703125 558.306640625 l 2,18,19
 440.646484375 443.172851562 440.646484375 443.172851562 419.6953125 338.215820312 c 1,0,1
EndSplineSet
EndChar

StartChar: uni0615
Encoding: 1557 1557 6
Width: 6
VWidth: 2186
GlyphClass: 4
Flags: W
AnchorPoint: "Anchor-10" 550.84 1282.5 mark 0
AnchorPoint: "Anchor-9" 550.84 1282.5 mark 0
AnchorPoint: "Anchor-1" 550.84 1978 basemark 0
AnchorPoint: "Anchor-1" 550.84 1282.5 mark 0
LayerCount: 2
Fore
SplineSet
475.366210938 1462.95996094 m 1,0,-1
 555.120117188 1462.95996094 l 2,1,2
 626.667870665 1462.95996094 626.667870665 1462.95996094 662.07421875 1475.47119141 c 0,3,4
 726.510921913 1498.24062366 726.510921913 1498.24062366 728.830078125 1549.7785058 c 0,5,6
 732 1599 732 1599 690.819335938 1605.18457031 c 0,7,8
 656.806311302 1611.06584195 656.806311302 1611.06584195 598.857416938 1573.46038033 c 0,9,10
 521.996162148 1520.82387002 521.996162148 1520.82387002 475.366210938 1462.95996094 c 1,0,-1
820.110351562 1560.70019531 m 0,11,12
 820 1375 820 1375 579.73046875 1374.88964844 c 2,13,-1
 282.639648438 1374.88964844 l 1,14,-1
 282.639648438 1462.95996094 l 1,15,-1
 369.309570312 1462.95996094 l 1,16,-1
 369.309570312 1889.88964844 l 1,17,-1
 458.450195312 1889.88964844 l 1,18,-1
 458.450195312 1528.53515625 l 1,19,20
 521 1618 521 1618 621.809570312 1667.98339844 c 0,21,22
 709 1711 709 1711 777 1661 c 4,23,24
 820 1629 820 1629 820.110351562 1560.70019531 c 0,11,12
EndSplineSet
EndChar

StartChar: uni061B
Encoding: 1563 1563 7
Width: 660
VWidth: 2054
GlyphClass: 2
Flags: W
LayerCount: 2
Fore
SplineSet
281.095703125 448.911132812 m 6,0,1
 228.279296875 448.911132812 228.279296875 448.911132812 206.608398438 471.70703125 c 4,2,3
 172.275390625 507.82421875 172.275390625 507.82421875 172.275390625 554.651367188 c 6,4,-1
 172.275390625 703.3046875 l 5,5,6
 193.135742188 928.5078125 193.135742188 928.5078125 400.138671875 1104.46679688 c 6,7,-1
 422.79296875 1123.72363281 l 5,8,-1
 566.270507812 1052.0546875 l 5,9,-1
 526.297851562 1008.08300781 l 6,10,11
 421.594726562 892.90625 421.594726562 892.90625 400.645507812 787.986328125 c 5,12,13
 456.431640625 784.141601562 456.431640625 784.141601562 479.818359375 754.32421875 c 132,-1,14
 503.205078125 724.506835938 503.205078125 724.506835938 503.205078125 688.090820312 c 6,15,-1
 503.205078125 568.420898438 l 6,16,17
 503.205078125 461.59765625 503.205078125 461.59765625 417.865234375 449.95703125 c 4,18,19
 410.198242188 448.911132812 410.198242188 448.911132812 402.3046875 448.911132812 c 6,20,-1
 281.095703125 448.911132812 l 6,0,1
479.5 77.2998046875 m 2,21,22
 479.5 35.9155922901 479.5 35.9155922901 454.856933594 18.1076984888 c 128,-1,23
 430.213867188 0.2998046875 430.213867188 0.2998046875 408.5 0.2998046875 c 2,24,-1
 266.5 0.2998046875 l 2,25,26
 234.141601562 0.2998046875 234.141601562 0.2998046875 213.320800781 21.0512695312 c 128,-1,27
 192.5 41.802734375 192.5 41.802734375 192.5 77.2998046875 c 2,28,-1
 192.5 219.299804688 l 2,29,30
 192.5 253.21839044 192.5 253.21839044 213.065429688 273.759097564 c 128,-1,31
 233.630859375 294.299804688 233.630859375 294.299804688 266.5 294.299804688 c 2,32,-1
 405.5 294.299804688 l 2,33,34
 438.639648438 294.299804688 438.639648438 294.299804688 459.069335938 273.869140625 c 128,-1,35
 479.5 253.439453125 479.5 253.439453125 479.5 220.299804688 c 2,36,-1
 479.5 77.2998046875 l 2,21,22
EndSplineSet
EndChar

StartChar: uni061F
Encoding: 1567 1567 8
Width: 1093
GlyphClass: 2
Flags: W
LayerCount: 2
Fore
SplineSet
745.5 77.2998046875 m 2,0,1
 745.5 35.9155922901 745.5 35.9155922901 720.856933594 18.1076984888 c 128,-1,2
 696.213867188 0.2998046875 696.213867188 0.2998046875 674.5 0.2998046875 c 2,3,-1
 532.5 0.2998046875 l 2,4,5
 500.141328832 0.2998046875 500.141328832 0.2998046875 484.063340197 16.32421875 c 0,6,7
 458.5 41.8023775824 458.5 41.8023775824 458.5 77.2998046875 c 2,8,-1
 458.5 219.299804688 l 2,9,10
 458.5 253.218817639 458.5 253.218817639 479.065429688 273.759311163 c 128,-1,11
 499.630859375 294.299804688 499.630859375 294.299804688 532.5 294.299804688 c 2,12,-1
 671.5 294.299804688 l 2,13,14
 704.639648438 294.299804688 704.639648438 294.299804688 725.069335938 273.869140625 c 128,-1,15
 745.5 253.439453125 745.5 253.439453125 745.5 220.299804688 c 2,16,-1
 745.5 77.2998046875 l 2,0,1
468 450 m 5,17,-1
 468 479 l 6,18,19
 468 537 468 537 460.524414062 559.134765625 c 0,20,21
 445 605 445 605 395.353515625 654.639648438 c 0,22,23
 382 668 382 668 373.108398438 677.1484375 c 2,24,-1
 285.415039062 762.848632812 l 2,25,26
 112 932 112 932 112 1064.5546875 c 0,27,28
 112 1334 112 1334 327.84765625 1433.51171875 c 0,29,30
 429 1480 429 1480 547.685546875 1480 c 0,31,32
 767.209679473 1480 767.209679473 1480 960.818359375 1365.03417969 c 2,33,-1
 996.823242188 1343.65429688 l 1,34,-1
 892.717773438 1135.58886719 l 1,35,-1
 852.1484375 1156.73046875 l 2,36,37
 572 1303 572 1303 442.909179688 1193.875 c 0,38,39
 391 1150 391 1150 391 1079 c 0,40,41
 391 1039 391 1039 410.768554688 1002.66796875 c 0,42,43
 431.847076103 965.271311372 431.847076103 965.271311372 487.829101562 909.911132812 c 2,44,-1
 577.766601562 820.97265625 l 2,45,46
 676 724 676 724 697.9609375 672.064453125 c 0,47,48
 735 586 735 586 735 477 c 2,49,-1
 735 450 l 5,50,-1
 468 450 l 5,17,-1
EndSplineSet
EndChar

StartChar: uni0621
Encoding: 1569 1569 9
Width: 834
VWidth: 2181
GlyphClass: 2
Flags: W
AnchorPoint: "Anchor-7" 409 -151 basechar 0
AnchorPoint: "Anchor-10" 361.5 1040.5 basechar 0
LayerCount: 2
Fore
SplineSet
91.1708984375 -29.818359375 m 1,0,-1
 91.1708984375 206.731445312 l 1,1,-1
 219.717773438 257.771484375 l 1,2,3
 92 341 92 341 94.7734375 509.165039062 c 0,4,5
 97 696 97 696 247.558036412 787.224947925 c 0,6,7
 398.351929762 878.212350608 398.351929762 878.212350608 619.650390625 829.627929688 c 2,8,-1
 655 821.8671875 l 1,9,-1
 655 611.612304688 l 1,10,11
 447.25111637 668.262005426 447.25111637 668.262005426 357.434570312 574.55078125 c 4,12,13
 332 548 332 548 332.574614229 502.051354614 c 128,-1,14
 333 456 333 456 358.333984375 430.803710938 c 0,15,16
 405 385 405 385 522.5390625 390.95703125 c 0,17,18
 561.776449937 392.988426383 561.776449937 392.988426383 679.715820312 445.432617188 c 2,19,-1
 743 473.573242188 l 1,20,-1
 743 227.966796875 l 1,21,-1
 91.1708984375 -29.818359375 l 1,0,-1
EndSplineSet
EndChar

StartChar: uni0627
Encoding: 1575 1575 15
Width: 513
VWidth: 2181
GlyphClass: 2
Flags: W
AnchorPoint: "Anchor-10" 256.5 1504 basechar 0
AnchorPoint: "Anchor-7" 263.5 -176.5 basechar 0
LayerCount: 2
Fore
SplineSet
128.899414062 1367.96582031 m 5,0,-1
 382.940429688 1478.08105469 l 5,1,-1
 382.940429688 1.5 l 1,2,-1
 182.774414062 1.5 l 1,3,-1
 128.899414062 1367.96582031 l 5,0,-1
EndSplineSet
Substitution2: "'fina' Terminal Forms in Arabic lookup 9 subtable" uniFE8E
EndChar

StartChar: uni062D
Encoding: 1581 1581 21
Width: 1331
VWidth: 2181
GlyphClass: 2
Flags: W
AnchorPoint: "Anchor-10" 546.5 1211 basechar 0
AnchorPoint: "Anchor-7" 432.288 -694.291 basechar 0
LayerCount: 2
Fore
SplineSet
698.3984375 592.116210938 m 5,0,1
 563 663 563 663 522.393554688 663.977539062 c 0,2,3
 417.096679688 663.583007812 417.096679688 663.583007812 302.006835938 516.119140625 c 2,4,-1
 274.513671875 480.892578125 l 1,5,-1
 96.810546875 617.587890625 l 1,6,-1
 120.743164062 652.696289062 l 2,7,8
 294.780617966 908 294.780617966 908 507 908 c 0,9,10
 563.575299177 908 563.575299177 908 610.048391776 888.66015625 c 0,11,12
 675.693954301 861.341661803 675.693954301 861.341661803 763.970024026 818.24456137 c 0,13,14
 925.465059423 739.401362057 925.465059423 739.401362057 998.297959399 714.171384153 c 128,-1,15
 1071.13085938 688.94140625 1071.13085938 688.94140625 1154.37988281 677.776367188 c 2,16,-1
 1199.38085938 671.741210938 l 1,17,-1
 1165.04589844 432.009765625 l 1,18,-1
 1128.98339844 429.313476562 l 2,19,20
 1009.97814228 420.415962163 1009.97814228 420.415962163 988.256835938 418.28515625 c 0,21,22
 767.12890625 391.3203125 767.12890625 391.3203125 624.958984375 309.407226562 c 0,23,24
 340.008789062 145.260742188 340.008789062 145.260742188 340.080078125 -87.1708984375 c 0,25,26
 340.012695312 -212.049804688 340.012695312 -212.049804688 433.001464844 -287.041503906 c 128,-1,27
 525.990234375 -362.033203125 525.990234375 -362.033203125 777.885742188 -362.520507812 c 0,28,29
 957.356445312 -362.982421875 957.356445312 -362.982421875 1118.57617188 -317.060546875 c 2,30,-1
 1159.45605469 -305.416015625 l 1,31,-1
 1239.68554688 -536.275390625 l 1,32,-1
 1195.06054688 -549.97265625 l 2,33,34
 993.005859375 -611.99609375 993.005859375 -611.99609375 779.825195312 -612.13671875 c 0,35,36
 369.796875 -611.991210938 369.796875 -611.991210938 205.909179688 -419.1875 c 0,37,38
 90.998046875 -284.712890625 90.998046875 -284.712890625 91 -91.7416992188 c 128,-1,39
 91.001953125 101.229492188 91.001953125 101.229492188 194.78515625 257.834960938 c 0,40,41
 351.941809155 494.978838504 351.941809155 494.978838504 698.3984375 592.116210938 c 5,0,1
EndSplineSet
Substitution2: "'fina' Terminal Forms in Arabic lookup 9 subtable" uniFEA2
Substitution2: "'medi' Medial Forms in Arabic lookup 11 subtable" uniFEA4
Substitution2: "'init' Initial Forms in Arabic lookup 13 subtable" uniFEA3
EndChar

StartChar: uni062F
Encoding: 1583 1583 23
Width: 1026
VWidth: 2181
GlyphClass: 2
Flags: W
AnchorPoint: "Anchor-10" 430.935 1197.81 basechar 0
AnchorPoint: "Anchor-7" 418.059 -159.422 basechar 0
LayerCount: 2
Fore
SplineSet
435.600097656 243.903808594 m 0,0,1
 608 252 608 252 673.052734375 301.750976562 c 0,2,3
 697 320 697 320 700.838867188 341.579101562 c 0,4,5
 705 365 705 365 687.373046875 407.85546875 c 0,6,7
 609.735853021 591.625244534 609.735853021 591.625244534 370.547851562 774.03125 c 2,8,-1
 337.350585938 799.34765625 l 1,9,-1
 475.6484375 1012.01855469 l 1,10,-1
 514.129882812 983.234375 l 2,11,12
 888 704 888 704 933.80859375 409.155273438 c 0,13,14
 969 185 969 185 776.485351562 68.685546875 c 0,15,16
 657 -4 657 -4 446.293945312 -14.5991210938 c 0,17,18
 224 -26 224 -26 91.7646484375 20.1416015625 c 5,19,-1
 92.357421875 288.241210938 l 5,20,21
 252 236 252 236 435.600097656 243.903808594 c 0,0,1
EndSplineSet
Substitution2: "'fina' Terminal Forms in Arabic lookup 9 subtable" uniFEAA
EndChar

StartChar: uni0631
Encoding: 1585 1585 25
Width: 927
VWidth: 2186
GlyphClass: 2
Flags: W
AnchorPoint: "Anchor-7" 468 -627.5 basechar 0
AnchorPoint: "Anchor-10" 491.81 990.01 basechar 0
LayerCount: 2
Fore
SplineSet
763.596679688 588.578125 m 6,0,1
 862 310 862 310 831.123046875 89.74609375 c 0,2,3
 769 -355 769 -355 409.862304688 -465.603515625 c 0,4,5
 282.196766439 -504.243108817 282.196766439 -504.243108817 143.20703125 -505.228515625 c 2,6,-1
 114.556640625 -505.431640625 l 1,7,-1
 -3.25 -290.607421875 l 1,8,-1
 66.8271484375 -285.677734375 l 2,9,10
 321 -268 321 -268 446.448242188 -167.680664062 c 0,11,12
 578 -62 578 -62 589.865234375 119.018554688 c 0,13,14
 597 222 597 222 531.76171875 461.016601562 c 6,15,-1
 523.3828125 491.776367188 l 5,16,-1
 744 644 l 5,17,-1
 763.596679688 588.578125 l 6,0,1
EndSplineSet
PairPos2: "'kern' Horizontal Kerning lookup 15-1" uni06CA dx=-80 dy=0 dh=-80 dv=0 dx=0 dy=0 dh=0 dv=0
PairPos2: "'kern' Horizontal Kerning lookup 15-1" uniFB90 dx=-290 dy=0 dh=-290 dv=0 dx=0 dy=0 dh=0 dv=0
PairPos2: "'kern' Horizontal Kerning lookup 15-1" uniFB8E dx=-290 dy=0 dh=-290 dv=0 dx=0 dy=0 dh=0 dv=0
PairPos2: "'kern' Horizontal Kerning lookup 15-1" uni06A9 dx=-290 dy=0 dh=-290 dv=0 dx=0 dy=0 dh=0 dv=0
PairPos2: "'kern' Horizontal Kerning lookup 15-1" uni064A dx=-100 dy=0 dh=-100 dv=0 dx=0 dy=0 dh=0 dv=0
PairPos2: "'kern' Horizontal Kerning lookup 15-1" afii57414 dx=-100 dy=0 dh=-100 dv=0 dx=0 dy=0 dh=0 dv=0
PairPos2: "'kern' Horizontal Kerning lookup 15-1" uniFBE8 dx=-200 dy=0 dh=-200 dv=0 dx=0 dy=0 dh=0 dv=0
PairPos2: "'kern' Horizontal Kerning lookup 15-1" uni0649 dx=-100 dy=0 dh=-100 dv=0 dx=0 dy=0 dh=0 dv=0
PairPos2: "'kern' Horizontal Kerning lookup 15-1" uni0648 dx=-80 dy=0 dh=-80 dv=0 dx=0 dy=0 dh=0 dv=0
PairPos2: "'kern' Horizontal Kerning lookup 15-1" afii57412 dx=-80 dy=0 dh=-80 dv=0 dx=0 dy=0 dh=0 dv=0
PairPos2: "'kern' Horizontal Kerning lookup 15-1" uniFEEB dx=-200 dy=0 dh=-200 dv=0 dx=0 dy=0 dh=0 dv=0
PairPos2: "'kern' Horizontal Kerning lookup 15-1" uni0647 dx=-200 dy=0 dh=-200 dv=0 dx=0 dy=0 dh=0 dv=0
PairPos2: "'kern' Horizontal Kerning lookup 15-1" uniFEE7 dx=-200 dy=0 dh=-200 dv=0 dx=0 dy=0 dh=0 dv=0
PairPos2: "'kern' Horizontal Kerning lookup 15-1" uni0646 dx=-150 dy=0 dh=-150 dv=0 dx=0 dy=0 dh=0 dv=0
PairPos2: "'kern' Horizontal Kerning lookup 15-1" uniFEE3 dx=-200 dy=0 dh=-200 dv=0 dx=0 dy=0 dh=0 dv=0
PairPos2: "'kern' Horizontal Kerning lookup 15-1" uni0645 dx=-200 dy=0 dh=-200 dv=0 dx=0 dy=0 dh=0 dv=0
PairPos2: "'kern' Horizontal Kerning lookup 15-1" uniFEFB dx=-200 dy=0 dh=-200 dv=0 dx=0 dy=0 dh=0 dv=0
PairPos2: "'kern' Horizontal Kerning lookup 15-1" uniFEDF dx=-200 dy=0 dh=-200 dv=0 dx=0 dy=0 dh=0 dv=0
PairPos2: "'kern' Horizontal Kerning lookup 15-1" uni0644 dx=-150 dy=0 dh=-150 dv=0 dx=0 dy=0 dh=0 dv=0
PairPos2: "'kern' Horizontal Kerning lookup 15-1" uniFEDB dx=-290 dy=0 dh=-290 dv=0 dx=0 dy=0 dh=0 dv=0
PairPos2: "'kern' Horizontal Kerning lookup 15-1" uni0643 dx=-200 dy=0 dh=-200 dv=0 dx=0 dy=0 dh=0 dv=0
PairPos2: "'kern' Horizontal Kerning lookup 15-1" uniFED7 dx=-200 dy=0 dh=-200 dv=0 dx=0 dy=0 dh=0 dv=0
PairPos2: "'kern' Horizontal Kerning lookup 15-1" uni0642 dx=-150 dy=0 dh=-150 dv=0 dx=0 dy=0 dh=0 dv=0
PairPos2: "'kern' Horizontal Kerning lookup 15-1" uniFED3 dx=-200 dy=0 dh=-200 dv=0 dx=0 dy=0 dh=0 dv=0
PairPos2: "'kern' Horizontal Kerning lookup 15-1" uni0641 dx=-200 dy=0 dh=-200 dv=0 dx=0 dy=0 dh=0 dv=0
PairPos2: "'kern' Horizontal Kerning lookup 15-1" uniFECF dx=-200 dy=0 dh=-200 dv=0 dx=0 dy=0 dh=0 dv=0
PairPos2: "'kern' Horizontal Kerning lookup 15-1" uniFECB dx=-200 dy=0 dh=-200 dv=0 dx=0 dy=0 dh=0 dv=0
PairPos2: "'kern' Horizontal Kerning lookup 15-1" uniFEC7 dx=-200 dy=0 dh=-200 dv=0 dx=0 dy=0 dh=0 dv=0
PairPos2: "'kern' Horizontal Kerning lookup 15-1" uni0638 dx=-200 dy=0 dh=-200 dv=0 dx=0 dy=0 dh=0 dv=0
PairPos2: "'kern' Horizontal Kerning lookup 15-1" uniFEC3 dx=-200 dy=0 dh=-200 dv=0 dx=0 dy=0 dh=0 dv=0
PairPos2: "'kern' Horizontal Kerning lookup 15-1" uni0637 dx=-200 dy=0 dh=-200 dv=0 dx=0 dy=0 dh=0 dv=0
PairPos2: "'kern' Horizontal Kerning lookup 15-1" uniFEBF dx=-200 dy=0 dh=-200 dv=0 dx=0 dy=0 dh=0 dv=0
PairPos2: "'kern' Horizontal Kerning lookup 15-1" uni0636 dx=-200 dy=0 dh=-200 dv=0 dx=0 dy=0 dh=0 dv=0
PairPos2: "'kern' Horizontal Kerning lookup 15-1" uniFEBB dx=-200 dy=0 dh=-200 dv=0 dx=0 dy=0 dh=0 dv=0
PairPos2: "'kern' Horizontal Kerning lookup 15-1" uni0635 dx=-200 dy=0 dh=-200 dv=0 dx=0 dy=0 dh=0 dv=0
PairPos2: "'kern' Horizontal Kerning lookup 15-1" uniFEB7 dx=-200 dy=0 dh=-200 dv=0 dx=0 dy=0 dh=0 dv=0
PairPos2: "'kern' Horizontal Kerning lookup 15-1" uni0634 dx=-200 dy=0 dh=-200 dv=0 dx=0 dy=0 dh=0 dv=0
PairPos2: "'kern' Horizontal Kerning lookup 15-1" uniFEB3 dx=-200 dy=0 dh=-200 dv=0 dx=0 dy=0 dh=0 dv=0
PairPos2: "'kern' Horizontal Kerning lookup 15-1" uni0633 dx=-200 dy=0 dh=-200 dv=0 dx=0 dy=0 dh=0 dv=0
PairPos2: "'kern' Horizontal Kerning lookup 15-1" uni0632 dx=-80 dy=0 dh=-80 dv=0 dx=0 dy=0 dh=0 dv=0
PairPos2: "'kern' Horizontal Kerning lookup 15-1" uni0631 dx=-80 dy=0 dh=-80 dv=0 dx=0 dy=0 dh=0 dv=0
PairPos2: "'kern' Horizontal Kerning lookup 15-1" uni0630 dx=-200 dy=0 dh=-200 dv=0 dx=0 dy=0 dh=0 dv=0
PairPos2: "'kern' Horizontal Kerning lookup 15-1" uni062F dx=-200 dy=0 dh=-200 dv=0 dx=0 dy=0 dh=0 dv=0
PairPos2: "'kern' Horizontal Kerning lookup 15-1" uniFEA7 dx=-200 dy=0 dh=-200 dv=0 dx=0 dy=0 dh=0 dv=0
PairPos2: "'kern' Horizontal Kerning lookup 15-1" uniFEA3 dx=-200 dy=0 dh=-200 dv=0 dx=0 dy=0 dh=0 dv=0
PairPos2: "'kern' Horizontal Kerning lookup 15-1" uniFE9F dx=-200 dy=0 dh=-200 dv=0 dx=0 dy=0 dh=0 dv=0
PairPos2: "'kern' Horizontal Kerning lookup 15-1" uniFE9B dx=-200 dy=0 dh=-200 dv=0 dx=0 dy=0 dh=0 dv=0
PairPos2: "'kern' Horizontal Kerning lookup 15-1" uni062B dx=-200 dy=0 dh=-200 dv=0 dx=0 dy=0 dh=0 dv=0
PairPos2: "'kern' Horizontal Kerning lookup 15-1" uniFE97 dx=-200 dy=0 dh=-200 dv=0 dx=0 dy=0 dh=0 dv=0
PairPos2: "'kern' Horizontal Kerning lookup 15-1" uni062A dx=-200 dy=0 dh=-200 dv=0 dx=0 dy=0 dh=0 dv=0
PairPos2: "'kern' Horizontal Kerning lookup 15-1" uni0629 dx=-200 dy=0 dh=-200 dv=0 dx=0 dy=0 dh=0 dv=0
PairPos2: "'kern' Horizontal Kerning lookup 15-1" uniFE91 dx=-80 dy=0 dh=-80 dv=0 dx=0 dy=0 dh=0 dv=0
PairPos2: "'kern' Horizontal Kerning lookup 15-1" uni0628 dx=-200 dy=0 dh=-200 dv=0 dx=0 dy=0 dh=0 dv=0
PairPos2: "'kern' Horizontal Kerning lookup 15-1" uni0627 dx=-200 dy=0 dh=-200 dv=0 dx=0 dy=0 dh=0 dv=0
PairPos2: "'kern' Horizontal Kerning lookup 15-1" uni0623 dx=-200 dy=0 dh=-200 dv=0 dx=0 dy=0 dh=0 dv=0
PairPos2: "'kern' Horizontal Kerning lookup 15-1" uni0622 dx=-200 dy=0 dh=-200 dv=0 dx=0 dy=0 dh=0 dv=0
PairPos2: "'kern' Horizontal Kerning lookup 15-1" uni0621 dx=-200 dy=0 dh=-200 dv=0 dx=0 dy=0 dh=0 dv=0
PairPos2: "'kern' Horizontal Kerning lookup 15-1" uniFB94 dx=-290 dy=0 dh=-290 dv=0 dx=0 dy=0 dh=0 dv=0
PairPos2: "'kern' Horizontal Kerning lookup 15-1" uniFB92 dx=-290 dy=0 dh=-290 dv=0 dx=0 dy=0 dh=0 dv=0
PairPos2: "'kern' Horizontal Kerning lookup 15-1" afii57509 dx=-290 dy=0 dh=-290 dv=0 dx=0 dy=0 dh=0 dv=0
PairPos2: "'kern' Horizontal Kerning lookup 15-1" afii57508 dx=-80 dy=0 dh=-80 dv=0 dx=0 dy=0 dh=0 dv=0
PairPos2: "'kern' Horizontal Kerning lookup 15-1" uniFB7C dx=-150 dy=0 dh=-150 dv=0 dx=0 dy=0 dh=0 dv=0
PairPos2: "'kern' Horizontal Kerning lookup 15-1" afii57506 dx=-200 dy=0 dh=-200 dv=0 dx=0 dy=0 dh=0 dv=0
PairPos2: "'kern' Horizontal Kerning lookup 15-1" afii57440 dx=-200 dy=0 dh=-200 dv=0 dx=0 dy=0 dh=0 dv=0
PairPos2: "'kern' Horizontal Kerning lookup 15-1" uniFE8B dx=-200 dy=0 dh=-200 dv=0 dx=0 dy=0 dh=0 dv=0
Substitution2: "'fina' Terminal Forms in Arabic lookup 9 subtable" uniFEAE
EndChar

StartChar: uni0633
Encoding: 1587 1587 27
Width: 2368
VWidth: 2181
GlyphClass: 2
Flags: W
AnchorPoint: "Anchor-7" 433.5 -616.03 basechar 0
AnchorPoint: "Anchor-10" 625.51 894.5 basechar 0
LayerCount: 2
Fore
SplineSet
338.125976562 78.2041015625 m 0,0,1
 337 -235 337 -235 707.982421875 -235 c 0,2,3
 881 -235 881 -235 971.336914062 -164.338867188 c 0,4,5
 1061 -94 1061 -94 1081.55957031 54.4755859375 c 0,6,7
 1086 87 1086 87 1085.6484375 118.63671875 c 0,8,9
 1086.00097656 275.421875 1086.00097656 275.421875 984.3671875 404.612304688 c 2,10,-1
 959.05078125 436.79296875 l 1,11,-1
 1179.20800781 646.3984375 l 1,12,-1
 1200.96484375 577.728515625 l 2,13,14
 1269 362 1269 362 1334.984375 302.731445312 c 0,15,16
 1382 261 1382 261 1445.78515625 260.196289062 c 0,17,18
 1510 260 1510 260 1536.41894531 286.27734375 c 0,19,20
 1563.02636719 313.026367188 1563.02636719 313.026367188 1569.49609375 380.112304688 c 2,21,-1
 1592.76171875 621.360351562 l 1,22,-1
 1792.54980469 621.360351562 l 1,23,-1
 1809.2734375 389.206054688 l 2,24,25
 1816 295 1816 295 1862.27539062 271.380859375 c 0,26,27
 1885 260 1885 260 1938.67578125 260.4453125 c 0,28,29
 1990 261 1990 261 2008.18164062 294.31640625 c 0,30,31
 2028 330 2028 330 2027.97363281 391.318359375 c 0,32,33
 2028 458.987304688 2028 458.987304688 1987.05664062 687.055664062 c 2,34,-1
 1980.09472656 725.8359375 l 1,35,-1
 2207.79296875 798.805664062 l 1,36,-1
 2222.16308594 757.225585938 l 2,37,38
 2277 599 2277 599 2277 416.099609375 c 0,39,40
 2277 234 2277 234 2203.70214844 130.461914062 c 0,41,42
 2111 0 2111 0 1923 0 c 0,43,44
 1777 0 1777 0 1694.72460938 96.0537109375 c 1,45,46
 1599 -29 1599 -29 1388.58789062 8.404296875 c 0,47,48
 1346 16 1346 16 1311.04980469 31.5517578125 c 1,49,50
 1286 -224 1286 -224 1129.09960938 -356.243164062 c 0,51,52
 972 -488 972 -488 695.822265625 -488.2890625 c 0,53,54
 268 -488 268 -488 132.748046875 -176.530273438 c 0,55,56
 65 -20 65 -20 96.70703125 195.7109375 c 0,57,58
 116.962890625 335.740234375 116.962890625 335.740234375 177.983398438 472.5390625 c 2,59,-1
 194.75390625 510.135742188 l 1,60,-1
 428.6640625 429.836914062 l 1,61,-1
 410.428710938 385.637695312 l 2,62,63
 338 210 338 210 338.125976562 78.2041015625 c 0,0,1
EndSplineSet
Substitution2: "'fina' Terminal Forms in Arabic lookup 9 subtable" uniFEB2
Substitution2: "'medi' Medial Forms in Arabic lookup 11 subtable" uniFEB4
Substitution2: "'init' Initial Forms in Arabic lookup 13 subtable" uniFEB3
EndChar

StartChar: uni0635
Encoding: 1589 1589 29
Width: 2466
VWidth: 2181
GlyphClass: 2
Flags: W
AnchorPoint: "Anchor-10" 480.84 894.5 basechar 0
AnchorPoint: "Anchor-7" 445.84 -653.5 basechar 0
LayerCount: 2
Fore
SplineSet
1589.60449219 275.337890625 m 1,0,-1
 1664.20996094 275.337890625 l 2,1,2
 2042.04394531 275.329101562 2042.04394531 275.329101562 2098.97949219 369.446289062 c 0,3,4
 2122.28808594 407.811523438 2122.28808594 407.811523438 2122.28808594 437.6015625 c 128,-1,5
 2122.28808594 467.391601562 2122.28808594 467.391601562 2105.54394531 490.329101562 c 0,6,7
 2068.57714844 540.96875 2068.57714844 540.96875 1992.50292969 540.96875 c 0,8,9
 1961.39746094 540.96875 1961.39746094 540.96875 1923.75292969 532.501953125 c 0,10,11
 1794.04394531 503.329101562 1794.04394531 503.329101562 1589.60449219 275.337890625 c 1,0,-1
701.243164062 -488.25 m 0,12,13
 267.518554688 -487.981445312 267.518554688 -487.981445312 131.748046875 -176.530273438 c 0,14,15
 63.58984375 -20.1455078125 63.58984375 -20.1455078125 95.70703125 195.7109375 c 0,16,17
 116.375976562 336.666015625 116.375976562 336.666015625 176.983398438 472.5390625 c 2,18,-1
 193.75390625 510.135742188 l 1,19,-1
 427.6640625 429.836914062 l 1,20,-1
 409.428710938 385.637695312 l 2,21,22
 337.0078125 210.1015625 337.0078125 210.1015625 337.125976562 78.2041015625 c 0,23,24
 336.436035592 -92.7302482077 336.436035592 -92.7302482077 445.6484375 -171.586914062 c 0,25,26
 533.47265625 -235 533.47265625 -235 709.366699219 -235.232910156 c 128,-1,27
 885.260742188 -235.465820312 885.260742188 -235.465820312 976.120117188 -164.857421875 c 128,-1,28
 1066.97851562 -94.2490234375 1066.97851562 -94.2490234375 1085.49316406 53.9677734375 c 0,29,30
 1110.27355878 248.701585742 1110.27355878 248.701585742 988.286132812 404.719726562 c 2,31,-1
 963.140625 436.87890625 l 1,32,-1
 1177.90820312 641.353515625 l 1,33,-1
 1203.41894531 581.869140625 l 2,34,35
 1240.2578125 495.967773438 1240.2578125 495.967773438 1297.22460938 354.36328125 c 0,36,37
 1306.88867188 335.701171875 1306.88867188 335.701171875 1323.12109375 328.8515625 c 1,38,39
 1733.88334905 884.971261012 1733.88334905 884.971261012 2112.171875 785.005859375 c 0,40,41
 2165.93717284 770.798001551 2165.93717284 770.798001551 2213.65039062 742.53515625 c 0,42,43
 2372.75 647.715820312 2372.75 647.715820312 2374.44873047 450.383300781 c 128,-1,44
 2376.14746094 253.05078125 2376.14746094 253.05078125 2205.42871094 117.162109375 c 0,45,46
 2057.25491343 -1.64495683238 2057.25491343 -1.64495683238 1679.86816406 -0.6708984375 c 2,47,-1
 1419.93457031 0 l 2,48,49
 1363.73242188 0 1363.73242188 0 1315.06640625 31.3173828125 c 1,50,51
 1290.31347656 -225.041015625 1290.31347656 -225.041015625 1133.52929688 -356.828125 c 128,-1,52
 976.744140625 -488.614257812 976.744140625 -488.614257812 701.243164062 -488.25 c 0,12,13
EndSplineSet
Substitution2: "'fina' Terminal Forms in Arabic lookup 9 subtable" uniFEBA
Substitution2: "'medi' Medial Forms in Arabic lookup 11 subtable" uniFEBC
Substitution2: "'init' Initial Forms in Arabic lookup 13 subtable" uniFEBB
EndChar

StartChar: uni0637
Encoding: 1591 1591 31
Width: 1547
VWidth: 2181
GlyphClass: 2
Flags: W
AnchorPoint: "Anchor-10" 333.72 1541.47 basechar 0
AnchorPoint: "Anchor-7" 755.72 -210 basechar 0
LayerCount: 2
Fore
SplineSet
670.560546875 276.008789062 m 1,0,-1
 745.166015625 276.008789062 l 2,1,2
 1123 276 1123 276 1179.93554688 370.1171875 c 0,3,4
 1203.24414062 408.482421875 1203.24414062 408.482421875 1203.24414062 438.272460938 c 128,-1,5
 1203.24414062 468.0625 1203.24414062 468.0625 1186.5 491 c 0,6,7
 1149.53320312 541.639648438 1149.53320312 541.639648438 1073.45898438 541.639648438 c 0,8,9
 1042.35351562 541.639648438 1042.35351562 541.639648438 1004.70898438 533.172851562 c 0,10,11
 875 504 875 504 670.560546875 276.008789062 c 1,0,-1
473.071289062 418.844726562 m 1,12,13
 783 800 783 800 1081 800 c 0,14,15
 1244 800 1244 800 1348.96191406 703.458007812 c 128,-1,16
 1454 607 1454 607 1455.69824219 445.090820312 c 0,17,18
 1458 238 1458 238 1288.90576172 118.801269531 c 0,19,20
 1120 0 1120 0 760.948242188 0 c 2,21,-1
 91.75 0 l 1,22,-1
 91.75 264.977539062 l 1,23,-1
 257.665039062 264.979492188 l 1,24,-1
 217.189453125 1377.05957031 l 1,25,-1
 473.165039062 1478.56152344 l 5,26,-1
 473.071289062 418.844726562 l 1,12,13
EndSplineSet
Substitution2: "'fina' Terminal Forms in Arabic lookup 9 subtable" uniFEC2
Substitution2: "'medi' Medial Forms in Arabic lookup 11 subtable" uniFEC4
Substitution2: "'init' Initial Forms in Arabic lookup 13 subtable" uniFEC3
EndChar

StartChar: uni0639
Encoding: 1593 1593 33
Width: 1282
VWidth: 2181
GlyphClass: 2
Flags: W
AnchorPoint: "Anchor-10" 568.325 1458.51 basechar 0
AnchorPoint: "Anchor-7" 336.235 -681.76 basechar 0
LayerCount: 2
Fore
SplineSet
816.69921875 807.833007812 m 2,0,1
 697.942744432 865.043543807 697.942744432 865.043543807 607.453794091 865.062299247 c 128,-1,2
 516.96484375 865.081054688 516.96484375 865.081054688 477.443359375 825.560546875 c 128,-1,3
 437.987304688 786.10546875 437.987304688 786.10546875 437.961914062 741.603515625 c 128,-1,4
 437.936523438 697.1015625 437.936523438 697.1015625 450.48828125 669.677734375 c 0,5,6
 476.488397682 612.861769975 476.488397682 612.861769975 561.025390625 577.515625 c 0,7,8
 597.721389454 562.001791684 597.721389454 562.001791684 627.362647852 562.009684905 c 128,-1,9
 657.00390625 562.017578125 657.00390625 562.017578125 728.193359375 571.345703125 c 128,-1,10
 799.3828125 580.673828125 799.3828125 580.673828125 861.185546875 587.153320312 c 128,-1,11
 922.98828125 593.6328125 922.98828125 593.6328125 987.30078125 603.374023438 c 2,12,-1
 1039.04003906 611.2109375 l 1,13,-1
 1039.04003906 359.95703125 l 1,14,-1
 997.166015625 357.041015625 l 2,15,16
 764.458984375 340.837890625 764.458984375 340.837890625 580.85546875 244.143554688 c 0,17,18
 345.009896761 119.123326512 345.009896761 119.123326512 345.080078125 -87.1689453125 c 0,19,20
 345.012695312 -212.049804688 345.012695312 -212.049804688 438.001464844 -287.041015625 c 128,-1,21
 530.990234375 -362.032226562 530.990234375 -362.032226562 782.892578125 -362.520507812 c 0,22,23
 915.08984375 -362.975585938 915.08984375 -362.975585938 1069.36035156 -318.10546875 c 2,24,-1
 1110.84179688 -306.040039062 l 1,25,-1
 1189.17480469 -539.409179688 l 1,26,-1
 1145.046875 -552.975585938 l 2,27,28
 953.170616059 -611.967820699 953.170616059 -611.967820699 787.833984375 -612.13671875 c 0,29,30
 357.737304688 -611.993164062 357.737304688 -611.993164062 197.80859375 -423.071289062 c 0,31,32
 88.998046875 -294.592773438 88.998046875 -294.592773438 88.9985351562 -97.6982421875 c 128,-1,33
 88.9990234375 99.1962890625 88.9990234375 99.1962890625 193.674804688 247.895507812 c 0,34,35
 266.564453125 351.44140625 266.564453125 351.44140625 361.2421875 416.170898438 c 1,36,37
 254.117819858 483.421875668 254.117819858 483.421875668 213.709960938 611.075195312 c 0,38,39
 196.065429688 666.81640625 196.065429688 666.81640625 196.150390625 727.703125 c 0,40,41
 195.978515625 841.752929688 195.978515625 841.752929688 257.873046875 940.556640625 c 0,42,43
 362.765625 1108 362.765625 1108 595 1108 c 0,44,45
 746.566334027 1108 746.566334027 1108 898.049804688 1022.03125 c 2,46,-1
 929.086914062 1004.41699219 l 1,47,-1
 864.431640625 784.837890625 l 1,48,-1
 816.69921875 807.833007812 l 2,0,1
EndSplineSet
Substitution2: "'fina' Terminal Forms in Arabic lookup 9 subtable" uniFECA
Substitution2: "'medi' Medial Forms in Arabic lookup 11 subtable" uniFECC
Substitution2: "'init' Initial Forms in Arabic lookup 13 subtable" uniFECB
EndChar

StartChar: afii57440
Encoding: 1600 1600 35
Width: 738
VWidth: 2181
GlyphClass: 2
Flags: W
AnchorPoint: "Anchor-10" 369 1322.5 basechar 0
AnchorPoint: "Anchor-7" 369 -68.5 basechar 0
LayerCount: 2
Fore
SplineSet
-10.400390625 0 m 1,0,-1
 -10.400390625 264.978515625 l 1,1,-1
 748.400390625 264.978515625 l 1,2,-1
 748.400390625 0 l 1,3,-1
 -10.400390625 0 l 1,0,-1
EndSplineSet
EndChar

StartChar: uni0643
Encoding: 1603 1603 38
Width: 1860
VWidth: 2181
GlyphClass: 2
Flags: W
AnchorPoint: "Anchor-10" 579 1442.5 basechar 0
AnchorPoint: "Anchor-7" 527 -175.5 basechar 0
LayerCount: 2
Fore
SplineSet
1517.30761719 485.91796875 m 1,0,1
 1495 916 1495 916 1472.38183594 1346.88867188 c 1,2,-1
 1470.87207031 1379.30175781 l 1,3,-1
 1729.29980469 1478.90039062 l 1,4,-1
 1729.29980469 454.41015625 l 2,5,6
 1729 441 1729 441 1726.54882812 395.391601562 c 0,7,8
 1710 149 1710 149 1388.45410156 48.45703125 c 0,9,10
 1239 2 1239 2 905 1 c 128,-1,11
 571 -0 571 -0 417.871582031 64.4052734375 c 0,12,13
 120 189 120 189 96.162109375 478.060546875 c 0,14,15
 83.997959128 620.023818258 83.997959128 620.023818258 125.365234375 766.631835938 c 2,16,-1
 137.37890625 809.208984375 l 1,17,-1
 353.61328125 752.154296875 l 1,18,-1
 347.313476562 712.026367188 l 2,19,20
 326 576 326 576 328.483398438 525.538085938 c 0,21,22
 339.510869034 300.578857028 339.510869034 300.578857028 648.745605469 274.558105469 c 0,23,24
 809 261 809 261 1152.93785125 275.99724657 c 128,-1,25
 1496.87570251 290.99449314 1496.87570251 290.99449314 1511.87109375 434.052734375 c 2,26,-1
 1517.30761719 485.91796875 l 1,0,1
740.032226562 815.202148438 m 2,27,28
 801.032145182 807.158203125 801.032145182 807.158203125 853.395467122 807.158203125 c 128,-1,29
 905.758789062 807.158203125 905.758789062 807.158203125 952.604492188 825.341796875 c 128,-1,30
 999.450195312 843.525390625 999.450195312 843.525390625 999.450195312 864.074611424 c 128,-1,31
 999.450195312 884.623832224 999.450195312 884.623832224 933.602539062 894.958888768 c 128,-1,32
 867.754882812 905.293945312 867.754882812 905.293945312 825.284179688 951.97265625 c 0,33,34
 766.009755481 1017.12000513 766.009755481 1017.12000513 789.733398438 1110.56445312 c 0,35,36
 827.761304338 1260.35926664 827.761304338 1260.35926664 1092.92285156 1277.16601562 c 2,37,-1
 1140.76953125 1280.19824219 l 1,38,-1
 1140.76953125 1132.53125 l 1,39,-1
 1099.08105469 1129.45507812 l 2,40,41
 983.963583572 1120.95883008 983.963583572 1120.95883008 941.237304688 1080.13671875 c 0,42,43
 927.579499749 1067.08500643 927.579499749 1067.08500643 937.966190353 1051.19045106 c 128,-1,44
 948.352880956 1035.2958957 948.352880956 1035.2958957 1011.28239751 1026.04150254 c 0,45,46
 1076.01730494 1016.52160921 1076.01730494 1016.52160921 1111.39746094 982.66015625 c 4,47,48
 1150.04980469 945.656733365 1150.04980469 945.656733365 1150.04980469 885.258054182 c 128,-1,49
 1150.04980469 824.859375 1150.04980469 824.859375 1127.81054688 788.326660156 c 0,50,51
 1020.83754602 612.600735787 1020.83754602 612.600735787 726.725585938 661.791015625 c 2,52,-1
 689.1484375 668.076171875 l 1,53,-1
 689.1484375 821.913085938 l 1,54,-1
 740.032226562 815.202148438 l 2,27,28
EndSplineSet
Substitution2: "'fina' Terminal Forms in Arabic lookup 9 subtable" uniFEDA
Substitution2: "'medi' Medial Forms in Arabic lookup 11 subtable" uniFEDC
Substitution2: "'init' Initial Forms in Arabic lookup 13 subtable" uniFEDB
EndChar

StartChar: uni0644
Encoding: 1604 1604 39
Width: 1382
VWidth: 2181
GlyphClass: 2
Flags: W
AnchorPoint: "Anchor-10" 580.01 1112.5 basechar 0
AnchorPoint: "Anchor-7" 402.15 -510.616 basechar 0
LayerCount: 2
Fore
SplineSet
1246.36425781 221.477539062 m 1,0,1
 1243 51 1243 51 1180.8046875 -95.8291015625 c 0,2,3
 1117 -245 1117 -245 990.377929688 -322.203125 c 0,4,5
 864 -399 864 -399 683.4140625 -399.99609375 c 0,6,7
 380 -402 380 -402 209.383789062 -223.002929688 c 0,8,9
 83 -90 83 -90 91.2333984375 138.291015625 c 0,10,11
 98.0034810954 345.106341964 98.0034810954 345.106341964 183.6796875 548.336914062 c 2,12,-1
 199.424804688 585.685546875 l 1,13,-1
 433.952148438 514.533203125 l 1,14,-1
 414.4375 468.452148438 l 2,15,16
 374 372 374 372 354.474609375 287.400390625 c 0,17,18
 334 201 334 201 333.999023438 121.708984375 c 0,19,20
 333 -1 333 -1 405.918945312 -65.38671875 c 0,21,22
 506 -155 506 -155 702.78515625 -152.956054688 c 0,23,24
 848 -151 848 -151 931.734375 -64.6318359375 c 0,25,26
 1033.00769231 39.0078720564 1033.00769231 39.0078720564 1031.54101562 254.4921875 c 2,27,-1
 1029.91503906 493.380859375 l 1,28,-1
 997.862304688 1373.66601562 l 1,29,-1
 1251.79003906 1478.875 l 5,30,-1
 1251.79003906 494.338867188 l 2,31,32
 1252 234 1252 234 1246.36425781 221.477539062 c 1,0,1
EndSplineSet
Substitution2: "'fina' Terminal Forms in Arabic lookup 9 subtable" uniFEDE
Substitution2: "'medi' Medial Forms in Arabic lookup 11 subtable" uniFEE0
Substitution2: "'init' Initial Forms in Arabic lookup 13 subtable" uniFEDF
EndChar

StartChar: uni0645
Encoding: 1605 1605 40
Width: 1213
VWidth: 2181
GlyphClass: 2
Flags: W
AnchorPoint: "Anchor-10" 616.5 1054.31 basechar 0
AnchorPoint: "Anchor-7" 203.631 -681.952 basechar 0
LayerCount: 2
Fore
SplineSet
544.087890625 407.405273438 m 1,0,1
 755.128768784 386.305897407 755.128768784 386.305897407 854.624023438 408.989257812 c 0,2,3
 867.78814543 411.990471535 867.78814543 411.990471535 876.537627403 431.015255299 c 128,-1,4
 885.287109375 450.040039062 885.287109375 450.040039062 885.427734375 461.418945312 c 128,-1,5
 885.568359375 472.796875 885.568359375 472.796875 880.428710938 486.65625 c 128,-1,6
 875.2890625 500.515625 875.2890625 500.515625 861.34765625 515.778320312 c 128,-1,7
 847.40625 531.041992188 847.40625 531.041992188 825.759765625 547.727539062 c 0,8,9
 780.594787605 582.543652905 780.594787605 582.543652905 720.961944584 608.479834265 c 128,-1,10
 661.329101562 634.416015625 661.329101562 634.416015625 640.090820312 636.048828125 c 0,11,12
 602.018541992 638.977599581 602.018541992 638.977599581 570.005859375 600.029296875 c 1,13,14
 551.069235308 549.996311172 551.069235308 549.996311172 544.137695312 428.362304688 c 1,15,-1
 544.087890625 407.405273438 l 1,0,1
993.671875 175.182617188 m 0,16,17
 983.314453125 170.440429688 983.314453125 170.440429688 956.841796875 162.551269531 c 0,18,19
 891.312819924 143.022870523 891.312819924 143.022870523 720.319007618 148.511923543 c 128,-1,20
 549.325195312 154.000976562 549.325195312 154.000976562 448.133789062 154.000488281 c 128,-1,21
 346.942382812 154 346.942382812 154 324.09375 109.186523438 c 0,22,23
 294.404296875 50.9560546875 294.404296875 50.9560546875 302.958007812 -69.8642578125 c 2,24,-1
 337.094726562 -552.03515625 l 1,25,-1
 90 -692.5 l 1,26,-1
 90 -27 l 2,27,28
 90 176.959960938 90 176.959960938 175.23046875 284.620117188 c 0,29,30
 223.580078125 346.243164062 223.580078125 346.243164062 296.790039062 370.172851562 c 1,31,32
 290.100585938 662.234375 290.100585938 662.234375 415.530273438 780.604492188 c 0,33,34
 585.141104344 942.026400371 585.141104344 942.026400371 792.14453125 843.177734375 c 0,35,36
 1177.34863281 659.236328125 1177.34863281 659.236328125 1115.85644531 420.978515625 c 0,37,38
 1086.55566406 307.936523438 1086.55566406 307.936523438 1061.42480469 251.317382812 c 128,-1,39
 1036.29492188 194.698242188 1036.29492188 194.698242188 993.671875 175.182617188 c 0,16,17
EndSplineSet
Substitution2: "'init' Initial Forms in Arabic lookup 13 subtable" uniFEE3
Substitution2: "'medi' Medial Forms in Arabic lookup 11 subtable" uniFEE4
Substitution2: "'fina' Terminal Forms in Arabic lookup 9 subtable" uniFEE2
EndChar

StartChar: uni0647
Encoding: 1607 1607 42
Width: 1003
VWidth: 2181
GlyphClass: 2
Flags: W
AnchorPoint: "Anchor-10" 467.924 1145.58 basechar 0
AnchorPoint: "Anchor-7" 380.864 -133.56 basechar 0
LayerCount: 2
Fore
SplineSet
495.473632812 606.46484375 m 1,0,1
 338 437 338 437 338.594726562 346.46875 c 0,2,3
 339 298 339 298 385 266 c 0,4,5
 428 236 428 236 506 236 c 0,6,7
 626 236 626 236 647.9609375 298.07421875 c 0,8,9
 666.737304688 350.700195312 666.737304688 350.700195312 629.384765625 430.889648438 c 8,10,11
 593 509 593 509 495.473632812 606.46484375 c 1,0,1
97.9621516438 349.572820936 m 0,12,13
 98 539 98 539 309.380859375 770.250976562 c 1,14,-1
 272.184570312 802.235351562 l 1,15,-1
 437.258789062 978.813476562 l 1,16,-1
 469.409179688 955.553710938 l 2,17,18
 741 759 741 759 845.328125 541.30859375 c 0,19,20
 903 421 903 421 902.66796875 322.33984375 c 0,21,22
 903 150 903 150 747.743164062 56.4423828125 c 0,23,24
 661 4 661 4 511.30859375 3.5751953125 c 0,25,26
 157 4 157 4 104.384277344 281.896972656 c 0,27,28
 98 316 98 316 97.9621516438 349.572820936 c 0,12,13
EndSplineSet
Substitution2: "'fina' Terminal Forms in Arabic lookup 9 subtable" uniFEEA
Substitution2: "'medi' Medial Forms in Arabic lookup 11 subtable" uniFEEC
Substitution2: "'init' Initial Forms in Arabic lookup 13 subtable" uniFEEB
EndChar

StartChar: uni0648
Encoding: 1608 1608 43
Width: 931
VWidth: 2181
GlyphClass: 2
Flags: W
AnchorPoint: "Anchor-10" 406.282 1080.17 basechar 0
AnchorPoint: "Anchor-7" 571.191 -541.443 basechar 0
LayerCount: 2
Fore
SplineSet
545.575195312 483.776367188 m 0,0,1
 513 518 513 518 464.69140625 516.875976562 c 0,2,3
 416 515 416 515 384.669921875 483.887695312 c 0,4,5
 345 444 345 444 333.255285602 370.636557867 c 0,6,7
 322 304 322 304 341 276 c 0,8,9
 363 245 363 245 402.678710938 237.422851562 c 0,10,11
 510 217 510 217 596.483398438 272.267578125 c 5,12,13
 595 341 595 341 588.572265625 375.72265625 c 0,14,15
 575 452 575 452 545.575195312 483.776367188 c 0,0,1
755.934570312 596.227539062 m 0,16,17
 883 357 883 357 824.78515625 17.69140625 c 0,18,19
 797 -143 797 -143 705.942382812 -260.998046875 c 0,20,21
 518.19380411 -503.749419069 518.19380411 -503.749419069 142.393554688 -506.998046875 c 2,22,-1
 113.473632812 -507.248046875 l 1,23,-1
 -4.03125 -289.520507812 l 1,24,-1
 66.451171875 -285.360351562 l 2,25,26
 492 -260 492 -260 571.911132812 8.7353515625 c 1,27,28
 515 -7 515 -7 436.741210938 -8.2451171875 c 0,29,30
 234 -11 234 -11 159.141601562 99.1733398438 c 0,31,32
 88.131011104 204.286315293 88.131011104 204.286315293 106.725585938 343.426757812 c 0,33,34
 135 556 135 556 248.321289062 673.287597656 c 0,35,36
 369 797 369 797 543.555664062 760.736328125 c 0,37,38
 685 731 685 731 755.934570312 596.227539062 c 0,16,17
EndSplineSet
Substitution2: "'fina' Terminal Forms in Arabic lookup 9 subtable" uniFEEE
EndChar

StartChar: uni0649
Encoding: 1609 1609 44
Width: 1495
VWidth: 2181
GlyphClass: 2
Flags: W
AnchorPoint: "Anchor-10" 384.722 911.334 basechar 0
AnchorPoint: "Anchor-7" 328.423 -520.472 basechar 0
LayerCount: 2
Fore
SplineSet
1030.3828125 240.696289062 m 1,0,-1
 1085.625 241.791992188 l 1,1,2
 1295 242 1295 242 1362.79980469 140.0234375 c 0,3,4
 1396 90 1396 90 1395.6953125 23.0283203125 c 0,5,6
 1396 -144 1396 -144 1256.91503906 -273.081054688 c 128,-1,7
 1118 -402 1118 -402 876.12109375 -438.46875 c 0,8,9
 813 -448 813 -448 741.578125 -447.845703125 c 0,10,11
 542 -448 542 -448 388.99609375 -382.077148438 c 0,12,13
 189 -295 189 -295 123.327148438 -108.767578125 c 0,14,15
 56 81 56 81 124.868164062 343.489257812 c 0,16,17
 162 485 162 485 231.448242188 602.4296875 c 5,18,-1
 442 484 l 5,19,20
 397 401 397 401 372.374023438 312.838867188 c 0,21,22
 311 93 311 93 368.3203125 -22.751953125 c 0,23,24
 455 -198 455 -198 739.068359375 -197.465820312 c 0,25,26
 903 -197 903 -197 989.59375 -157.293945312 c 0,27,28
 1077 -118 1077 -118 1117.11523438 -81.291015625 c 0,29,30
 1167 -37 1167 -37 1159 -18 c 1,31,32
 1152.83106759 -3.60582436802 1152.83106759 -3.60582436802 1127.328125 -3.7451171875 c 2,33,-1
 1038.64453125 -4.2294921875 l 1,34,35
 750 1 750 1 732.0859375 190.120117188 c 0,36,37
 724 271 724 271 752.268554688 355.919921875 c 0,38,39
 810 524 810 524 957.447265625 649.875 c 0,40,41
 1153 816 1153 816 1403.234375 751.42578125 c 1,42,-1
 1323.83789062 516.920898438 l 1,43,-1
 1286.23144531 517.00390625 l 2,44,45
 1135 517 1135 517 1031 396 c 0,46,47
 965 319 965 319 964.998046875 262.452148438 c 0,48,49
 965 241 965 241 1030.3828125 240.696289062 c 1,0,-1
EndSplineSet
Substitution2: "'fina' Terminal Forms in Arabic lookup 9 subtable" uniFEF0
Substitution2: "'medi' Medial Forms in Arabic lookup 11 subtable" uniFBE9
Substitution2: "'init' Initial Forms in Arabic lookup 13 subtable" uniFBE8
EndChar

StartChar: uni064B
Encoding: 1611 1611 46
Width: -27
VWidth: 2304
GlyphClass: 4
Flags: W
AnchorPoint: "Anchor-10" 609.519 1111.82 mark 0
AnchorPoint: "Anchor-9" 609.519 1111.82 mark 0
AnchorPoint: "Anchor-1" 569.519 1660.78 basemark 0
AnchorPoint: "Anchor-1" 609.519 1111.82 mark 0
LayerCount: 2
Fore
SplineSet
302.015625 1058.01181702 m 1,0,-1
 302.015625 1172.7510716 l 1,1,-1
 805.6796875 1378.70301363 l 1,2,-1
 805.6796875 1263.96280149 l 1,3,-1
 302.015625 1058.01181702 l 1,0,-1
302.015625 1331.51572327 m 1,4,-1
 302.015625 1446.25497785 l 1,5,-1
 805.6796875 1652.20691988 l 1,6,-1
 805.6796875 1537.46670774 l 1,7,-1
 302.015625 1331.51572327 l 1,4,-1
EndSplineSet
EndChar

StartChar: uni064C
Encoding: 1612 1612 47
Width: -27
VWidth: 2304
GlyphClass: 4
Flags: W
AnchorPoint: "Anchor-10" 676.432 1216.14 mark 0
AnchorPoint: "Anchor-9" 676.432 1216.14 mark 0
AnchorPoint: "Anchor-1" 567.983 1908.35 basemark 0
AnchorPoint: "Anchor-1" 676.432 1216.14 mark 0
LayerCount: 2
Fore
SplineSet
652.655273437 1732.86425781 m 0,0,1
 569.463867188 1732.86425781 569.463867188 1732.86425781 569.463867188 1658.640625 c 0,2,3
 569.463867188 1604.83203125 569.463867188 1604.83203125 631.455078125 1580.03515625 c 0,4,5
 654.595973423 1570.77996279 654.595973423 1570.77996279 700.032226562 1556.78613281 c 1,6,-1
 713.090820312 1587.25292969 l 2,7,8
 724.69140625 1614.32226562 724.69140625 1614.32226562 724.69140625 1653.09667969 c 0,9,10
 724.69140625 1732.86425781 724.69140625 1732.86425781 652.655273437 1732.86425781 c 0,0,1
322.107421875 1515.49121094 m 1,11,12
 324.01496021 1292.18191739 324.01496021 1292.18191739 449.545331419 1291.76660156 c 0,13,14
 518 1292 518 1292 592.768554688 1364.57714844 c 0,15,16
 636.118126436 1406.1131846 636.118126436 1406.1131846 661.806640625 1457.5 c 2,17,-1
 672.059570312 1478.00976562 l 1,18,19
 557 1502 557 1502 506.392578125 1572.21484375 c 0,20,21
 471 1620 471 1620 478 1674.5 c 128,-1,22
 485 1729 485 1729 509 1761 c 0,23,24
 554 1822 554 1822 635.5 1822 c 128,-1,25
 717 1822 717 1822 765 1775 c 128,-1,26
 813 1728 813 1728 813.52734375 1645.08105469 c 0,27,28
 813.997428752 1605.21804078 813.997428752 1605.21804078 800.791015625 1563.41113281 c 2,29,-1
 793.893554688 1541.57617188 l 1,30,-1
 816.765625 1540.37597656 l 2,31,32
 844 1539 844 1539 880.192382812 1538.27148438 c 1,33,-1
 880.192382812 1449.32617188 l 1,34,35
 838.775681949 1450.00366941 838.775681949 1450.00366941 823.913085938 1451.43261719 c 2,36,-1
 752.243164062 1458.32324219 l 1,37,38
 719 1380 719 1380 655.074213481 1314.56331625 c 128,-1,39
 591 1249 591 1249 543.5 1226 c 128,-1,40
 496 1203 496 1203 447.08203125 1202.93164062 c 0,41,42
 332 1203 332 1203 287 1324 c 4,43,44
 257 1405 257 1405 255.86328125 1515.49121094 c 1,45,-1
 322.107421875 1515.49121094 l 1,11,12
854.4921875 1539.21972656 m 2,46,-1
 854.388671875 1539.22558594 l 2,47,48
 854.440429688 1539.22265625 854.440429688 1539.22265625 854.4921875 1539.21972656 c 2,46,-1
EndSplineSet
EndChar

StartChar: uni064D
Encoding: 1613 1613 48
Width: -27
VWidth: 2304
GlyphClass: 4
Flags: W
AnchorPoint: "Anchor-7" 552.623 75.7275 mark 0
AnchorPoint: "Anchor-6" 552.623 75.7275 mark 0
AnchorPoint: "Anchor-0" 597.519 -469.112 basemark 0
AnchorPoint: "Anchor-0" 552.623 75.7275 mark 0
LayerCount: 2
Fore
SplineSet
307.295898438 -515.428599567 m 1,0,-1
 307.295898438 -400.688387431 l 1,1,-1
 810.959960938 -194.737402955 l 1,2,-1
 810.959960938 -309.47665754 l 1,3,-1
 307.295898438 -515.428599567 l 1,0,-1
307.295898438 -241.924693317 m 1,4,-1
 307.295898438 -127.184481181 l 1,5,-1
 810.959960938 78.7665032954 l 1,6,-1
 810.959960938 -35.9727512898 l 1,7,-1
 307.295898438 -241.924693317 l 1,4,-1
EndSplineSet
EndChar

StartChar: uni064E
Encoding: 1614 1614 49
Width: -27
VWidth: 2304
GlyphClass: 4
Flags: W
AnchorPoint: "Anchor-10" 550.839 1358.15 mark 0
AnchorPoint: "Anchor-9" 550.839 1358.15 mark 0
AnchorPoint: "Anchor-1" 537.839 1686.13 basemark 0
AnchorPoint: "Anchor-1" 550.839 1358.15 mark 0
LayerCount: 2
Fore
SplineSet
271.391601562 1330.45909574 m 1,0,-1
 271.391601562 1445.19931378 l 1,1,-1
 775.055664062 1651.15125582 l 1,2,-1
 775.055664062 1536.41103778 l 1,3,-1
 271.391601562 1330.45909574 l 1,0,-1
EndSplineSet
EndChar

StartChar: uni064F
Encoding: 1615 1615 50
Width: -27
VWidth: 2304
GlyphClass: 4
Flags: W
AnchorPoint: "Anchor-10" 615.623 1281.01 mark 0
AnchorPoint: "Anchor-9" 615.623 1281.01 mark 0
AnchorPoint: "Anchor-1" 546.519 1923.2 basemark 0
AnchorPoint: "Anchor-1" 615.623 1281.01 mark 0
LayerCount: 2
Fore
SplineSet
822.727539062 1464.22460938 m 1,0,1
 766 1465 766 1465 690.735351562 1473.01953125 c 1,2,3
 638 1399 638 1399 563.377929688 1352.99902344 c 0,4,5
 445 1279 445 1279 311 1274 c 1,6,-1
 311 1362.74121094 l 1,7,8
 442 1367 442 1367 520.314453125 1432.41015625 c 0,9,10
 554.555842932 1461.14480957 554.555842932 1461.14480957 569.69921875 1477.09472656 c 2,11,-1
 591.280273438 1499.82519531 l 1,12,13
 496.852518647 1520.78770471 496.852518647 1520.78770471 448.861328125 1586.5703125 c 0,14,15
 421 1625 421 1625 420.904296875 1671.78222656 c 0,16,17
 421 1753 421 1753 488 1803 c 0,18,19
 534 1837 534 1837 596.5 1837 c 128,-1,20
 659 1837 659 1837 707.5 1789.5 c 128,-1,21
 756 1742 756 1742 756.0625 1659.92871094 c 0,22,23
 756.000462851 1626.25126302 756.000462851 1626.25126302 741.043945312 1578.18945312 c 2,24,-1
 734.313476562 1556.56152344 l 1,25,-1
 756.931640625 1555.22460938 l 2,26,27
 795 1553 795 1553 822.727539062 1553.02832031 c 1,28,-1
 822.727539062 1464.22460938 l 1,0,1
642.567382812 1571.63476562 m 1,29,-1
 655.625976562 1602.09960938 l 2,30,31
 667 1629 667 1629 667 1668 c 128,-1,32
 667 1707 667 1707 642 1727.5 c 128,-1,33
 617 1748 617 1748 587.5 1748 c 128,-1,34
 558 1748 558 1748 534.5 1729 c 128,-1,35
 511 1710 511 1710 510 1677 c 0,36,37
 509 1621 509 1621 573.990234375 1594.88183594 c 0,38,39
 597 1586 597 1586 642.567382812 1571.63476562 c 1,29,-1
EndSplineSet
EndChar

StartChar: uni0650
Encoding: 1616 1616 51
Width: -27
VWidth: 2304
GlyphClass: 4
Flags: W
AnchorPoint: "Anchor-7" 567.391 -16.2002 mark 0
AnchorPoint: "Anchor-6" 567.391 -16.2002 mark 0
AnchorPoint: "Anchor-0" 615.023 -326.944 basemark 0
AnchorPoint: "Anchor-0" 567.391 -16.2002 mark 0
LayerCount: 2
Fore
SplineSet
317.856445312 -352.804583874 m 1,0,-1
 317.856445312 -238.064361577 l 1,1,-1
 821.51953125 -32.1133848752 l 1,2,-1
 821.51953125 -146.853607173 l 1,3,-1
 317.856445312 -352.804583874 l 1,0,-1
EndSplineSet
EndChar

StartChar: uni0651
Encoding: 1617 1617 52
Width: -27
VWidth: 2304
GlyphClass: 4
Flags: W
AnchorPoint: "Anchor-10" 609.519 1390.22 mark 0
AnchorPoint: "Anchor-9" 609.519 1390.22 mark 0
AnchorPoint: "Anchor-1" 578.847 1840.34 basemark 0
AnchorPoint: "Anchor-1" 609.519 1390.22 mark 0
LayerCount: 2
Fore
SplineSet
577.407226562 1531.921875 m 1,0,1
 547 1367 547 1367 402.48400556 1366.87597656 c 0,2,3
 258 1367 258 1367 257.186523438 1552.89257812 c 0,4,5
 257 1590 257 1590 272.712890625 1693.63867188 c 1,6,-1
 347.826171875 1693.63867188 l 1,7,8
 335 1604 335 1604 335 1576 c 0,9,10
 335 1463 335 1463 414.949708912 1463.0777407 c 0,11,12
 525 1463 525 1463 530.60546875 1607.45214844 c 0,13,14
 532 1647 532 1647 532 1694 c 0,15,16
 532 1741 532 1741 531.86328125 1749.95605469 c 1,17,-1
 606.123046875 1749.95605469 l 1,18,19
 608 1714 608 1714 608.287109375 1665.99121094 c 0,20,21
 608.000414097 1525.20335128 608.000414097 1525.20335128 730.454841185 1525.40617962 c 2,22,-1
 731.086914062 1525.40722656 l 2,23,24
 805 1526 805 1526 805.5 1638 c 0,25,26
 806 1750 806 1750 794.323242188 1812.33496094 c 1,27,-1
 873.943359375 1812.33496094 l 1,28,29
 885 1733 885 1733 885 1639 c 0,30,31
 885 1486 885 1486 800.654296875 1449.91699219 c 0,32,33
 768 1436 768 1436 716.5 1434 c 0,34,35
 665 1432 665 1432 624 1462 c 0,36,37
 583 1492 583 1492 577.407226562 1531.921875 c 1,0,1
EndSplineSet
EndChar

StartChar: uni0652
Encoding: 1618 1618 53
Width: -27
VWidth: 2304
GlyphClass: 4
Flags: W
AnchorPoint: "Anchor-10" 588.527 1187.7 mark 0
AnchorPoint: "Anchor-9" 588.527 1187.7 mark 0
AnchorPoint: "Anchor-1" 573.743 1793.31 basemark 0
AnchorPoint: "Anchor-1" 588.527 1187.7 mark 0
LayerCount: 2
Fore
SplineSet
673.299804688 1373.69140625 m 128,-1,1
 707.344726562 1407.73535156 707.344726562 1407.73535156 707.344726562 1456.75927734 c 128,-1,2
 707.344726562 1505.78320312 707.344726562 1505.78320312 673.299804688 1539.828125 c 128,-1,3
 639.258789062 1573.87304688 639.258789062 1573.87304688 589.5390625 1573.87304688 c 128,-1,4
 539.819335938 1573.87304688 539.819335938 1573.87304688 506.124023438 1540.17675781 c 128,-1,5
 472.427734375 1506.48046875 472.427734375 1506.48046875 472.427734375 1456.75927735 c 128,-1,6
 472.427734375 1407.03808594 472.427734375 1407.03808594 506.124023438 1373.34277344 c 128,-1,7
 539.819335938 1339.64648438 539.819335938 1339.64648438 589.540039063 1339.64648438 c 128,-1,0
 639.260742188 1339.64648438 639.260742188 1339.64648438 673.299804688 1373.69140625 c 128,-1,1
779.41796875 1457.21875 m 128,-1,9
 779.41796875 1377.71484375 779.41796875 1377.71484375 724.528320312 1322.47265625 c 128,-1,10
 669.673828125 1267.2734375 669.673828125 1267.2734375 590.212890625 1267.2734375 c 128,-1,11
 510.752661133 1267.2734375 510.752661133 1267.2734375 455.8984375 1322.47265625 c 128,-1,12
 401.006835938 1377.71515236 401.006835938 1377.71515236 401.006835938 1457.21875 c 128,-1,13
 401.006835938 1536.6953125 401.006835938 1536.6953125 455.8671875 1591.56542969 c 128,-1,14
 510.7265625 1646.42480469 510.7265625 1646.42480469 590.212890625 1646.42480469 c 128,-1,15
 669.698242188 1646.42480469 669.698242188 1646.42480469 724.556640625 1591.56542969 c 128,-1,8
 779.41796875 1536.6953125 779.41796875 1536.6953125 779.41796875 1457.21875 c 128,-1,9
EndSplineSet
EndChar

StartChar: uni0653
Encoding: 1619 1619 54
Width: 0
VWidth: 2186
GlyphClass: 4
Flags: W
AnchorPoint: "Anchor-10" 406.84 1276.52 mark 0
AnchorPoint: "Anchor-9" 406.84 1276.52 mark 0
AnchorPoint: "Anchor-1" 442.84 1600.5 basemark 0
AnchorPoint: "Anchor-1" 406.84 1276.52 mark 0
LayerCount: 2
Fore
SplineSet
162.6953125 1208.30175781 m 5,0,-1
 44.4287109375 1314.03320312 l 1,1,-1
 52.779296875 1328.17089844 l 2,2,3
 158.899553934 1508.82900158 158.899553934 1508.82900158 312.94921875 1480.60644531 c 2,4,-1
 443.922322703 1456.61161351 l 2,5,6
 511 1444 511 1444 639.334960938 1518.59375 c 1,7,-1
 720 1390 l 1,8,9
 613 1268 613 1268 427.48418723 1302.31144849 c 2,10,-1
 342 1318 l 2,11,12
 244 1336 244 1336 162.6953125 1208.30175781 c 5,0,-1
EndSplineSet
EndChar

StartChar: uni0657
Encoding: 1623 1623 57
Width: 0
VWidth: 2186
GlyphClass: 4
Flags: W
AnchorPoint: "Anchor-10" 547.84 1279.5 mark 0
AnchorPoint: "Anchor-9" 547.84 1279.5 mark 0
AnchorPoint: "Anchor-1" 547.84 1975 basemark 0
AnchorPoint: "Anchor-1" 547.84 1279.5 mark 0
LayerCount: 2
Fore
SplineSet
248.4 1715.83 m 1,0,1
 304.333151752 1715.23793859 304.333151752 1715.23793859 375.369 1707.67 c 1,2,3
 424.241206385 1776.99621196 424.241206385 1776.99621196 495.801 1820.55 c 0,4,5
 697.387 1944.51 697.387 1944.51 847.28 1950 c 1,6,-1
 847.28 1858.35 l 1,7,8
 687.009 1853.71 687.009 1853.71 540.898 1739.14 c 0,9,10
 515.54 1719.29 515.54 1719.29 494.545 1697.2 c 2,11,-1
 478.72 1680.54 l 1,12,-1
 501.148 1675.55 l 2,13,14
 509.083 1673.79 509.083 1673.79 527.945 1663.86 c 0,15,16
 636.49 1607.58 636.49 1607.58 636.49 1517.4 c 128,-1,17
 636.49 1427.22 636.49 1427.22 567.86 1375.5 c 0,18,19
 541.366 1355.63 541.366 1355.63 473.417 1355.63 c 128,-1,20
 405.468 1355.63 405.468 1355.63 358.499 1401.61 c 128,-1,21
 311.53 1447.59 311.53 1447.59 311.53 1526.67 c 0,22,23
 311.53 1558.944077 311.53 1558.944077 330.858 1621.06 c 1,24,25
 283.72483467 1623.84490908 283.72483467 1623.84490908 248.4 1624.15 c 1,26,-1
 248.4 1715.83 l 1,0,1
424.935 1605.66 m 1,27,-1
 413.911 1579.94 l 2,28,29
 403.23 1555.02 403.23 1555.02 403.23 1519.59 c 128,-1,30
 403.23 1484.16 403.23 1484.16 425.588 1465.745 c 128,-1,31
 447.946 1447.33 447.946 1447.33 475.192 1447.33 c 0,32,33
 542.65 1447.33 542.65 1447.33 542.65 1513.83 c 0,34,35
 542.65 1562.22 542.65 1562.22 486.328 1584.75 c 0,36,37
 464.636796909 1593.43203139 464.636796909 1593.43203139 424.935 1605.66 c 1,27,-1
EndSplineSet
EndChar

StartChar: uni065A
Encoding: 1626 1626 58
Width: 1095
VWidth: 2186
GlyphClass: 4
Flags: W
AnchorPoint: "Anchor-10" 547.84 1279.5 mark 0
AnchorPoint: "Anchor-9" 547.84 1279.5 mark 0
AnchorPoint: "Anchor-1" 545.7 1761 basemark 0
AnchorPoint: "Anchor-1" 547.84 1279.5 mark 0
LayerCount: 2
Fore
SplineSet
476.032 1358.84 m 1,0,-1
 282.934 1681.66 l 1,1,-1
 401.783 1681.66 l 1,2,-1
 547.84 1462.57 l 1,3,-1
 693.896 1681.66 l 1,4,-1
 812.746 1681.66 l 1,5,-1
 619.646 1358.84 l 1,6,-1
 476.032 1358.84 l 1,0,-1
EndSplineSet
EndChar

StartChar: afii57392
Encoding: 1632 1632 59
Width: 807
VWidth: 2181
GlyphClass: 2
Flags: W
LayerCount: 2
Fore
SplineSet
320.24609375 521.068359375 m 132,-1,1
 320.24609375 484.6015625 320.24609375 484.6015625 345.985351562 458.713867188 c 132,-1,2
 371.7421875 432.8046875 371.7421875 432.8046875 408.05078125 432.8046875 c 132,-1,3
 444.35546875 432.8046875 444.35546875 432.8046875 470.115234375 458.713867188 c 132,-1,4
 495.853515625 484.602539062 495.853515625 484.602539062 495.853515625 521.068359375 c 132,-1,5
 495.853515625 557.533203125 495.853515625 557.533203125 470.116210938 583.422851562 c 132,-1,6
 444.358398438 609.333007812 444.358398438 609.333007812 408.05078125 609.333007812 c 132,-1,7
 371.743164062 609.333007812 371.743164062 609.333007812 345.984375 583.422851562 c 132,-1,0
 320.24609375 557.536132812 320.24609375 557.536132812 320.24609375 521.068359375 c 132,-1,1
110.8203125 529.561523438 m 132,-1,9
 110.8203125 651.120117188 110.8203125 651.120117188 196.615234375 737.41015625 c 132,-1,10
 282.478515625 823.775390625 282.478515625 823.775390625 403.500976562 823.775390625 c 132,-1,11
 524.528320312 823.775390625 524.528320312 823.775390625 610.387695312 737.41015625 c 132,-1,12
 696.1796875 651.112304688 696.1796875 651.112304688 696.1796875 529.561523438 c 132,-1,13
 696.1796875 408.008789062 696.1796875 408.008789062 610.384765625 321.712890625 c 132,-1,14
 524.516601562 235.350585938 524.516601562 235.350585938 403.500976562 235.350585938 c 132,-1,15
 282.475585938 235.350585938 282.475585938 235.350585938 196.6171875 321.713867188 c 132,-1,8
 110.8203125 408.006835938 110.8203125 408.006835938 110.8203125 529.561523438 c 132,-1,9
EndSplineSet
EndChar

StartChar: afii57393
Encoding: 1633 1633 60
Width: 772
GlyphClass: 2
Flags: W
LayerCount: 2
Fore
SplineSet
517.490234375 803.344726562 m 0,0,1
 565.495117188 530.181640625 565.495117188 530.181640625 571.303710938 54.0498046875 c 2,2,-1
 571.859375 8.5 l 1,3,-1
 318.7421875 8.5 l 1,4,-1
 318.6640625 56.416015625 l 2,5,6
 317.986328125 415.076171875 317.986328125 415.076171875 273.028320312 688.825195312 c 0,7,8
 228 963 228 963 91.673828125 1255.74511719 c 1,9,-1
 312.5390625 1410.32324219 l 1,10,11
 468 1088 468 1088 517.490234375 803.344726562 c 0,0,1
EndSplineSet
EndChar

StartChar: afii57394
Encoding: 1634 1634 61
Width: 1196
GlyphClass: 2
Flags: W
LayerCount: 2
Fore
SplineSet
408.284179688 1192.00195312 m 0,0,1
 471 1071 471 1071 576.5 1059.5 c 128,-1,2
 682 1048 682 1048 735.529296875 1070.97265625 c 128,-1,3
 789 1094 789 1094 813.9296875 1151.83691406 c 128,-1,4
 838.859375 1209.67480469 838.859375 1209.67480469 858.060546875 1346.30957031 c 2,5,-1
 864.975585938 1395.51757812 l 1,6,-1
 1105 1361.85742188 l 1,7,8
 1103 1175 1103 1175 1043 1036.5 c 128,-1,9
 983 898 983 898 849 835 c 128,-1,10
 715 772 715 772 517.490234375 803.344726562 c 1,11,12
 541 685 541 685 551.712890625 572.438476562 c 0,13,14
 571.515625 364.58984375 571.515625 364.58984375 575.303710938 54.0498046875 c 2,15,-1
 575.859375 8.5 l 1,16,-1
 318.7421875 8.5 l 1,17,-1
 318.6640625 56.416015625 l 2,18,19
 318 412 318 412 273.028320312 688.825195312 c 0,20,21
 228 963 228 963 91.673828125 1255.74511719 c 1,22,-1
 312.5390625 1410.32324219 l 1,23,24
 377 1252 377 1252 408.284179688 1192.00195312 c 0,0,1
EndSplineSet
EndChar

StartChar: afii57395
Encoding: 1635 1635 62
Width: 1351
GlyphClass: 2
Flags: W
LayerCount: 2
Fore
SplineSet
1259.93164062 1356.22949219 m 1,0,1
 1255 1087 1255 1087 1181.86816406 945.184570312 c 0,2,3
 1109 803 1109 803 959.276367188 803.369140625 c 0,4,5
 833 803 833 803 761.53125 869.952148438 c 1,6,7
 691 801 691 801 581.021660312 801.119292165 c 0,8,9
 549 801 549 801 513 807 c 1,10,11
 576 538 576 538 573.420297124 193.265559182 c 0,12,13
 573.000328442 111.064286533 573.000328442 111.064286533 571.15625 52.0947265625 c 2,14,-1
 569.79296875 8.5 l 1,15,-1
 316.7421875 8.5 l 1,16,-1
 316.6640625 56.416015625 l 2,17,18
 316 425 316 425 272.028808594 693.825195312 c 128,-1,19
 228.05711949 962.650793923 228.05711949 962.650793923 107.40625 1221.91992188 c 2,20,-1
 91.484375 1256.13476562 l 1,21,-1
 311.54296875 1410.1484375 l 1,22,23
 397 1210 397 1210 422.5 1153.5 c 0,24,25
 465 1061 465 1061 552.549744895 1060.9178352 c 0,26,27
 597 1061 597 1061 614.654296875 1084.93554688 c 0,28,29
 649.108398438 1132.14854007 649.108398438 1132.14854007 649.108398438 1292.140625 c 2,30,-1
 649.108398438 1340.50195312 l 1,31,-1
 860.61328125 1338.91601562 l 1,32,-1
 861.169921875 1294.81640625 l 2,33,34
 863 1137 863 1137 873 1107.5 c 0,35,36
 891 1056 891 1056 942.634765625 1055.8359375 c 4,37,38
 971 1056 971 1056 985.278320312 1070.40625 c 0,39,40
 1020 1106 1020 1106 1030.35058594 1329.2421875 c 1,41,-1
 1034.05859375 1386.28613281 l 1,42,-1
 1259.93164062 1356.22949219 l 1,0,1
EndSplineSet
EndChar

StartChar: afii57396
Encoding: 1636 1636 63
Width: 1025
VWidth: 2304
GlyphClass: 2
Flags: W
LayerCount: 2
Fore
SplineSet
434.17578125 1015.59863281 m 0,0,1
 433.99609375 910.590820312 433.99609375 910.590820312 675.541992188 928.282226562 c 0,2,3
 698.942382812 929.74609375 698.942382812 929.74609375 721.598632812 932.970703125 c 2,4,-1
 772.360351562 940.1953125 l 1,5,-1
 775.352539062 673.950195312 l 1,6,-1
 748.284179688 661.931640625 l 2,7,8
 480 543 480 543 424 491 c 0,9,10
 347 420 347 420 347 369 c 0,11,12
 347 260.171875 347 260.171875 589.836914062 261 c 2,13,-1
 930.422851562 262.162109375 l 1,14,-1
 933.58203125 -0.052734375 l 1,15,-1
 552.129882812 0.3642578125 l 2,16,17
 332 1 332 1 211.541992188 89.169921875 c 0,18,19
 91 178 91 178 91 351 c 0,20,21
 91 531 91 531 346.166015625 737.228515625 c 1,22,23
 164 801 164 801 164.370117188 1000.59375 c 0,24,25
 164 1268 164 1268 454.508789062 1362.53613281 c 0,26,27
 556.67578125 1395.89453125 556.67578125 1395.89453125 693.142578125 1405.71972656 c 2,28,-1
 741.374023438 1409.19238281 l 1,29,-1
 741.374023438 1140.203125 l 1,30,-1
 698.932617188 1137.78613281 l 2,31,32
 434 1123 434 1123 434.17578125 1015.59863281 c 0,0,1
EndSplineSet
EndChar

StartChar: afii57397
Encoding: 1637 1637 64
Width: 1258
VWidth: 2181
GlyphClass: 2
Flags: W
LayerCount: 2
Fore
SplineSet
876.387695312 361.899414062 m 4,0,1
 921 440 921 440 905 554 c 4,2,3
 891 655 891 655 795.421875 784.203125 c 4,4,5
 720 886 720 886 618.0703125 955.310546875 c 5,6,7
 513 862 513 862 438.727539062 733.366210938 c 4,8,9
 365 606 365 606 361 508 c 4,10,11
 356 395 356 395 427.227539062 335.809570312 c 4,12,13
 503 273 503 273 663.5 272 c 132,-1,14
 824 271 824 271 876.387695312 361.899414062 c 4,0,1
353.046875 1136.24121094 m 5,15,-1
 513.209960938 1346.74023438 l 5,16,17
 608 1297 608 1297 793.333007812 1148.41210938 c 4,18,19
 943 1029 943 1029 1047.87695312 860.662109375 c 4,20,21
 1194 628 1194 628 1162.35839844 402.149414062 c 4,22,23
 1141 245 1141 245 1056.22558594 153.39453125 c 4,24,25
 930 17 930 17 637.415039062 17.498046875 c 132,-1,26
 345 18 345 18 202.803710938 171.904296875 c 4,27,28
 48 340 48 340 107.546875 590.58984375 c 4,29,30
 140 729 140 729 218.736328125 863.645507812 c 4,31,32
 298 999 298 999 406.369140625 1100.20117188 c 5,33,-1
 353.046875 1136.24121094 l 5,15,-1
EndSplineSet
EndChar

StartChar: afii57398
Encoding: 1638 1638 65
Width: 1235
VWidth: 2181
GlyphClass: 2
Flags: W
LayerCount: 2
Fore
SplineSet
146.35546875 1376.40820312 m 2,0,1
 500.683063615 1283.56736757 500.683063615 1283.56736757 909.184570312 1377.37109375 c 2,2,-1
 963.990234375 1389.95605469 l 1,3,-1
 964.271484375 1329.97851562 l 2,4,5
 966 932 966 932 999.6171875 703.76171875 c 0,6,7
 1038.13060185 439.102520987 1038.13060185 439.102520987 1133.94042969 64.654296875 c 2,8,-1
 1148.30859375 8.5 l 1,9,-1
 876.731445312 8.5 l 1,10,-1
 868.00390625 42.2255859375 l 2,11,12
 737 548 737 548 714.965820312 1087.02148438 c 1,13,14
 608 1064 608 1064 454.818359375 1064.40039062 c 0,15,16
 302.964643626 1063.99990675 302.964643626 1063.99990675 122.518554688 1115.87207031 c 2,17,-1
 89.9501953125 1125.234375 l 1,18,-1
 89.9501953125 1391.1875 l 5,19,-1
 146.35546875 1376.40820312 l 2,0,1
EndSplineSet
EndChar

StartChar: afii57399
Encoding: 1639 1639 66
Width: 1241
VWidth: 2181
GlyphClass: 2
Flags: W
LayerCount: 2
Fore
SplineSet
371.966796875 547.642578125 m 4,0,1
 266.051076158 935.812811128 266.051076158 935.812811128 96.1376953125 1228.12207031 c 6,2,-1
 72.20703125 1269.29101562 l 5,3,-1
 316.3125 1393.29296875 l 5,4,-1
 336.453125 1352.45410156 l 6,5,6
 507 1006 507 1006 620.5 599.389648438 c 5,7,8
 631 637 631 637 645.154296875 685.9921875 c 4,9,10
 738.419017756 1015.48031727 738.419017756 1015.48031727 904.543945312 1352.44921875 c 6,11,-1
 924.689453125 1393.3125 l 5,12,-1
 1168.80664062 1269.18652344 l 5,13,-1
 1144.63867188 1227.96875 l 6,14,15
 1011.84033272 1001.72658777 1011.84033272 1001.72658777 884.243164062 584.884765625 c 4,16,17
 767.875343118 204.592619051 767.875343118 204.592619051 743.219726562 8.5 c 5,18,-1
 496.551757812 8.5 l 5,19,20
 487.522388845 123.080695292 487.522388845 123.080695292 371.966796875 547.642578125 c 4,0,1
EndSplineSet
EndChar

StartChar: afii57400
Encoding: 1640 1640 67
Width: 1241
VWidth: 2181
GlyphClass: 2
Flags: W
LayerCount: 2
Fore
SplineSet
371.966796875 854.169921875 m 4,0,1
 265.954611742 465.833737009 265.954611742 465.833737009 96.1376953125 173.690429688 c 6,2,-1
 72.20703125 132.521484375 l 5,3,-1
 316.3125 8.51953125 l 5,4,-1
 336.453125 49.3583984375 l 6,5,6
 508 397 508 397 620.5 802.422851562 c 5,7,8
 631 765 631 765 645.154296875 715.8203125 c 4,9,10
 736.862396215 389.489644158 736.862396215 389.489644158 904.543945312 49.36328125 c 6,11,-1
 924.689453125 8.5 l 5,12,-1
 1168.80664062 132.625976562 l 5,13,-1
 1144.63867188 173.84375 l 6,14,15
 993 433 993 433 884.243164062 816.927734375 c 4,16,17
 765 1240 765 1240 743.219726562 1358.3125 c 5,18,-1
 496.551757812 1358.3125 l 5,19,20
 485 1269 485 1269 371.966796875 854.169921875 c 4,0,1
EndSplineSet
EndChar

StartChar: afii57401
Encoding: 1641 1641 68
Width: 1204
VWidth: 2181
GlyphClass: 2
Flags: W
LayerCount: 2
Fore
SplineSet
740.46875 595.54296875 m 1,0,1
 700 594 700 594 661.903320312 593.512695312 c 0,2,3
 227 594 227 594 116.325195312 859.3984375 c 0,4,5
 91 920 91 920 91 986.650390625 c 0,6,7
 91 1158 91 1158 199.444335938 1266.66796875 c 0,8,9
 342 1411 342 1411 527.15625 1410.70703125 c 0,10,11
 714 1411 714 1411 811.637695312 1316.34667969 c 0,12,13
 936 1195 936 1195 958.767578125 983.514648438 c 0,14,15
 972 862 972 862 1002.92578125 654.510742188 c 0,16,17
 1082 104 1082 104 1112.70117188 8.5 c 1,18,-1
 840.405273438 8.5 l 1,19,20
 827 53 827 53 740.46875 595.54296875 c 1,0,1
710.530273438 847.6953125 m 1,21,-1
 710.530273438 901.049804688 l 2,22,23
 711 1069 711 1069 600.979492188 1133.72753906 c 0,24,25
 565 1155 565 1155 515.630859375 1154.6015625 c 0,26,27
 411 1155 411 1155 370 1082 c 0,28,29
 345 1037 345 1037 349.225585938 983.629882812 c 0,30,31
 355 915 355 915 442.151367188 872.846679688 c 0,32,33
 503 844 503 844 582.110351562 843.736328125 c 0,34,35
 661 844 661 844 710.530273438 847.6953125 c 1,21,-1
EndSplineSet
EndChar

StartChar: afii57381
Encoding: 1642 1642 69
Width: 1183
VWidth: 2186
GlyphClass: 2
Flags: W
LayerCount: 2
Fore
SplineSet
757.192382812 67.84765625 m 2,0,1
 675.193359375 67.84765625 675.193359375 67.84765625 675.193359375 153.84765625 c 2,2,-1
 675.193359375 281.84765625 l 2,3,4
 675.193359375 361.84765625 675.193359375 361.84765625 761.193359375 361.84765625 c 2,5,-1
 876.193359375 361.84765625 l 2,6,7
 962.193359375 361.84765625 962.193359375 361.84765625 962.193359375 281.84765625 c 2,8,-1
 962.193359375 152.84765625 l 2,9,10
 962.193359375 67.859375 962.193359375 67.859375 884.189453125 67.837890625 c 2,11,-1
 757.192382812 67.84765625 l 2,0,1
305.388671875 1121.04980469 m 2,12,13
 223.389648438 1121.04980469 223.389648438 1121.04980469 223.389648438 1207.04980469 c 2,14,-1
 223.389648438 1335.04980469 l 2,15,16
 223.389648438 1415.04980469 223.389648438 1415.04980469 309.389648438 1415.04980469 c 2,17,-1
 424.389648438 1415.04980469 l 2,18,19
 510.389648438 1415.04980469 510.389648438 1415.04980469 510.389648438 1335.04980469 c 2,20,-1
 510.389648438 1206.04980469 l 2,21,22
 510.389648438 1121.061454 510.389648438 1121.061454 432.385742188 1121.04003906 c 2,23,-1
 305.388671875 1121.04980469 l 2,12,13
853.840820312 1486.08398438 m 1,24,-1
 1050.75683594 1384.63378906 l 1,25,-1
 323.986328125 -17.75390625 l 1,26,-1
 128.798828125 89.51171875 l 1,27,-1
 853.840820312 1486.08398438 l 1,24,-1
EndSplineSet
EndChar

StartChar: uni066B
Encoding: 1643 1643 70
Width: 717
VWidth: 2186
GlyphClass: 2
Flags: W
LayerCount: 2
Fore
SplineSet
439.702148438 597.577148438 m 5,0,-1
 646.896484375 500.194335938 l 5,1,-1
 232.452148438 -246.104492188 l 5,2,-1
 31.0361328125 -143.201171875 l 5,3,-1
 439.702148438 597.577148438 l 5,0,-1
EndSplineSet
EndChar

StartChar: uni066C
Encoding: 1644 1644 71
Width: 592
VWidth: 2349
GlyphClass: 2
Flags: W
LayerCount: 2
Fore
SplineSet
300.022460938 351.98828125 m 0,0,1
 338.751953125 351.108398438 338.751953125 351.108398438 371.26953125 340.497070312 c 128,-1,2
 403.788085938 329.885742188 403.788085938 329.885742188 428.194335938 310.461914062 c 128,-1,3
 452.6015625 291.037109375 452.6015625 291.037109375 467.627929688 261.815429688 c 128,-1,4
 482.654296875 232.594726562 482.654296875 232.594726562 485.978515625 195.903320312 c 0,5,6
 495.71484375 88.44921875 495.71484375 88.44921875 463.14453125 -20.7900390625 c 0,7,8
 401.342773438 -230.474609375 401.342773438 -230.474609375 188.588867188 -326.98046875 c 2,9,-1
 161.458007812 -339.288085938 l 1,10,-1
 43.7587890625 -231.004882812 l 1,11,-1
 98.076171875 -200.702148438 l 2,12,13
 240.56640625 -121.20703125 240.56640625 -121.20703125 274.8828125 0.771484375 c 1,14,15
 262.81640625 1.7919921875 262.81640625 1.7919921875 251.755859375 3.5244140625 c 0,16,17
 170.134765625 16.302734375 170.134765625 16.302734375 131.270507812 72.5166015625 c 128,-1,18
 92.40625 128.731445312 92.40625 128.731445312 105.762695312 212.044921875 c 0,19,20
 116.934570312 281.899414062 116.934570312 281.899414062 169.360351562 317.833007812 c 128,-1,21
 221.787109375 353.766601562 221.787109375 353.766601562 300.022460938 351.98828125 c 0,0,1
EndSplineSet
EndChar

StartChar: uni066E
Encoding: 1646 1646 72
Width: 1828
VWidth: 2181
GlyphClass: 2
Flags: W
AnchorPoint: "Anchor-10" 806.22 1099.5 basechar 0
AnchorPoint: "Anchor-7" 576.22 -161 basechar 0
LayerCount: 2
Fore
SplineSet
1451.47265625 53.8779296875 m 128,-1,1
 1254.61132812 1.939453125 1254.61132812 1.939453125 912.926269531 0.95556640625 c 128,-1,2
 571.241210938 -0.0283203125 571.241210938 -0.0283203125 417.331054688 64.3051757812 c 0,3,4
 119.053333529 188.983423641 119.053333529 188.983423641 91.5771484375 493.83984375 c 0,5,6
 80.6123046875 611.1015625 80.6123046875 611.1015625 125.444335938 766.854492188 c 2,7,-1
 137.6171875 809.145507812 l 1,8,-1
 353.744140625 752.120117188 l 1,9,-1
 347.299804688 711.88671875 l 2,10,11
 325.803558934 577.685875883 325.803558934 577.685875883 328.474609375 525.703125 c 0,12,13
 334.56640625 407.245117188 334.56640625 407.245117188 424.887695312 343.5234375 c 128,-1,14
 515.209960938 279.802734375 515.209960938 279.802734375 708.490234375 270.329101562 c 0,15,16
 770.362304688 267.296875 770.362304688 267.296875 924.294921875 267.75390625 c 128,-1,17
 1078.22753906 268.2109375 1078.22753906 268.2109375 1131.85107422 273.376464844 c 128,-1,18
 1185.47460938 278.541992188 1185.47460938 278.541992188 1253.015625 290.206054688 c 128,-1,19
 1320.55761719 301.87109375 1320.55761719 301.87109375 1361.328125 313.235351562 c 128,-1,20
 1402.09960938 324.600585938 1402.09960938 324.600585938 1430.8359375 336.134765625 c 0,21,22
 1481.58244721 356.505110648 1481.58244721 356.505110648 1482.92089844 367.46875 c 0,23,24
 1497.03685584 475.236388944 1497.03685584 475.236388944 1463.71679688 656.653320312 c 0,25,26
 1454.8203125 705.090820312 1454.8203125 705.090820312 1443.57910156 740.512695312 c 2,27,-1
 1432.03222656 776.895507812 l 1,28,-1
 1681.39746094 903.931640625 l 1,29,-1
 1694.84375 848.635742188 l 2,30,31
 1722.91992188 733.182617188 1722.91992188 733.182617188 1735.87988281 598.196289062 c 0,32,33
 1760.00585938 346.997070312 1760.00585938 346.997070312 1704.5625 226.145507812 c 0,34,0
 1648.33300781 105.81640625 1648.33300781 105.81640625 1451.47265625 53.8779296875 c 128,-1,1
EndSplineSet
Substitution2: "'init' Initial Forms in Arabic lookup 13 subtable" uni066E.init
Substitution2: "'medi' Medial Forms in Arabic lookup 11 subtable" uni066E.medi
Substitution2: "'fina' Terminal Forms in Arabic lookup 9 subtable" uni066E.fina
EndChar

StartChar: uni066F
Encoding: 1647 1647 73
Width: 1595
VWidth: 2181
GlyphClass: 2
Flags: W
AnchorPoint: "Anchor-10" 361 1093.5 basechar 0
AnchorPoint: "Anchor-7" 485 -555 basechar 0
LayerCount: 2
Fore
SplineSet
1152.82324219 686.8515625 m 0,0,1
 1106.65917969 685.8203125 1106.65917969 685.8203125 1074.89355469 658.208007812 c 128,-1,2
 1043.12792969 630.595703125 1043.12792969 630.595703125 1025.96582031 580.631347656 c 128,-1,3
 1008.80371094 530.666992188 1008.80371094 530.666992188 1006.76318359 501.517089844 c 128,-1,4
 1004.72265625 472.3671875 1004.72265625 472.3671875 1013.82617188 453.556640625 c 0,5,6
 1033.383518 413.145398282 1033.383518 413.145398282 1132.19824219 406.595703125 c 0,7,8
 1186.7060957 402.943166955 1186.7060957 402.943166955 1266.00585938 419.536132812 c 1,9,10
 1260.515625 689.262695312 1260.515625 689.262695312 1152.82324219 686.8515625 c 0,0,1
1280.203125 909.809570312 m 0,11,12
 1485.97743326 821.977179407 1485.97743326 821.977179407 1503.13671875 470.366210938 c 0,13,14
 1516.6108034 194.256761389 1516.6108034 194.256761389 1472.96386719 45.9658203125 c 0,15,16
 1425.18979481 -116.344996939 1425.18979481 -116.344996939 1310.81933594 -228.537109375 c 1,17,18
 1103.671875 -420.565429688 1103.671875 -420.565429688 731.73828125 -411.733398438 c 0,19,20
 417.877929688 -404.435546875 417.877929688 -404.435546875 253.016601562 -236.937011719 c 128,-1,21
 88.1552734375 -69.4384765625 88.1552734375 -69.4384765625 91.85546875 217.211914062 c 0,22,23
 94.75390625 433.944335938 94.75390625 433.944335938 190.91796875 628.631835938 c 2,24,-1
 207.048828125 661.290039062 l 1,25,-1
 446.500976562 600.421875 l 1,26,-1
 428.484375 553.212890625 l 2,27,28
 344.947265625 334.317382812 344.947265625 334.317382812 345.782226562 206.411132812 c 0,29,30
 347.090820312 15.33984375 347.090820312 15.33984375 450.655273438 -74.40625 c 128,-1,31
 554.220703125 -164.151367188 554.220703125 -164.151367188 755.087402344 -162.214355469 c 128,-1,32
 955.954101562 -160.27734375 955.954101562 -160.27734375 1065.92578125 -102.583984375 c 0,33,34
 1227.33627405 -17.9047870156 1227.33627405 -17.9047870156 1253.63671875 165.975585938 c 1,35,36
 970.248046875 129.560546875 970.248046875 129.560546875 852.201171875 261.728515625 c 0,37,38
 759.576171875 365.4296875 759.576171875 365.4296875 781.645996094 542.561035156 c 128,-1,39
 803.715820312 719.692382812 803.715820312 719.692382812 919.074707031 831.469726562 c 128,-1,40
 1034.43359375 943.247070312 1034.43359375 943.247070312 1169.94238281 934.938476562 c 0,41,42
 1229.72851562 931.35546875 1229.72851562 931.35546875 1280.203125 909.809570312 c 0,11,12
EndSplineSet
Substitution2: "'init' Initial Forms in Arabic lookup 13 subtable" uni066F.init
Substitution2: "'medi' Medial Forms in Arabic lookup 11 subtable" uni066F.medi
Substitution2: "'fina' Terminal Forms in Arabic lookup 9 subtable" uni066F.fina
EndChar

StartChar: uni0670
Encoding: 1648 1648 74
Width: 6
VWidth: 2186
GlyphClass: 4
Flags: W
AnchorPoint: "Anchor-10" 550.84 1282.5 mark 0
AnchorPoint: "Anchor-9" 550.84 1282.5 mark 0
AnchorPoint: "Anchor-1" 550.84 1887 basemark 0
AnchorPoint: "Anchor-1" 550.84 1282.5 mark 0
LayerCount: 2
Fore
SplineSet
526.14453125 1327.80957031 m 1,0,-1
 501.8984375 1786.35058594 l 1,1,-1
 599.690429688 1843.93847656 l 1,2,-1
 599.690429688 1327.80957031 l 1,3,-1
 526.14453125 1327.80957031 l 1,0,-1
EndSplineSet
EndChar

StartChar: uni0674
Encoding: 1652 1652 75
Width: 645
VWidth: 2186
GlyphClass: 2
Flags: W
LayerCount: 2
Fore
SplineSet
174.451759657 1558.56765991 m 1,0,1
 115.6796875 1613.13625773 115.6796875 1613.13625773 115.6796875 1704.91607944 c 128,-1,2
 115.6796875 1796.69590115 115.6796875 1796.69590115 191.593944161 1863.25705524 c 128,-1,3
 267.508200823 1929.81820932 267.508200823 1929.81820932 390.942282968 1909.96241355 c 0,4,5
 441.900128524 1901.76525636 441.900128524 1901.76525636 498.080078125 1868.67084431 c 1,6,-1
 498.080078125 1719.40817538 l 1,7,-1
 450.322900302 1743.28304587 l 2,8,9
 369.376504427 1783.75301612 369.376504427 1783.75301612 297.614117584 1756.16437751 c 0,10,11
 259.6959093 1741.5869395 259.6959093 1741.5869395 256.596811393 1706.12987872 c 128,-1,12
 253.497713487 1670.67281794 253.497713487 1670.67281794 273.527922926 1648.74042491 c 128,-1,13
 293.558132365 1626.80803188 293.558132365 1626.80803188 332.035262166 1615.15155932 c 128,-1,14
 370.512391967 1603.49508677 370.512391967 1603.49508677 496.043628398 1632.5248105 c 2,15,-1
 520.549804688 1638.19198584 l 1,16,-1
 520.549804688 1487.98747037 l 1,17,-1
 113.540039062 1396.6095987 l 1,18,-1
 113.540039062 1544.51205591 l 1,19,-1
 174.451759657 1558.56765991 l 1,0,1
EndSplineSet
EndChar

StartChar: uni06A1
Encoding: 1697 1697 79
Width: 1787
VWidth: 2181
GlyphClass: 2
Flags: W
AnchorPoint: "Anchor-10" 549.55 1273.28 basechar 0
AnchorPoint: "Anchor-7" 656.55 -104.88 basechar 0
LayerCount: 2
Fore
SplineSet
1725.16015625 355.295898438 m 0,0,1
 1670.27806937 130.602224233 1670.27806937 130.602224233 1398.58544922 42.86328125 c 0,2,3
 1256.35644531 -3.0673828125 1256.35644531 -3.0673828125 910.278320312 0.14404296875 c 128,-1,4
 564.200195312 3.35546875 564.200195312 3.35546875 403.475585938 70.095703125 c 0,5,6
 121.65049149 188.513350584 121.65049149 188.513350584 94.212890625 475.478515625 c 0,7,8
 81.3623046875 612.563476562 81.3623046875 612.563476562 125.413085938 766.76953125 c 2,9,-1
 137.525390625 809.169921875 l 1,10,-1
 353.279296875 752.2421875 l 1,11,-1
 347.34765625 712.38671875 l 2,12,13
 328.14497305 583.371884244 328.14497305 583.371884244 330.49609375 525.247070312 c 0,14,15
 334.919921875 422.8046875 334.919921875 422.8046875 401.926757812 362.204101562 c 0,16,17
 489.071965751 283.388072416 489.071965751 283.388072416 690.795898438 273.037109375 c 0,18,19
 1152.09483085 249.36632926 1152.09483085 249.36632926 1357.8125 312.1171875 c 0,20,21
 1423.70796897 331.904878629 1423.70796897 331.904878629 1460.31542969 374.12109375 c 1,22,23
 1358.46842256 355.149592423 1358.46842256 355.149592423 1253.296875 375.724609375 c 0,24,25
 1147.16967455 396.485876268 1147.16967455 396.485876268 1082.13610681 485.738055322 c 128,-1,26
 1017.10253906 574.990234375 1017.10253906 574.990234375 1036.65966797 738.707519531 c 128,-1,27
 1056.21679688 902.424804688 1056.21679688 902.424804688 1154.97949219 1007.05078125 c 0,28,29
 1285.6423333 1144.45311635 1285.6423333 1144.45311635 1458.01367188 1108.34179688 c 0,30,31
 1654.64941406 1066.39550781 1654.64941406 1066.39550781 1722.26855469 789.299804688 c 0,32,33
 1776.6953125 566.28125 1776.6953125 566.28125 1725.16015625 355.295898438 c 0,0,1
1386.49462891 863.984375 m 0,34,35
 1290.87272111 861.227829094 1290.87272111 861.227829094 1265.78417969 715.03125 c 0,36,37
 1256.72014247 662.144933329 1256.72014247 662.144933329 1266.63399702 646.864947133 c 128,-1,38
 1276.54785156 631.584960938 1276.54785156 631.584960938 1285.29785156 625.741210938 c 0,39,40
 1301.27042416 615.073814237 1301.27042416 615.073814237 1332.52441406 609.721679688 c 0,41,42
 1439.49316406 591.41015625 1439.49316406 591.41015625 1513.77636719 638.505859375 c 1,43,44
 1512.97253178 662.948063926 1512.97253178 662.948063926 1502.49066042 719.338289776 c 0,45,46
 1475.12875648 866.539480281 1475.12875648 866.539480281 1386.49462891 863.984375 c 0,34,35
EndSplineSet
Substitution2: "'init' Initial Forms in Arabic lookup 13 subtable" uni06A1.init
Substitution2: "'medi' Medial Forms in Arabic lookup 11 subtable" uni06A1.medi
Substitution2: "'fina' Terminal Forms in Arabic lookup 9 subtable" uni06A1.fina
EndChar

StartChar: uni06A9
Encoding: 1705 1705 80
Width: 1975
VWidth: 2181
GlyphClass: 2
Flags: W
AnchorPoint: "Anchor-10" 410 1250.34 basechar 0
AnchorPoint: "Anchor-7" 526 -187.68 basechar 0
LayerCount: 2
Fore
SplineSet
888.779296875 0 m 2,0,1
 570.962890625 0 570.962890625 0 403.423828125 70.1171875 c 0,2,3
 76.0399986611 208.076213853 76.0399986611 208.076213853 91.56640625 569.576171875 c 0,4,5
 95.6152732554 663.845579921 95.6152732554 663.845579921 125.469726562 766.924804688 c 2,6,-1
 137.692382812 809.125976562 l 1,7,-1
 354.564453125 751.903320312 l 1,8,-1
 347.205078125 711.018554688 l 2,9,10
 322.197265625 572.080078125 322.197265625 572.080078125 325.235839844 509.75 c 128,-1,11
 328.274414062 447.419921875 328.274414062 447.419921875 367.4375 394.110351562 c 0,12,13
 448.831790095 283.316857118 448.831790095 283.316857118 705.999023438 270.546875 c 0,14,15
 788.955078125 267 788.955078125 267 848.293945312 267.016601562 c 2,16,-1
 1100.91210938 265.00390625 l 1,17,-1
 1268.96875 265.129882812 l 2,18,19
 1445.41546057 265.262386609 1445.41546057 265.262386609 1465.99121094 364.677734375 c 0,20,21
 1477.31933594 419.705078125 1477.31933594 419.705078125 1416.37988281 486.955078125 c 2,22,-1
 1155.37402344 776.728515625 l 2,23,24
 1053.63441801 889.682821722 1053.63441801 889.682821722 1050.53417969 975.189453125 c 0,25,26
 1044.93296198 1118.3153057 1044.93296198 1118.3153057 1189.7265625 1196.22265625 c 2,27,-1
 1935.375 1598.71582031 l 1,28,-1
 1935.375 1322.86132812 l 1,29,-1
 1304.60058594 980.93359375 l 1,30,-1
 1594.72558594 660.196289062 l 2,31,32
 1741.54101562 497.887695312 1741.54101562 497.887695312 1693.73730469 304.541992188 c 0,33,34
 1619.32969311 -8.24229573482e-13 1619.32969311 -8.24229573482e-13 1189 0 c 2,35,-1
 888.779296875 0 l 2,0,1
EndSplineSet
Substitution2: "'init' Initial Forms in Arabic lookup 13 subtable" uniFB90
Substitution2: "'medi' Medial Forms in Arabic lookup 11 subtable" uniFB91
Substitution2: "'fina' Terminal Forms in Arabic lookup 9 subtable" uniFB8F
EndChar

StartChar: afii57514
Encoding: 1722 1722 82
Width: 1381
VWidth: 2186
GlyphClass: 2
Flags: W
AnchorPoint: "Anchor-10" 595.734 1100.15 basechar 0
AnchorPoint: "Anchor-7" 541.58 -441.02 basechar 0
LayerCount: 2
Fore
SplineSet
1194.20898438 822.850585938 m 2,0,1
 1326.99972988 600.950261219 1326.99972988 600.950261219 1325.75976562 372.631835938 c 4,2,3
 1323 -61 1323 -61 1031.23730469 -206.53515625 c 0,4,5
 885 -279 885 -279 677.341796875 -281.997070312 c 0,6,7
 385 -285 385 -285 224.1328125 -144.32421875 c 0,8,9
 62 -2 62 -2 46.6533203125 271.567382812 c 0,10,11
 42 356 42 356 64.599609375 474.686523438 c 0,12,13
 88.323492098 594.635591276 88.323492098 594.635591276 139.795898438 705.043945312 c 2,14,-1
 157.5625 743.153320312 l 1,15,-1
 379.928710938 657.310546875 l 1,16,-1
 362.673828125 614.876953125 l 2,17,18
 278 407 278 407 294.283691406 258.322265625 c 0,19,20
 311 110 311 110 403.1796875 36.142578125 c 0,21,22
 496 -38 496 -38 654.034667969 -36.7783203125 c 0,23,24
 812 -36 812 -36 899.75 3.27734375 c 0,25,26
 1071 80 1071 80 1081.80078125 319.6953125 c 0,27,28
 1089.02172566 483.492817554 1089.02172566 483.492817554 978.19140625 639.16796875 c 2,29,-1
 955.603515625 670.895507812 l 1,30,-1
 1165.26367188 871.219726562 l 1,31,-1
 1194.20898438 822.850585938 l 2,0,1
EndSplineSet
Substitution2: "'init' Initial Forms in Arabic lookup 13 subtable" uni06BA.init
Substitution2: "'medi' Medial Forms in Arabic lookup 11 subtable" uni06BA.medi
Substitution2: "'fina' Terminal Forms in Arabic lookup 9 subtable" uniFB9F
EndChar

StartChar: uni06F3
Encoding: 1779 1779 88
Width: 1351
GlyphClass: 2
Flags: W
LayerCount: 2
Fore
SplineSet
1259.93164062 1356.22949219 m 1,0,1
 1255 1087 1255 1087 1181.86816406 945.184570312 c 0,2,3
 1109 803 1109 803 959.276367188 803.369140625 c 0,4,5
 833 803 833 803 761.53125 869.952148438 c 1,6,7
 691 801 691 801 581.021660312 801.119292165 c 0,8,9
 549 801 549 801 513 807 c 1,10,11
 576 538 576 538 573.420297124 193.265559182 c 0,12,13
 573.000328442 111.064286533 573.000328442 111.064286533 571.15625 52.0947265625 c 2,14,-1
 569.79296875 8.5 l 1,15,-1
 316.7421875 8.5 l 1,16,-1
 316.6640625 56.416015625 l 2,17,18
 316 425 316 425 272.028808594 693.825195312 c 128,-1,19
 228.05711949 962.650793923 228.05711949 962.650793923 107.40625 1221.91992188 c 2,20,-1
 91.484375 1256.13476562 l 1,21,-1
 311.54296875 1410.1484375 l 1,22,23
 397 1210 397 1210 422.5 1153.5 c 0,24,25
 465 1061 465 1061 552.549744895 1060.9178352 c 0,26,27
 597 1061 597 1061 614.654296875 1084.93554688 c 0,28,29
 649.108398438 1132.14854007 649.108398438 1132.14854007 649.108398438 1292.140625 c 2,30,-1
 649.108398438 1340.50195312 l 1,31,-1
 860.61328125 1338.91601562 l 1,32,-1
 861.169921875 1294.81640625 l 2,33,34
 863 1137 863 1137 873 1107.5 c 0,35,36
 891 1056 891 1056 942.634765625 1055.8359375 c 4,37,38
 971 1056 971 1056 985.278320312 1070.40625 c 0,39,40
 1020 1106 1020 1106 1030.35058594 1329.2421875 c 1,41,-1
 1034.05859375 1386.28613281 l 1,42,-1
 1259.93164062 1356.22949219 l 1,0,1
EndSplineSet
EndChar

StartChar: uni06F4
Encoding: 1780 1780 89
Width: 1120
VWidth: 2181
GlyphClass: 2
Flags: W
LayerCount: 2
Fore
SplineSet
401.5078125 1162.12304688 m 1,0,1
 561 1471 561 1471 967.672851562 1333.89746094 c 1,2,-1
 967.672851562 1108.39746094 l 1,3,4
 860 1144 860 1144 760.8515625 1136.40136719 c 0,5,6
 628 1125 628 1125 591.678710938 1041.18066406 c 0,7,8
 566 983 566 983 575.791015625 928.861328125 c 1,9,10
 648.270507812 886.842773438 648.270507812 886.842773438 974.31640625 933.447265625 c 2,11,-1
 1024.94238281 940.68359375 l 1,12,-1
 1028.4453125 697.583007812 l 1,13,-1
 988.59765625 689.470703125 l 2,14,15
 863 664 863 664 731.7890625 663.53125 c 0,16,17
 621 663 621 663 530 681 c 1,18,19
 554 537 554 537 561.581054688 104.66796875 c 0,20,21
 562.004882812 79.73046875 562.004882812 79.73046875 561.358398438 52.4345703125 c 2,22,-1
 560.318359375 8.5 l 1,23,-1
 308.7421875 8.5 l 1,24,-1
 308.6640625 56.42578125 l 2,25,26
 308 497 308 497 279.663085938 669.27734375 c 0,27,28
 237.078125 933.512695312 237.078125 933.512695312 107.141601562 1225.77441406 c 2,29,-1
 91.634765625 1260.65332031 l 1,30,-1
 319.73046875 1410.81542969 l 1,31,-1
 338.111328125 1354.96875 l 2,32,33
 370 1257 370 1257 401.5078125 1162.12304688 c 1,0,1
EndSplineSet
EndChar

StartChar: uni06F5
Encoding: 1781 1781 90
Width: 1311
GlyphClass: 2
Flags: W
LayerCount: 2
Fore
SplineSet
801.444335938 295.521484375 m 0,0,1
 822 282 822 282 856.501953125 280.717773438 c 0,2,3
 925 277 925 277 948.866210938 305.9765625 c 0,4,5
 979 341 979 341 977.620117188 404.963867188 c 0,6,7
 976 454 976 454 962.03125 508.391601562 c 0,8,9
 898 746 898 746 642.168945312 983.401367188 c 1,10,11
 415 700 415 700 360 518 c 0,12,13
 339 448 339 448 338.939453125 400.366210938 c 0,14,15
 339 335 339 335 364.5 306 c 128,-1,16
 390 277 390 277 437.193359375 277.2578125 c 0,17,18
 480.43619172 276.984608371 480.43619172 276.984608371 503.165039062 291.84375 c 0,19,20
 560 329 560 329 581.36328125 448.1328125 c 1,21,-1
 590.638671875 506 l 1,22,-1
 740.858398438 506 l 1,23,-1
 748.305664062 444.764648438 l 1,24,25
 756 325 756 325 801.444335938 295.521484375 c 0,0,1
661.061523438 112.454101562 m 1,26,27
 585.1961526 8.26937329979 585.1961526 8.26937329979 439.544921875 8.36328125 c 2,28,-1
 438.030273438 8.3642578125 l 2,29,30
 270 8 270 8 181.233398438 104.044921875 c 0,31,32
 92 200 92 200 91.912109375 375.874023438 c 0,33,34
 92 686 92 686 457.548828125 1144.18945312 c 1,35,-1
 413.418945312 1182.50292969 l 1,36,-1
 561.967773438 1388.52441406 l 5,37,38
 601 1368 601 1368 721 1259 c 0,39,40
 1219 804 1219 804 1219.06738281 408.215820312 c 0,41,42
 1219 197 1219 197 1118.61621094 91.521484375 c 0,43,44
 1040 9 1040 9 890.72265625 8.5947265625 c 0,45,46
 742 9 742 9 661.061523438 112.454101562 c 1,26,27
EndSplineSet
EndChar

StartChar: uni06F6
Encoding: 1782 1782 91
Width: 1021
VWidth: 2181
GlyphClass: 2
Flags: W
LayerCount: 2
Fore
SplineSet
603.370117188 1407.71191406 m 0,0,1
 683.646374525 1407.99873652 683.646374525 1407.99873652 784.506835938 1375.96484375 c 2,2,-1
 815.884765625 1365.99902344 l 1,3,-1
 815.884765625 1122.7109375 l 1,4,-1
 757.94921875 1138.09863281 l 4,5,6
 568 1190 568 1190 462.0859375 1118.61132812 c 0,7,8
 392 1069 392 1069 392.25 998.633789062 c 0,9,10
 392 926 392 926 446.375976562 879.75390625 c 0,11,12
 500 834 500 834 651.165039062 859.525390625 c 0,13,14
 727.394986655 871.901772513 727.394986655 871.901772513 866.975585938 929.28125 c 2,15,-1
 929.084960938 954.813476562 l 1,16,-1
 929.084960938 695.108398438 l 1,17,18
 581 620 581 620 435.3359375 276.026367188 c 0,19,20
 395 181 395 181 347.483398438 8.5 c 1,21,-1
 91.4951171875 8.5 l 1,22,23
 151 227 151 227 239 412 c 0,24,25
 303 546 303 546 382.6640625 655.151367188 c 1,26,27
 273 681 273 681 212.663085938 759.221679688 c 0,28,29
 152 837 152 837 145.326171875 958.426757812 c 0,30,31
 134 1149 134 1149 269.013671875 1278.88574219 c 0,32,33
 402 1407 402 1407 603.370117188 1407.71191406 c 0,0,1
EndSplineSet
EndChar

StartChar: uniFB8F
Encoding: 64399 64399 106
Width: 2075
VWidth: 2181
GlyphClass: 2
Flags: W
AnchorPoint: "Anchor-10" 498 1222.5 basechar 0
AnchorPoint: "Anchor-7" 577 -164 basechar 0
LayerCount: 2
Fore
SplineSet
858.442382812 0.5 m 2,0,1
 575.805041876 0.5 575.805041876 0.5 409.521484375 70.0771484375 c 0,2,3
 124 189 124 189 96.572265625 493.8984375 c 0,4,5
 86.0159910543 611.821365773 86.0159910543 611.821365773 131.51953125 767.061523438 c 2,6,-1
 143.837890625 809.086914062 l 1,7,-1
 359.745117188 752.120117188 l 1,8,-1
 353.30078125 711.88671875 l 2,9,10
 332 579 332 579 334.461425781 525.961425781 c 0,11,12
 337 474 337 474 354.41796875 434.185546875 c 0,13,14
 372 394 372 394 405.793945312 362.9609375 c 0,15,16
 473 301 473 301 618.099609375 278.81640625 c 0,17,18
 691 268 691 268 850.69921875 265.48046875 c 1,19,-1
 1300.65429688 265.629882812 l 2,20,21
 1477 266 1477 266 1497.65429688 365.145507812 c 0,22,23
 1508.96378869 419.824924666 1508.96378869 419.824924666 1448.00390625 487.505859375 c 2,24,-1
 1187.05566406 777.224609375 l 2,25,26
 1085 891 1085 891 1081.64067801 968.811207584 c 0,27,28
 1076.00461691 1116.87870698 1076.00461691 1116.87870698 1221.37597656 1195.58984375 c 2,29,-1
 1967.04980469 1599.33398438 l 1,30,-1
 1967.04980469 1323.36035156 l 1,31,-1
 1336.16503906 981.373046875 l 1,32,-1
 1911.31640625 342.919921875 l 2,33,34
 1983.34421945 263.621032227 1983.34421945 263.621032227 2072.29980469 265.791015625 c 2,35,-1
 2084.95019531 266.099609375 l 5,36,-1
 2084.95019531 1 l 5,37,-1
 2042.20996094 1 l 2,38,39
 1875 1 1875 1 1696.2109375 206.221679688 c 1,40,41
 1604.22357237 0.5 1604.22357237 0.5 1220.66992188 0.5 c 2,42,-1
 858.442382812 0.5 l 2,0,1
EndSplineSet
EndChar

StartChar: uniFB9F
Encoding: 64415 64415 114
Width: 1431
VWidth: 2181
GlyphClass: 2
Flags: W
AnchorPoint: "Anchor-10" 418.092 759.45 basechar 0
AnchorPoint: "Anchor-7" 323.712 -653.104 basechar 0
LayerCount: 2
Fore
SplineSet
707.17578125 -488.2421875 m 0,0,1
 271.1015625 -493.97265625 271.1015625 -493.97265625 132.6875 -176.390625 c 0,2,3
 65 -20 65 -20 96.70703125 195.7109375 c 0,4,5
 116.750976562 335.266601562 116.750976562 335.266601562 177.983398438 472.5390625 c 2,6,-1
 194.75390625 510.135742188 l 1,7,-1
 428.6640625 429.836914062 l 1,8,-1
 410.428710938 385.637695312 l 2,9,10
 338 210 338 210 338.125976562 78.2041015625 c 0,11,12
 337 -93 337 -93 446.6484375 -171.586914062 c 0,13,14
 534 -235 534 -235 710.630859375 -235.232421875 c 0,15,16
 887 -235 887 -235 977.885742188 -164.838867188 c 0,17,18
 1069 -94 1069 -94 1087.49316406 53.9677734375 c 0,19,20
 1112.00585938 249.049804688 1112.00585938 249.049804688 990.287109375 404.71875 c 2,21,-1
 965.141601562 436.877929688 l 1,22,-1
 1183.04394531 644.33984375 l 1,23,-1
 1206.546875 579.6953125 l 2,24,25
 1261 429 1261 429 1305.39550781 347.408203125 c 0,26,27
 1349.79394531 265.379882812 1349.79394531 265.379882812 1406.28027344 265.379882812 c 2,28,-1
 1441.53027344 265.379882812 l 1,29,-1
 1441.53027344 0.5 l 1,30,-1
 1407.58203125 0.5 l 2,31,32
 1358 0 1358 0 1318.046875 19.12890625 c 1,33,34
 1296 -224 1296 -224 1139.32226562 -352.525390625 c 0,35,36
 978 -485 978 -485 707.17578125 -488.2421875 c 0,0,1
EndSplineSet
EndChar

StartChar: uniFBE8
Encoding: 64488 64488 117
Width: 650
VWidth: 2186
GlyphClass: 2
Flags: W
AnchorPoint: "Anchor-10" 276.93 1064.5 basechar 0
AnchorPoint: "Anchor-7" 308.93 -64.5 basechar 0
LayerCount: 2
Fore
SplineSet
80.6494140625 0 m 2,0,-1
 -10.400390625 0 l 5,1,-1
 -10.400390625 264.98046875 l 5,2,-1
 94.0341796875 264.98046875 l 2,3,4
 269 265 269 265 292.962956913 322.425508657 c 128,-1,5
 317 380 317 380 306.840820312 505.467285156 c 0,6,7
 295.731619759 634.107744556 295.731619759 634.107744556 273.920898438 720.461914062 c 2,8,-1
 262.46484375 765.819335938 l 1,9,-1
 497.434570312 815.5546875 l 1,10,-1
 511.41796875 780.220703125 l 2,11,12
 574 621 574 621 558.469726562 381.073242188 c 0,13,14
 545 171 545 171 444.210645003 85.4691106876 c 0,15,16
 344 0 344 0 80.6494140625 0 c 2,0,-1
EndSplineSet
EndChar

StartChar: uniFBE9
Encoding: 64489 64489 118
Width: 702
VWidth: 2181
GlyphClass: 2
Flags: W
AnchorPoint: "Anchor-10" 299.93 1012.5 basechar 0
AnchorPoint: "Anchor-7" 268.93 -204.5 basechar 0
LayerCount: 2
Fore
SplineSet
407.227539062 88.154296875 m 1,0,1
 311 0 311 0 161.900390625 -0 c 2,2,-1
 -10.400390625 0 l 1,3,-1
 -10.400390625 264.98046875 l 1,4,-1
 115.041015625 264.98046875 l 2,5,6
 282.73681336 264.999969395 282.73681336 264.999969395 285.473632812 391.818359375 c 2,7,-1
 290.852539062 641.065429688 l 1,8,-1
 522.836914062 681.154296875 l 1,9,-1
 533.368164062 392.467773438 l 2,10,11
 535 336 535 336 576.120460861 300.674687514 c 0,12,13
 617.022380813 264.98046875 617.022380813 264.98046875 689.810546875 264.98046875 c 2,14,-1
 712.66015625 264.98046875 l 5,15,-1
 712.66015625 0 l 5,16,-1
 666.959960938 0 l 2,17,18
 506 0 506 0 407.227539062 88.154296875 c 1,0,1
EndSplineSet
EndChar

StartChar: uniFE73
Encoding: 65139 65139 126
Width: 579
VWidth: 2186
GlyphClass: 2
Flags: W
AnchorPoint: "Anchor-10" 213.79 1327.5 basechar 0
AnchorPoint: "Anchor-7" 213.79 -63.5 basechar 0
LayerCount: 2
Fore
SplineSet
347.23046875 398.740234375 m 2,0,1
 347.23046875 354.388671875 347.23046875 354.388671875 386.733398438 314.883789062 c 128,-1,2
 426.236328125 275.379882812 426.236328125 275.379882812 517.669921875 275.379882812 c 2,3,-1
 632.919921875 275.379882812 l 1,4,-1
 632.919921875 8.5 l 1,5,-1
 458.8203125 8.5 l 2,6,7
 292.383789062 8.5 292.383789062 8.5 186.3671875 114.515625 c 128,-1,8
 80.349609375 220.532226562 80.349609375 220.532226562 80.349609375 385.900390625 c 2,9,-1
 80.349609375 466.91015625 l 1,10,-1
 347.23046875 466.91015625 l 1,11,-1
 347.23046875 398.740234375 l 2,0,1
EndSplineSet
EndChar

StartChar: uniFE8E
Encoding: 65166 65166 152
Width: 571
VWidth: 2181
GlyphClass: 2
Flags: W
AnchorPoint: "Anchor-10" 260.95 1515 basechar 0
AnchorPoint: "Anchor-7" 294.95 -158.5 basechar 0
LayerCount: 2
Fore
SplineSet
382.989257812 464.774414062 m 2,0,1
 382.943709939 357.062616292 382.943709939 357.062616292 424.439453125 310.903320312 c 0,2,3
 466.017683458 264.98046875 466.017683458 264.98046875 558.830078125 264.98046875 c 2,4,-1
 581.080078125 264.98046875 l 5,5,-1
 581.080078125 0 l 5,6,-1
 538.98046875 0 l 2,7,8
 317.018130443 -5.49560397189e-14 317.018130443 -5.49560397189e-14 237.909179688 145.294921875 c 0,9,10
 175.506856726 259.075825808 175.506856726 259.075825808 167.54296875 450.142578125 c 2,11,-1
 129.333984375 1366.83886719 l 1,12,-1
 383.41796875 1478.59179688 l 1,13,-1
 382.989257812 464.774414062 l 2,0,1
EndSplineSet
EndChar

StartChar: uniFEA2
Encoding: 65186 65186 172
Width: 1350
VWidth: 2181
GlyphClass: 2
Flags: W
AnchorPoint: "Anchor-10" 626.5 1166 basechar 0
AnchorPoint: "Anchor-7" 457.84 -717.64 basechar 0
LayerCount: 2
Fore
SplineSet
1337.47460938 -0.5 m 2,0,1
 1154.55530473 -0.5 1154.55530473 -0.5 1039.41308594 103.174804688 c 0,2,3
 925 207 925 207 888.381835938 402.374023438 c 1,4,5
 727 368 727 368 604.997070312 297.428710938 c 0,6,7
 341 144 341 144 341.080078125 -87.1708984375 c 0,8,9
 341 -212 341 -212 434.001464844 -287.041503906 c 128,-1,10
 527 -362 527 -362 746.122558594 -362.508300781 c 128,-1,11
 965.189028825 -363.000424646 965.189028825 -363.000424646 1122.59277344 -318.052734375 c 2,12,-1
 1164.1953125 -306.172851562 l 1,13,-1
 1239.87207031 -536.489257812 l 1,14,-1
 1196.04003906 -549.977539062 l 2,15,16
 991 -613 991 -613 772 -613 c 0,17,18
 367 -613 367 -613 204.8828125 -422.15625 c 0,19,20
 91 -289 91 -289 90.9985351562 -95.15234375 c 0,21,22
 91 98 91 98 197.221679688 259.611328125 c 0,23,24
 346 486 346 486 703.465820312 589.844726562 c 1,25,26
 552 661 552 661 519.486328125 664.14453125 c 0,27,28
 425.716874272 672.023790487 425.716874272 672.023790487 302.881835938 515.979492188 c 2,29,-1
 275.357421875 481.013671875 l 1,30,-1
 97.810546875 617.587890625 l 1,31,-1
 121.743164062 652.696289062 l 2,32,33
 296 908 296 908 508 908 c 0,34,35
 565 908 565 908 611.048391776 888.66015625 c 0,36,37
 677 861 677 861 764.970024026 818.24456137 c 0,38,39
 926 739 926 739 999.297959399 714.171384153 c 0,40,41
 1072.19525844 688.932396323 1072.19525844 688.932396323 1155.37988281 677.776367188 c 2,42,-1
 1200.38085938 671.741210938 l 1,43,-1
 1166.05859375 432.094726562 l 1,44,-1
 1130.08203125 429.326171875 l 2,45,46
 1120 429 1120 429 1112.75 427.99609375 c 1,47,48
 1134 343 1134 343 1186.06835938 303.452148438 c 0,49,50
 1237.49995277 264.379882812 1237.49995277 264.379882812 1331.12988281 264.379882812 c 2,51,-1
 1360.94042969 264.379882812 l 1,52,-1
 1360.94042969 -0.5 l 1,53,-1
 1337.47460938 -0.5 l 2,0,1
EndSplineSet
EndChar

StartChar: uniFEA3
Encoding: 65187 65187 173
Width: 1377
VWidth: 2181
GlyphClass: 2
Flags: W
AnchorPoint: "Anchor-10" 371 1100.73 basechar 0
AnchorPoint: "Anchor-7" 566 -160.5 basechar 0
LayerCount: 2
Fore
SplineSet
640.7734375 94.28125 m 0,0,1
 446 0 446 0 46.2548828125 0 c 2,2,-1
 -10.400390625 0 l 5,3,-1
 -10.400390625 264.98046875 l 5,4,-1
 17.5966796875 264.98046875 l 2,5,6
 358 265 358 265 486.524414062 311.618164062 c 0,7,8
 649 370 649 370 788.08203125 432.241210938 c 1,9,10
 730 453 730 453 652.451954341 487.216985535 c 0,11,12
 439 582 439 582 371.653320312 570.220703125 c 0,13,14
 295.989818135 556.998220681 295.989818135 556.998220681 205.502929688 437.948242188 c 2,15,-1
 178.114257812 401.9140625 l 1,16,-1
 -0.7998046875 539.541992188 l 1,17,-1
 24.326171875 574.864257812 l 2,18,19
 123 714 123 714 184.940429688 758.862304688 c 0,20,21
 326 861 326 861 513.329101562 810.8984375 c 0,22,23
 571 795 571 795 885.955078125 658.583984375 c 0,24,25
 1079.72168692 574.687526265 1079.72168692 574.687526265 1237.71777344 585.14453125 c 2,26,-1
 1294.37695312 588.89453125 l 1,27,-1
 1257.09179688 364.171875 l 1,28,-1
 1226.99121094 357.844726562 l 2,29,30
 1153 342 1153 342 640.7734375 94.28125 c 0,0,1
EndSplineSet
EndChar

StartChar: uniFEA4
Encoding: 65188 65188 174
Width: 1343
VWidth: 2181
GlyphClass: 2
Flags: W
AnchorPoint: "Anchor-10" 379 1120.69 basechar 0
AnchorPoint: "Anchor-7" 547 -168.5 basechar 0
LayerCount: 2
Fore
SplineSet
1224.91992188 0 m 2,0,1
 908 0 908 0 812.715820312 175.958007812 c 1,2,3
 733 139 733 139 640.615234375 94.2041015625 c 0,4,5
 446 0 446 0 46.2548828125 0 c 2,6,-1
 -10.400390625 0 l 1,7,-1
 -10.400390625 264.98046875 l 1,8,-1
 17.5966796875 264.98046875 l 2,9,10
 358 265 358 265 486.524414062 311.618164062 c 0,11,12
 649 370 649 370 788.08203125 432.241210938 c 1,13,14
 730 453 730 453 652.451954341 487.216985535 c 0,15,16
 439 582 439 582 371.653320312 570.220703125 c 0,17,18
 295.986097594 556.997570502 295.986097594 556.997570502 205.502929688 437.948242188 c 2,19,-1
 178.115234375 401.9140625 l 1,20,-1
 -0.8232421875 539.55859375 l 1,21,-1
 24.33984375 574.887695312 l 2,22,23
 122 711 122 711 184.352539062 758.428710938 c 0,24,25
 324 862 324 862 512.484375 811.127929688 c 0,26,27
 572 795 572 795 885.955078125 658.583984375 c 0,28,29
 1080.59210014 574.744955507 1080.59210014 574.744955507 1237.71777344 585.14453125 c 2,30,-1
 1294.37597656 588.89453125 l 1,31,-1
 1257.20410156 364.840820312 l 1,32,-1
 1227.85058594 358.07421875 l 2,33,34
 1193 350 1193 350 1051.70605469 286.693359375 c 1,35,36
 1114.36159298 265.879882812 1114.36159298 265.879882812 1246.3203125 265.879882812 c 2,37,-1
 1353.94042969 265.879882812 l 5,38,-1
 1353.94042969 0 l 5,39,-1
 1224.91992188 0 l 2,0,1
EndSplineSet
EndChar

StartChar: uniFEAA
Encoding: 65194 65194 180
Width: 1142
VWidth: 2181
GlyphClass: 2
Flags: W
AnchorPoint: "Anchor-10" 530.99 1261.65 basechar 0
AnchorPoint: "Anchor-7" 493.5 -188 basechar 0
LayerCount: 2
Fore
SplineSet
691.293945312 363.407226562 m 2,0,-1
 433 888 l 5,1,-1
 662.389648438 1006.45996094 l 1,2,-1
 946.827148438 442.673828125 l 2,3,4
 993.146856856 350.863116519 993.146856856 350.863116519 1038.52636719 308.565429688 c 0,5,6
 1082.71406097 267.267241016 1082.71406097 267.267241016 1122.12304688 265.799804688 c 2,7,-1
 1152.65039062 264.663085938 l 1,8,-1
 1152.65039062 0.5 l 1,9,-1
 1118.51953125 0.5 l 2,10,11
 965 0 965 0 867.90625 97.787109375 c 1,12,13
 729 -26 729 -26 385.297851562 -19.9873046875 c 0,14,15
 198 -17 198 -17 90.1748046875 20.8505859375 c 1,16,-1
 90.1748046875 307.795898438 l 1,17,18
 232 249 232 249 387.943359375 246.979492188 c 0,19,20
 623 243 623 243 694.889648438 311.638671875 c 0,21,22
 710 326 710 326 691.293945312 363.407226562 c 2,0,-1
EndSplineSet
EndChar

StartChar: uniFEAE
Encoding: 65198 65198 184
Width: 976
VWidth: 2186
GlyphClass: 2
Flags: W
AnchorPoint: "Anchor-10" 537 866 basechar 0
AnchorPoint: "Anchor-7" 465.925 -597.55 basechar 0
LayerCount: 2
Fore
SplineSet
986.599609375 -0.025390625 m 1,0,1
 874 0 874 0 817.296875 20.7587890625 c 1,2,3
 765 -238 765 -238 593.516628814 -370.487145052 c 128,-1,4
 422.033277411 -502.974290046 422.033277411 -502.974290046 142.922851562 -503.802734375 c 2,5,-1
 113.969726562 -503.888671875 l 1,6,-1
 -4.58984375 -289.436523438 l 1,7,-1
 66.6171875 -285.173828125 l 2,8,9
 311 -271 311 -271 440.59765625 -170.202148438 c 0,10,11
 567 -71 567 -71 590.428710938 120.03125 c 0,12,13
 600.986589507 206.889673454 600.986589507 206.889673454 532.340820312 452.264648438 c 2,14,-1
 523.874023438 482.529296875 l 1,15,-1
 748 644 l 1,16,-1
 762.168945312 576.219726562 l 2,17,18
 817 317 l 4,19,20
 832.005634014 264.98046875 832.005634014 264.98046875 963.83984375 264.98046875 c 2,21,-1
 986.599609375 264.98046875 l 1,22,-1
 986.599609375 -0.025390625 l 1,0,1
EndSplineSet
PairPos2: "'kern' Horizontal Kerning lookup 15-1" uni06CA dx=-80 dy=0 dh=-80 dv=0 dx=0 dy=0 dh=0 dv=0
PairPos2: "'kern' Horizontal Kerning lookup 15-1" uniFB90 dx=-290 dy=0 dh=-290 dv=0 dx=0 dy=0 dh=0 dv=0
PairPos2: "'kern' Horizontal Kerning lookup 15-1" uniFB8E dx=-290 dy=0 dh=-290 dv=0 dx=0 dy=0 dh=0 dv=0
PairPos2: "'kern' Horizontal Kerning lookup 15-1" uni06A9 dx=-290 dy=0 dh=-290 dv=0 dx=0 dy=0 dh=0 dv=0
PairPos2: "'kern' Horizontal Kerning lookup 15-1" uni064A dx=-100 dy=0 dh=-100 dv=0 dx=0 dy=0 dh=0 dv=0
PairPos2: "'kern' Horizontal Kerning lookup 15-1" afii57414 dx=-100 dy=0 dh=-100 dv=0 dx=0 dy=0 dh=0 dv=0
PairPos2: "'kern' Horizontal Kerning lookup 15-1" uniFBE8 dx=-200 dy=0 dh=-200 dv=0 dx=0 dy=0 dh=0 dv=0
PairPos2: "'kern' Horizontal Kerning lookup 15-1" uni0649 dx=-80 dy=0 dh=-80 dv=0 dx=0 dy=0 dh=0 dv=0
PairPos2: "'kern' Horizontal Kerning lookup 15-1" uni0648 dx=-80 dy=0 dh=-80 dv=0 dx=0 dy=0 dh=0 dv=0
PairPos2: "'kern' Horizontal Kerning lookup 15-1" afii57412 dx=-80 dy=0 dh=-80 dv=0 dx=0 dy=0 dh=0 dv=0
PairPos2: "'kern' Horizontal Kerning lookup 15-1" uniFEEB dx=-200 dy=0 dh=-200 dv=0 dx=0 dy=0 dh=0 dv=0
PairPos2: "'kern' Horizontal Kerning lookup 15-1" uni0647 dx=-200 dy=0 dh=-200 dv=0 dx=0 dy=0 dh=0 dv=0
PairPos2: "'kern' Horizontal Kerning lookup 15-1" uniFEE7 dx=-200 dy=0 dh=-200 dv=0 dx=0 dy=0 dh=0 dv=0
PairPos2: "'kern' Horizontal Kerning lookup 15-1" uni0646 dx=-150 dy=0 dh=-150 dv=0 dx=0 dy=0 dh=0 dv=0
PairPos2: "'kern' Horizontal Kerning lookup 15-1" uniFEE3 dx=-200 dy=0 dh=-200 dv=0 dx=0 dy=0 dh=0 dv=0
PairPos2: "'kern' Horizontal Kerning lookup 15-1" uni0645 dx=-200 dy=0 dh=-200 dv=0 dx=0 dy=0 dh=0 dv=0
PairPos2: "'kern' Horizontal Kerning lookup 15-1" uniFEFB dx=-200 dy=0 dh=-200 dv=0 dx=0 dy=0 dh=0 dv=0
PairPos2: "'kern' Horizontal Kerning lookup 15-1" uniFEDF dx=-200 dy=0 dh=-200 dv=0 dx=0 dy=0 dh=0 dv=0
PairPos2: "'kern' Horizontal Kerning lookup 15-1" uni0644 dx=-150 dy=0 dh=-150 dv=0 dx=0 dy=0 dh=0 dv=0
PairPos2: "'kern' Horizontal Kerning lookup 15-1" uniFEDB dx=-290 dy=0 dh=-290 dv=0 dx=0 dy=0 dh=0 dv=0
PairPos2: "'kern' Horizontal Kerning lookup 15-1" uni0643 dx=-200 dy=0 dh=-200 dv=0 dx=0 dy=0 dh=0 dv=0
PairPos2: "'kern' Horizontal Kerning lookup 15-1" uniFED7 dx=-200 dy=0 dh=-200 dv=0 dx=0 dy=0 dh=0 dv=0
PairPos2: "'kern' Horizontal Kerning lookup 15-1" uni0642 dx=-150 dy=0 dh=-150 dv=0 dx=0 dy=0 dh=0 dv=0
PairPos2: "'kern' Horizontal Kerning lookup 15-1" uniFED3 dx=-200 dy=0 dh=-200 dv=0 dx=0 dy=0 dh=0 dv=0
PairPos2: "'kern' Horizontal Kerning lookup 15-1" uni0641 dx=-200 dy=0 dh=-200 dv=0 dx=0 dy=0 dh=0 dv=0
PairPos2: "'kern' Horizontal Kerning lookup 15-1" uniFECF dx=-200 dy=0 dh=-200 dv=0 dx=0 dy=0 dh=0 dv=0
PairPos2: "'kern' Horizontal Kerning lookup 15-1" uniFECB dx=-200 dy=0 dh=-200 dv=0 dx=0 dy=0 dh=0 dv=0
PairPos2: "'kern' Horizontal Kerning lookup 15-1" uniFEC7 dx=-200 dy=0 dh=-200 dv=0 dx=0 dy=0 dh=0 dv=0
PairPos2: "'kern' Horizontal Kerning lookup 15-1" uni0638 dx=-200 dy=0 dh=-200 dv=0 dx=0 dy=0 dh=0 dv=0
PairPos2: "'kern' Horizontal Kerning lookup 15-1" uniFEC3 dx=-200 dy=0 dh=-200 dv=0 dx=0 dy=0 dh=0 dv=0
PairPos2: "'kern' Horizontal Kerning lookup 15-1" uni0637 dx=-200 dy=0 dh=-200 dv=0 dx=0 dy=0 dh=0 dv=0
PairPos2: "'kern' Horizontal Kerning lookup 15-1" uniFEBF dx=-200 dy=0 dh=-200 dv=0 dx=0 dy=0 dh=0 dv=0
PairPos2: "'kern' Horizontal Kerning lookup 15-1" uni0636 dx=-200 dy=0 dh=-200 dv=0 dx=0 dy=0 dh=0 dv=0
PairPos2: "'kern' Horizontal Kerning lookup 15-1" uniFEBB dx=-200 dy=0 dh=-200 dv=0 dx=0 dy=0 dh=0 dv=0
PairPos2: "'kern' Horizontal Kerning lookup 15-1" uni0635 dx=-200 dy=0 dh=-200 dv=0 dx=0 dy=0 dh=0 dv=0
PairPos2: "'kern' Horizontal Kerning lookup 15-1" uniFEB7 dx=-200 dy=0 dh=-200 dv=0 dx=0 dy=0 dh=0 dv=0
PairPos2: "'kern' Horizontal Kerning lookup 15-1" uni0634 dx=-200 dy=0 dh=-200 dv=0 dx=0 dy=0 dh=0 dv=0
PairPos2: "'kern' Horizontal Kerning lookup 15-1" uniFEB3 dx=-200 dy=0 dh=-200 dv=0 dx=0 dy=0 dh=0 dv=0
PairPos2: "'kern' Horizontal Kerning lookup 15-1" uni0633 dx=-200 dy=0 dh=-200 dv=0 dx=0 dy=0 dh=0 dv=0
PairPos2: "'kern' Horizontal Kerning lookup 15-1" uni0632 dx=-80 dy=0 dh=-80 dv=0 dx=0 dy=0 dh=0 dv=0
PairPos2: "'kern' Horizontal Kerning lookup 15-1" uni0631 dx=-80 dy=0 dh=-80 dv=0 dx=0 dy=0 dh=0 dv=0
PairPos2: "'kern' Horizontal Kerning lookup 15-1" uni0630 dx=-200 dy=0 dh=-200 dv=0 dx=0 dy=0 dh=0 dv=0
PairPos2: "'kern' Horizontal Kerning lookup 15-1" uni062F dx=-200 dy=0 dh=-200 dv=0 dx=0 dy=0 dh=0 dv=0
PairPos2: "'kern' Horizontal Kerning lookup 15-1" uniFEA7 dx=-200 dy=0 dh=-200 dv=0 dx=0 dy=0 dh=0 dv=0
PairPos2: "'kern' Horizontal Kerning lookup 15-1" uniFEA3 dx=-200 dy=0 dh=-200 dv=0 dx=0 dy=0 dh=0 dv=0
PairPos2: "'kern' Horizontal Kerning lookup 15-1" uniFE9F dx=-200 dy=0 dh=-200 dv=0 dx=0 dy=0 dh=0 dv=0
PairPos2: "'kern' Horizontal Kerning lookup 15-1" uniFE9B dx=-200 dy=0 dh=-200 dv=0 dx=0 dy=0 dh=0 dv=0
PairPos2: "'kern' Horizontal Kerning lookup 15-1" uni062B dx=-200 dy=0 dh=-200 dv=0 dx=0 dy=0 dh=0 dv=0
PairPos2: "'kern' Horizontal Kerning lookup 15-1" uniFE97 dx=-200 dy=0 dh=-200 dv=0 dx=0 dy=0 dh=0 dv=0
PairPos2: "'kern' Horizontal Kerning lookup 15-1" uni062A dx=-200 dy=0 dh=-200 dv=0 dx=0 dy=0 dh=0 dv=0
PairPos2: "'kern' Horizontal Kerning lookup 15-1" uni0629 dx=-200 dy=0 dh=-200 dv=0 dx=0 dy=0 dh=0 dv=0
PairPos2: "'kern' Horizontal Kerning lookup 15-1" uniFE91 dx=-200 dy=0 dh=-200 dv=0 dx=0 dy=0 dh=0 dv=0
PairPos2: "'kern' Horizontal Kerning lookup 15-1" uni0628 dx=-200 dy=0 dh=-200 dv=0 dx=0 dy=0 dh=0 dv=0
PairPos2: "'kern' Horizontal Kerning lookup 15-1" uni0627 dx=-200 dy=0 dh=-200 dv=0 dx=0 dy=0 dh=0 dv=0
PairPos2: "'kern' Horizontal Kerning lookup 15-1" uni0623 dx=-200 dy=0 dh=-200 dv=0 dx=0 dy=0 dh=0 dv=0
PairPos2: "'kern' Horizontal Kerning lookup 15-1" uni0622 dx=-200 dy=0 dh=-200 dv=0 dx=0 dy=0 dh=0 dv=0
PairPos2: "'kern' Horizontal Kerning lookup 15-1" uni0621 dx=-200 dy=0 dh=-200 dv=0 dx=0 dy=0 dh=0 dv=0
PairPos2: "'kern' Horizontal Kerning lookup 15-1" uniFB94 dx=-290 dy=0 dh=-290 dv=0 dx=0 dy=0 dh=0 dv=0
PairPos2: "'kern' Horizontal Kerning lookup 15-1" uniFB92 dx=-290 dy=0 dh=-290 dv=0 dx=0 dy=0 dh=0 dv=0
PairPos2: "'kern' Horizontal Kerning lookup 15-1" afii57509 dx=-290 dy=0 dh=-290 dv=0 dx=0 dy=0 dh=0 dv=0
PairPos2: "'kern' Horizontal Kerning lookup 15-1" afii57508 dx=-80 dy=0 dh=-80 dv=0 dx=0 dy=0 dh=0 dv=0
PairPos2: "'kern' Horizontal Kerning lookup 15-1" uniFB7C dx=-150 dy=0 dh=-150 dv=0 dx=0 dy=0 dh=0 dv=0
PairPos2: "'kern' Horizontal Kerning lookup 15-1" afii57506 dx=-200 dy=0 dh=-200 dv=0 dx=0 dy=0 dh=0 dv=0
PairPos2: "'kern' Horizontal Kerning lookup 15-1" afii57440 dx=-200 dy=0 dh=-200 dv=0 dx=0 dy=0 dh=0 dv=0
PairPos2: "'kern' Horizontal Kerning lookup 15-1" uniFE8B dx=-200 dy=0 dh=-200 dv=0 dx=0 dy=0 dh=0 dv=0
EndChar

StartChar: uniFEB2
Encoding: 65202 65202 188
Width: 2491
VWidth: 2181
GlyphClass: 2
Flags: W
AnchorPoint: "Anchor-10" 694 929.5 basechar 0
AnchorPoint: "Anchor-7" 529 -653.5 basechar 0
LayerCount: 2
Fore
SplineSet
2434.97265625 0.5 m 6,0,1
 2266.52124984 0.5 2266.52124984 0.5 2180.37988281 90.46484375 c 5,2,3
 2098 -1 2098 -1 1962.14941406 0.0009765625 c 0,4,5
 1790 1 1790 1 1704.50097656 96.009765625 c 1,6,7
 1624 -1 1624 -1 1474.65917969 0 c 0,8,9
 1381 0 1381 0 1314.83496094 29.224609375 c 1,10,11
 1290 -223 1290 -223 1133.47363281 -354.580078125 c 128,-1,12
 977 -486 977 -486 703.703125 -488.248046875 c 0,13,14
 269 -492 269 -492 131.728515625 -176.487304688 c 0,15,16
 64 -20 64 -20 95.70703125 195.7109375 c 0,17,18
 115.962422171 335.740217487 115.962422171 335.740217487 176.983398438 472.5390625 c 2,19,-1
 193.75390625 510.135742188 l 1,20,-1
 427.6640625 429.836914062 l 1,21,-1
 409.428710938 385.637695312 l 2,22,23
 337 210 337 210 337.125976562 78.2041015625 c 0,24,25
 336 -235 336 -235 705.55859375 -235 c 0,26,27
 884 -235 884 -235 975.65234375 -164.821289062 c 0,28,29
 1067 -94 1067 -94 1085.49316406 53.9677734375 c 0,30,31
 1110.00617148 249.049114362 1110.00617148 249.049114362 988.286132812 404.719726562 c 2,32,-1
 963.140625 436.87890625 l 1,33,-1
 1177.90820312 641.353515625 l 1,34,-1
 1203.41894531 581.869140625 l 2,35,36
 1240 497 1240 497 1296.90234375 355.162109375 c 1,37,38
 1348 262 1348 262 1463.83691406 263.986328125 c 0,39,40
 1524 265 1524 265 1551.50878906 289.8984375 c 0,41,42
 1578.52213575 314.563673664 1578.52213575 314.563673664 1583.78027344 375.254882812 c 2,43,-1
 1604.95410156 619.650390625 l 1,44,-1
 1802.74414062 619.650390625 l 1,45,-1
 1827.74511719 372.74609375 l 2,46,47
 1839 261 1839 261 1951.02929688 259.485351562 c 0,48,49
 2052.281335 258.998647663 2052.281335 258.998647663 2060.51367188 384.271484375 c 6,50,-1
 2080.29980469 685.360351562 l 5,51,-1
 2280.921875 685.360351562 l 5,52,-1
 2302.73828125 413.450195312 l 6,53,54
 2311 313 2311 313 2342.45605469 289.107421875 c 4,55,56
 2373.50293305 265.379882812 2373.50293305 265.379882812 2463.45996094 265.379882812 c 6,57,-1
 2501.33007812 265.379882812 l 5,58,-1
 2501.33007812 0.5 l 5,59,-1
 2434.97265625 0.5 l 6,0,1
EndSplineSet
EndChar

StartChar: uniFEB3
Encoding: 65203 65203 189
Width: 1587
VWidth: 2181
GlyphClass: 2
Flags: W
AnchorPoint: "Anchor-10" 645.5 1001.5 basechar 0
AnchorPoint: "Anchor-7" 665.5 -142 basechar 0
LayerCount: 2
Fore
SplineSet
344.668945312 96.7724609375 m 1,0,1
 317 70 317 70 281.721679688 46.123046875 c 0,2,3
 213 0 213 0 67.7001953125 0 c 2,4,-1
 -10.400390625 0 l 1,5,-1
 -10.400390625 264.98046875 l 1,6,-1
 8.8466796875 264.98046875 l 2,7,8
 126 265 126 265 178.993164062 302.875 c 0,9,10
 231.718204789 340.797319681 231.718204789 340.797319681 237.693359375 419.862304688 c 2,11,-1
 252.748046875 619.0703125 l 1,12,-1
 450.689453125 619.0703125 l 1,13,-1
 469.96484375 421.034179688 l 2,14,15
 478 337 478 337 519.5 299.5 c 128,-1,16
 561 262 561 262 633.5 261 c 128,-1,17
 706 260 706 260 736.10546875 292.112304688 c 128,-1,18
 766.210776809 324.224829973 766.210776809 324.224829973 774.54296875 404.150390625 c 2,19,-1
 796.948242188 619.0703125 l 1,20,-1
 990.254882812 619.0703125 l 1,21,-1
 1016.93261719 370.245117188 l 2,22,23
 1024 301 1024 301 1053 276 c 0,24,25
 1082 252 1082 252 1143 252.5 c 4,26,27
 1182 253 1182 253 1206.5 272 c 4,28,29
 1260.42274759 314.749565654 1260.42274759 314.749565654 1243.57519531 465.959960938 c 4,30,31
 1237.11900545 519.275265046 1237.11900545 519.275265046 1206.56054688 687.4609375 c 6,32,-1
 1199.50195312 726.309570312 l 5,33,-1
 1427.02246094 799.221679688 l 5,34,-1
 1441.55566406 757.979492188 l 6,35,36
 1494 609 1494 609 1495.53613281 453.52734375 c 4,37,38
 1498 159 1498 159 1340.49414062 53.89453125 c 4,39,40
 1261 1 1261 1 1144.12109375 0.5009765625 c 4,41,42
 971 -1 971 -1 893.978515625 94.3193359375 c 1,43,44
 812 -2 812 -2 624.5 0 c 128,-1,45
 437 2 437 2 344.668945312 96.7724609375 c 1,0,1
EndSplineSet
EndChar

StartChar: uniFEB4
Encoding: 65204 65204 190
Width: 1714
VWidth: 2176
GlyphClass: 2
Flags: W
AnchorPoint: "Anchor-10" 665.5 996.5 basechar 0
AnchorPoint: "Anchor-7" 758.5 -162 basechar 0
LayerCount: 2
Fore
SplineSet
1411.28417969 92.337890625 m 5,0,1
 1338 2 1338 2 1174.08691406 1.5380859375 c 128,-1,2
 1010 1 1010 1 924.271484375 107.192382812 c 1,3,4
 824 1 824 1 649.123046875 3.03564453125 c 0,5,6
 475 5 475 5 367.73828125 106.310546875 c 1,7,8
 342 84 342 84 301.629882812 57.076171875 c 0,9,10
 216 0 216 0 66.20703125 0 c 2,11,-1
 -10.2744140625 0 l 1,12,-1
 -10.2744140625 264.978515625 l 1,13,-1
 58.4638671875 264.978515625 l 2,14,15
 156 265 156 265 203.295898438 301.681640625 c 0,16,17
 249.048980429 337.037850178 249.048980429 337.037850178 256.645507812 414.03125 c 2,18,-1
 277.1015625 621.360351562 l 1,19,-1
 468.697265625 621.360351562 l 1,20,-1
 497.565429688 416.0234375 l 2,21,22
 509 335 509 335 545.887695312 299.54296875 c 0,23,24
 583 264 583 264 656.732421875 261.455566406 c 0,25,26
 730 259 730 259 764.673828125 287.004882812 c 0,27,28
 798.933349189 314.945642139 798.933349189 314.945642139 806.124023438 381.639648438 c 2,29,-1
 831.969726562 621.360351562 l 1,30,-1
 1023.21484375 621.360351562 l 1,31,-1
 1056.32910156 368.071289062 l 2,32,33
 1070 263 1070 263 1170.94433594 261.615234375 c 0,34,35
 1276.67675712 260.004923009 1276.67675712 260.004923009 1285.08398438 379.729492188 c 6,36,-1
 1306.52050781 685 l 5,37,-1
 1505.36523438 685 l 5,38,-1
 1531.03613281 412.750976562 l 6,39,40
 1545.01142957 265.879882812 1545.01142957 265.879882812 1706.45019531 265.879882812 c 6,41,-1
 1724.63964844 265.879882812 l 5,42,-1
 1724.63964844 0 l 5,43,-1
 1680.66015625 0 l 6,44,45
 1501 0 1501 0 1411.28417969 92.337890625 c 5,0,1
EndSplineSet
EndChar

StartChar: uniFEBA
Encoding: 65210 65210 196
Width: 2526
VWidth: 2181
GlyphClass: 2
Flags: W
AnchorPoint: "Anchor-10" 676 1029.5 basechar 0
AnchorPoint: "Anchor-7" 463 -625.5 basechar 0
LayerCount: 2
Fore
SplineSet
1582.60449219 275.337890625 m 5,0,-1
 1657.20996094 275.337890625 l 6,1,2
 2035.04394531 275.329101562 2035.04394531 275.329101562 2091.97949219 369.446289062 c 4,3,4
 2115.28808594 407.811523438 2115.28808594 407.811523438 2115.28808594 437.6015625 c 132,-1,5
 2115.28808594 467.391601562 2115.28808594 467.391601562 2098.54394531 490.329101562 c 4,6,7
 2061.57714844 540.96875 2061.57714844 540.96875 1985.50292969 540.96875 c 4,8,9
 1954.39746094 540.96875 1954.39746094 540.96875 1916.75292969 532.501953125 c 4,10,11
 1787.04394531 503.329101562 1787.04394531 503.329101562 1582.60449219 275.337890625 c 5,0,-1
704.713867188 -488.248046875 m 0,12,13
 266 -491 266 -491 129.716796875 -176.459960938 c 0,14,15
 62 -20 62 -20 93.70703125 195.7109375 c 0,16,17
 113.750978347 335.266195729 113.750978347 335.266195729 174.983398438 472.5390625 c 2,18,-1
 191.75390625 510.135742188 l 1,19,-1
 425.6640625 429.836914062 l 1,20,-1
 407.428710938 385.637695312 l 2,21,22
 335 210 335 210 335.125976562 78.2041015625 c 0,23,24
 334 -93 334 -93 443.6484375 -171.586914062 c 0,25,26
 531 -235 531 -235 707.895019531 -235.232910156 c 0,27,28
 884 -235 884 -235 975.65234375 -164.821289062 c 0,29,30
 1067 -94 1067 -94 1085.49316406 53.9677734375 c 0,31,32
 1110.00617148 249.049114368 1110.00617148 249.049114368 988.286132812 404.719726562 c 2,33,-1
 963.140625 436.87890625 l 1,34,-1
 1178.61230469 642.0234375 l 1,35,-1
 1203.66210938 581.291015625 l 2,36,37
 1240 494 1240 494 1297.78808594 352.958984375 c 0,38,39
 1304 337 1304 337 1317.13964844 330.16015625 c 1,40,41
 1706 855 1706 855 2068.92773438 792.905273438 c 0,42,43
 2143 780 2143 780 2214.46057613 737.650408757 c 0,44,45
 2286 695 2286 695 2326.57519531 618.979492188 c 0,46,47
 2397 487 2397 487 2352.17675781 327.383789062 c 1,48,49
 2413.28373579 264.708984375 2413.28373579 264.708984375 2500.55371094 264.708984375 c 2,50,-1
 2536.84375 264.708984375 l 1,51,-1
 2536.84375 -0.1708984375 l 1,52,-1
 2479.13085938 -0.1708984375 l 2,53,54
 2294 -0 2294 -0 2190.90722656 111.698242188 c 1,55,56
 2029.40467204 -1.71582182855 2029.40467204 -1.71582182855 1672.8515625 -0.6708984375 c 2,57,-1
 1443.92480469 0 l 2,58,59
 1371 0 1371 0 1315.23632812 34.046875 c 1,60,61
 1279 -348 1279 -348 949.361328125 -452.297851562 c 0,62,63
 841 -486 841 -486 704.713867188 -488.248046875 c 0,12,13
EndSplineSet
EndChar

StartChar: uniFEBB
Encoding: 65211 65211 197
Width: 1668
VWidth: 2181
GlyphClass: 2
Flags: W
AnchorPoint: "Anchor-10" 551.3 1117.8 basechar 0
AnchorPoint: "Anchor-7" 670.3 -205 basechar 0
LayerCount: 2
Fore
SplineSet
791.560546875 276.008789062 m 5,0,-1
 866.166015625 276.008789062 l 6,1,2
 1244 276 1244 276 1300.93554688 370.1171875 c 4,3,4
 1324.24428652 408.482681592 1324.24428652 408.482681592 1324.24428652 438.272651398 c 132,-1,5
 1324.24428652 468.062621204 1324.24428652 468.062621204 1307.5 491 c 4,6,7
 1270.53305007 541.639657438 1270.53305007 541.639657438 1194.45938943 541.639657438 c 4,8,9
 1163.35327994 541.639657438 1163.35327994 541.639657438 1125.70873182 533.172970104 c 4,10,11
 996 504 996 504 791.560546875 276.008789062 c 5,0,-1
526.928710938 332.104492188 m 1,12,13
 872 800 872 800 1202 800 c 0,14,15
 1320 800 1320 800 1415.640625 743.185546875 c 0,16,17
 1577 647 1577 647 1576.50563189 441.696390465 c 0,18,19
 1577 236 1577 236 1408.61572266 118.046386719 c 0,20,21
 1239 -1 1239 -1 888.373271173 -0.0102333304913 c 0,22,23
 885 -0 885 -0 881.798828125 0 c 2,24,-1
 665.806640625 0.6708984375 l 2,25,26
 458 1 458 1 346.836914062 126.58203125 c 1,27,28
 228 0 228 0 63.990234375 0 c 2,29,-1
 -10.400390625 0 l 1,30,-1
 -10.400390625 264.983398438 l 1,31,-1
 5.7197265625 264.979492188 l 2,32,33
 218.943512126 264.999994568 218.943512126 264.999994568 225.241210938 435.036132812 c 2,34,-1
 232.352539062 627.040039062 l 1,35,-1
 471.169921875 627.040039062 l 1,36,-1
 479.489257812 414.0625 l 2,37,38
 482 352 482 352 526.928710938 332.104492188 c 1,12,13
EndSplineSet
EndChar

StartChar: uniFEBC
Encoding: 65212 65212 198
Width: 1735
VWidth: 2181
GlyphClass: 2
Flags: W
AnchorPoint: "Anchor-10" 583.5 1182.5 basechar 0
AnchorPoint: "Anchor-7" 669.5 -212 basechar 0
LayerCount: 2
Fore
SplineSet
791.560546875 276.008789062 m 1,0,-1
 866.166015625 276.008789062 l 2,1,2
 1244 276 1244 276 1300.93554688 370.1171875 c 0,3,4
 1324.24428652 408.482681592 1324.24428652 408.482681592 1324.24428652 438.272651398 c 128,-1,5
 1324.24428652 468.062621204 1324.24428652 468.062621204 1307.5 491 c 0,6,7
 1270.53305007 541.639657438 1270.53305007 541.639657438 1194.45938943 541.639657438 c 0,8,9
 1163.35327994 541.639657438 1163.35327994 541.639657438 1125.70873182 533.172970104 c 0,10,11
 996 504 996 504 791.560546875 276.008789062 c 1,0,-1
1688.17675781 0.5 m 2,12,13
 1501.54460738 0.5 1501.54460738 0.5 1399.25292969 112.811523438 c 1,14,15
 1231.87130336 -1.08757491153 1231.87130336 -1.08757491153 881.798828125 0 c 2,16,-1
 665.84765625 0.6708984375 l 2,17,18
 458 1 458 1 346.82421875 126.568359375 c 1,19,20
 228 0 228 0 63.990234375 0 c 2,21,-1
 -10.400390625 0 l 5,22,-1
 -10.400390625 264.98046875 l 5,23,-1
 5.130859375 264.98046875 l 2,24,25
 218.943443823 264.999994835 218.943443823 264.999994835 225.245117188 435.142578125 c 2,26,-1
 232.352539062 627.040039062 l 1,27,-1
 471.169921875 627.040039062 l 1,28,-1
 479.489257812 414.051757812 l 2,29,30
 482 352 482 352 526.927734375 332.102539062 c 1,31,32
 872 800 872 800 1202 800 c 0,33,34
 1320 800 1320 800 1407.24414062 748.175292969 c 0,35,36
 1575 648 1575 648 1576.69921875 444.98046875 c 0,37,38
 1577 384 1577 384 1561.10351562 327.86328125 c 1,39,40
 1620.63804554 265.379882812 1620.63804554 265.379882812 1709.50976562 265.379882812 c 2,41,-1
 1745.79980469 265.379882812 l 1,42,-1
 1745.79980469 0.5 l 1,43,-1
 1688.17675781 0.5 l 2,12,13
EndSplineSet
EndChar

StartChar: uniFEC2
Encoding: 65218 65218 204
Width: 1616
VWidth: 2181
GlyphClass: 2
Flags: W
AnchorPoint: "Anchor-7" 708.13 -177 basechar 0
AnchorPoint: "Anchor-10" 352.67 1527.79 basechar 0
LayerCount: 2
Fore
SplineSet
670.560546875 276.008789062 m 1,0,-1
 745.166015625 276.008789062 l 2,1,2
 1123 276 1123 276 1179.93554688 370.1171875 c 0,3,4
 1203.24414062 408.482421875 1203.24414062 408.482421875 1203.24414062 438.272460938 c 128,-1,5
 1203.24414062 468.0625 1203.24414062 468.0625 1186.5 491 c 0,6,7
 1149.53320312 541.639648438 1149.53320312 541.639648438 1073.45898438 541.639648438 c 0,8,9
 1042.35351562 541.639648438 1042.35351562 541.639648438 1004.70898438 533.172851562 c 0,10,11
 875 504 875 504 670.560546875 276.008789062 c 1,0,-1
473.071289062 418.844726562 m 1,12,13
 783 800 783 800 1081 800 c 0,14,15
 1199 800 1199 800 1286.24462891 748.175292969 c 0,16,17
 1454 648 1454 648 1455.69921875 444.975585938 c 0,18,19
 1456 382 1456 382 1439.91601562 325.595703125 c 1,20,21
 1497.6358635 265.379882812 1497.6358635 265.379882812 1590.50976562 265.379882812 c 2,22,-1
 1626.79980469 265.379882812 l 1,23,-1
 1626.79980469 0.5 l 1,24,-1
 1569.17480469 0.5 l 2,25,26
 1377 0 1377 0 1275.28222656 110.057617188 c 1,27,28
 1110 0 1110 0 760.948242188 0 c 2,29,-1
 91.75 0 l 1,30,-1
 91.75 264.977539062 l 1,31,-1
 257.665039062 264.979492188 l 1,32,-1
 217.189453125 1377.05957031 l 1,33,-1
 473.165039062 1478.56152344 l 1,34,-1
 473.071289062 418.844726562 l 1,12,13
EndSplineSet
EndChar

StartChar: uniFEC3
Encoding: 65219 65219 205
Width: 1434
VWidth: 2181
GlyphClass: 2
Flags: W
AnchorPoint: "Anchor-10" 213.57 1532.47 basechar 0
AnchorPoint: "Anchor-7" 543.57 -190 basechar 0
LayerCount: 2
Fore
SplineSet
557.48828125 276.008789062 m 1,0,-1
 632.09375 276.008789062 l 2,1,2
 1009.92773438 276 1009.92773438 276 1066.86328125 370.1171875 c 0,3,4
 1090.171875 408.482421875 1090.171875 408.482421875 1090.171875 438.272460938 c 128,-1,5
 1090.171875 468.0625 1090.171875 468.0625 1073.42773438 491 c 0,6,7
 1036.4609375 541.639648438 1036.4609375 541.639648438 960.38671875 541.639648438 c 0,8,9
 929.28125 541.639648438 929.28125 541.639648438 891.63671875 533.172851562 c 0,10,11
 761.927734375 504 761.927734375 504 557.48828125 276.008789062 c 1,0,-1
360.071289062 418.844726562 m 1,12,13
 670 800 670 800 968 800 c 0,14,15
 1132 800 1132 800 1238.86816406 700.430664062 c 0,16,17
 1341 605 1341 605 1341.96875 442.272460938 c 0,18,19
 1343 238 1343 238 1175.18871249 119.088966173 c 0,20,21
 1007 0 1007 0 647.948242188 0 c 2,22,-1
 -10.25 0 l 1,23,-1
 -10.25 264.978515625 l 1,24,-1
 144.666015625 264.98046875 l 1,25,-1
 104.189453125 1377.05957031 l 1,26,-1
 360.165039062 1478.56152344 l 1,27,-1
 360.071289062 418.844726562 l 1,12,13
EndSplineSet
EndChar

StartChar: uniFEC4
Encoding: 65220 65220 206
Width: 1510
VWidth: 2181
GlyphClass: 2
Flags: W
AnchorPoint: "Anchor-10" 233.27 1521.79 basechar 0
AnchorPoint: "Anchor-7" 591.73 -162 basechar 0
LayerCount: 2
Fore
SplineSet
564.345703125 276.008789062 m 1,0,-1
 638.951171875 276.008789062 l 2,1,2
 1016.78515625 276 1016.78515625 276 1073.72070312 370.1171875 c 0,3,4
 1097.02929688 408.482421875 1097.02929688 408.482421875 1097.02929688 438.272460938 c 128,-1,5
 1097.02929688 468.0625 1097.02929688 468.0625 1080.28515625 491 c 0,6,7
 1043.31835938 541.639648438 1043.31835938 541.639648438 967.244140625 541.639648438 c 0,8,9
 936.138671875 541.639648438 936.138671875 541.639648438 898.494140625 533.172851562 c 0,10,11
 768.78515625 504 768.78515625 504 564.345703125 276.008789062 c 1,0,-1
367.071289062 418.844726562 m 1,12,13
 677 800 677 800 975 800 c 0,14,15
 1139 800 1139 800 1245.79003906 700.6484375 c 0,16,17
 1371 584 1371 584 1345.796875 383.298828125 c 0,18,19
 1342 353 1342 353 1333.91601562 325.595703125 c 1,20,21
 1391.6358635 265.379882812 1391.6358635 265.379882812 1484.50976562 265.379882812 c 2,22,-1
 1520.79980469 265.379882812 l 1,23,-1
 1520.79980469 0.5 l 1,24,-1
 1463.17480469 0.5 l 2,25,26
 1271 0 1271 0 1169.28222656 110.057617188 c 1,27,28
 1004 0 1004 0 654.948242188 0 c 2,29,-1
 -10.25 0 l 1,30,-1
 -10.25 264.978515625 l 1,31,-1
 151.666015625 264.98046875 l 1,32,-1
 111.189453125 1377.05957031 l 1,33,-1
 367.165039062 1478.56152344 l 1,34,-1
 367.071289062 418.844726562 l 1,12,13
EndSplineSet
EndChar

StartChar: uniFECA
Encoding: 65226 65226 212
Width: 1244
VWidth: 2181
GlyphClass: 2
Flags: W
AnchorPoint: "Anchor-10" 537 1181.05 basechar 0
AnchorPoint: "Anchor-7" 401.69 -717.64 basechar 0
LayerCount: 2
Fore
SplineSet
1147.18261719 -552.93359375 m 6,0,1
 955.784179688 -612 955.784179688 -612 765.698242188 -612.0234375 c 4,2,3
 360 -612 360 -612 199.818359375 -423.08203125 c 4,4,5
 91 -294 91 -294 91 -100.4140625 c 4,6,7
 91 94 91 94 206.672851562 239.788085938 c 4,8,9
 292 348 292 348 410.54296875 425.153320312 c 5,10,11
 138 568 138 568 148.962890625 731.661132812 c 4,12,13
 157 856 157 856 323.51171875 932.392578125 c 4,14,15
 490 1009 490 1009 789.4453125 979.0234375 c 4,16,17
 991 958 991 958 1057.86035156 828.154296875 c 4,18,19
 1163 624 1163 624 828.23046875 419.283203125 c 5,20,21
 1015.53808594 265.379882812 1015.53808594 265.379882812 1200.5 265.379882812 c 6,22,-1
 1254.70019531 265.379882812 l 5,23,-1
 1254.70019531 0.5 l 5,24,-1
 1228.65917969 0.5 l 6,25,26
 897 0 897 0 614.321289062 283.078125 c 5,27,28
 347 134 347 134 347.080078125 -87.1708984375 c 4,29,30
 347 -211 347 -211 440.016601562 -286.33203125 c 4,31,32
 533 -362 533 -362 784.88671875 -362.520507812 c 4,33,34
 929.672851562 -362.999023438 929.672851562 -362.999023438 1068.41308594 -323.1015625 c 6,35,-1
 1108.57324219 -311.552734375 l 5,36,-1
 1192.59863281 -538.91796875 l 5,37,-1
 1147.18261719 -552.93359375 l 6,0,1
402.24609375 704.483398438 m 5,38,39
 456.991210938 644.936523438 456.991210938 644.936523438 633.973632812 559.493164062 c 5,40,41
 798.680664062 637.015625 798.680664062 637.015625 840.435546875 700.860351562 c 5,42,43
 835.412109375 718.790039062 835.412109375 718.790039062 770.547851562 730.897460938 c 132,-1,44
 705.682617188 743.004882812 705.682617188 743.004882812 655.501953125 743.001953125 c 132,-1,45
 605.3203125 742.999023438 605.3203125 742.999023438 579.111328125 741.543945312 c 132,-1,46
 552.90234375 740.08984375 552.90234375 740.08984375 529.642578125 737.295898438 c 132,-1,47
 506.383789062 734.501953125 506.383789062 734.501953125 485.392578125 730.376953125 c 4,48,49
 431.57421875 719.80078125 431.57421875 719.80078125 402.24609375 704.483398438 c 5,38,39
EndSplineSet
EndChar

StartChar: uniFECB
Encoding: 65227 65227 213
Width: 1068
VWidth: 2181
GlyphClass: 2
Flags: W
AnchorPoint: "Anchor-10" 376.265 1264.23 basechar 0
AnchorPoint: "Anchor-7" 501.6 -197.5 basechar 0
LayerCount: 2
Fore
SplineSet
943.224609375 105.399414062 m 2,0,1
 533.900819149 -0.0263745030816 533.900819149 -0.0263745030816 327.354492188 -0.015625 c 2,2,-1
 -10.400390625 0.001953125 l 1,3,-1
 -10.400390625 264.98046875 l 1,4,-1
 41.3251953125 264.98046875 l 2,5,6
 110 265 110 265 151.032226562 264.98828125 c 1,7,8
 82 369 82 369 82.2314453125 488.06640625 c 0,9,10
 82 657 82 657 181.780273438 775.62890625 c 0,11,12
 302 918 302 918 519.454064201 919.725232987 c 0,13,14
 736.939966652 920.999648219 736.939966652 920.999648219 892.418945312 775.078125 c 2,15,-1
 916.264648438 752.698242188 l 1,16,-1
 823.185546875 554.885742188 l 1,17,-1
 780.143554688 581.994140625 l 2,18,19
 653 662 653 662 536.395507812 661.96484375 c 0,20,21
 399 662 399 662 346 578 c 4,22,23
 323 542 323 542 322.65625 476.947265625 c 0,24,25
 322 370 322 370 447.727539062 279.40234375 c 1,26,27
 479.642352914 265.159608413 479.642352914 265.159608413 626.586914062 293.641601562 c 2,28,-1
 977 361.561523438 l 1,29,-1
 977 114.098632812 l 1,30,-1
 943.224609375 105.399414062 l 2,0,1
EndSplineSet
EndChar

StartChar: uniFECC
Encoding: 65228 65228 214
Width: 1018
VWidth: 2181
GlyphClass: 2
Flags: W
AnchorPoint: "Anchor-10" 460.58 1116.5 basechar 0
AnchorPoint: "Anchor-7" 496.58 -152.5 basechar 0
LayerCount: 2
Fore
SplineSet
283.540039062 590.42578125 m 1,0,1
 327.393942566 534.251962397 327.393942566 534.251962397 521.698242188 440.094726562 c 1,2,3
 592.357421875 473.23046875 592.357421875 473.23046875 655.666015625 518.165527344 c 128,-1,4
 718.974609375 563.100585938 718.974609375 563.100585938 728.08203125 579.942382812 c 1,5,6
 722.651616856 607.511377194 722.651616856 607.511377194 595.791015625 619.676757812 c 0,7,8
 465.410122827 632.176299682 465.410122827 632.176299682 381.832991101 617.319595153 c 128,-1,9
 298.255859375 602.462890625 298.255859375 602.462890625 283.540039062 590.42578125 c 1,0,1
732.205078125 309.971679688 m 1,10,11
 834 266 834 266 964.149414062 264.982421875 c 6,12,-1
 1028.55957031 265.65234375 l 1,13,-1
 1028.55957031 0.5 l 1,14,-1
 934.715820312 0.5 l 2,15,16
 686 0 686 0 517.388671875 147.322265625 c 1,17,18
 341 0 341 0 92.8603515625 0 c 2,19,-1
 -10.400390625 0 l 1,20,-1
 -10.400390625 264.98046875 l 1,21,-1
 69.31640625 264.98046875 l 2,22,23
 212 265 212 265 302.549804688 304.306640625 c 1,24,25
 6.50604388107 455.232206333 6.50604388107 455.232206333 47.0927734375 647.181640625 c 0,26,27
 82.6990325196 815.57661511 82.6990325196 815.57661511 342.493164062 857.409179688 c 0,28,29
 489 881 489 881 682.35058892 859.994758826 c 0,30,31
 876 839 876 839 944.963867188 709.47265625 c 0,32,33
 970 662 970 662 969.725585938 611.94140625 c 0,34,35
 970 459 970 459 732.205078125 309.971679688 c 1,10,11
EndSplineSet
EndChar

StartChar: uniFEDA
Encoding: 65242 65242 228
Width: 1891
VWidth: 2181
GlyphClass: 2
Flags: W
AnchorPoint: "Anchor-10" 587 1415.5 basechar 0
AnchorPoint: "Anchor-7" 618 -180.5 basechar 0
LayerCount: 2
Fore
SplineSet
1730.29980469 454.29296875 m 1,0,1
 1729 373 1729 373 1710.87304688 308.357421875 c 1,2,3
 1758.5783282 265.379882812 1758.5783282 265.379882812 1871.96972656 265.379882812 c 2,4,-1
 1901.21972656 265.379882812 l 5,5,-1
 1901.21972656 0.5 l 5,6,-1
 1860.19335938 0.5 l 2,7,8
 1668 0 1668 0 1558.15917969 110.716796875 c 1,9,10
 1349 -0 1349 -0 954.137754289 0.250539174906 c 0,11,12
 559 1 559 1 410.194335938 64.681640625 c 0,13,14
 115 189 115 189 90.1767578125 480.64453125 c 0,15,16
 77.9979283217 620.023709078 77.9979283217 620.023709078 119.365234375 766.631835938 c 2,17,-1
 131.37890625 809.208984375 l 1,18,-1
 347.61328125 752.154296875 l 1,19,-1
 341.313476562 712.026367188 l 2,20,21
 320 576 320 576 322.483398438 525.538085938 c 0,22,23
 328 422 328 422 395.211914062 360.88671875 c 0,24,25
 463 300 463 300 605.866210938 278.8515625 c 0,26,27
 679 268 679 268 876 267.5 c 128,-1,28
 1073 267 1073 267 1211 274 c 128,-1,29
 1349 281 1349 281 1428.22438242 325.626258819 c 128,-1,30
 1507.44878897 370.252799611 1507.44878897 370.252799611 1513.69238281 443.194335938 c 2,31,-1
 1517.34472656 485.86328125 l 1,32,-1
 1476.1640625 1354.24804688 l 1,33,-1
 1730.29980469 1478.9921875 l 1,34,-1
 1730.29980469 454.29296875 l 1,0,1
741.032226562 815.202148438 m 2,35,36
 802.032145182 807.158203125 802.032145182 807.158203125 868.889522578 807.158203125 c 128,-1,37
 935.746899974 807.158203125 935.746899974 807.158203125 982.678710938 841.119140625 c 0,38,39
 1010.68874541 861.389366698 1010.68874541 861.389366698 991.328341554 879.897264398 c 0,40,41
 983.494635123 887.386025393 983.494635123 887.386025393 926.124270687 896.341938478 c 128,-1,42
 868.75390625 905.297851562 868.75390625 905.297851562 826.284179688 951.975585938 c 128,-1,43
 783.813476562 998.654296875 783.813476562 998.654296875 785.385742188 1071.01953125 c 0,44,45
 789.27278914 1228.01903724 789.27278914 1228.01903724 1018.54003906 1268.36621094 c 0,46,47
 1054.24902344 1274.65136719 1054.24902344 1274.65136719 1093.92285156 1277.16601562 c 2,48,-1
 1141.76953125 1280.19824219 l 1,49,-1
 1141.76953125 1132.53125 l 1,50,-1
 1100.08105469 1129.45507812 l 2,51,52
 977.873029024 1120.43593629 977.873029024 1120.43593629 938.595703125 1076.30078125 c 0,53,54
 907.586395149 1041.43870714 907.586395149 1041.43870714 1010.60546875 1026.28857422 c 0,55,56
 1065.57226562 1018.20507812 1065.57226562 1018.20507812 1108.31152344 982.228515625 c 128,-1,57
 1151.04980469 946.251953125 1151.04980469 946.251953125 1151.04980469 886.0390625 c 0,58,59
 1151.04980469 762.197971231 1151.04980469 762.197971231 1034.22412109 696.133165303 c 128,-1,60
 917.3984375 630.068359375 917.3984375 630.068359375 727.725585938 661.791015625 c 2,61,-1
 690.1484375 668.076171875 l 1,62,-1
 690.1484375 821.913085938 l 1,63,-1
 741.032226562 815.202148438 l 2,35,36
EndSplineSet
EndChar

StartChar: uniFEDB
Encoding: 65243 65243 229
Width: 947
VWidth: 2181
GlyphClass: 2
Flags: W
AnchorPoint: "Anchor-10" 209.5 1428 basechar 0
AnchorPoint: "Anchor-7" 308 -182 basechar 0
LayerCount: 2
Fore
SplineSet
665.607421875 304.521484375 m 0,0,1
 592 0 592 0 160.875 0 c 2,2,-1
 -10.400390625 0 l 1,3,-1
 -10.400390625 264.951171875 l 1,4,-1
 240.876953125 265.129882812 l 2,5,6
 418 265 418 265 437.848632812 364.590820312 c 0,7,8
 449.085654725 419.417922149 449.085654725 419.417922149 388.208984375 487.004882812 c 2,9,-1
 127.225585938 776.755859375 l 2,10,11
 26 889 26 889 22.6909179688 967.778808594 c 0,12,13
 16.9937286759 1118.16554197 16.9937286759 1118.16554197 161.575195312 1196.20898438 c 2,14,-1
 907.25 1598.71582031 l 5,15,-1
 907.25 1322.86132812 l 5,16,-1
 276.475585938 980.93359375 l 1,17,-1
 566.623046875 660.170898438 l 2,18,19
 713 499 713 499 665.607421875 304.521484375 c 0,0,1
EndSplineSet
EndChar

StartChar: uniFEDC
Encoding: 65244 65244 230
Width: 1029
VWidth: 2181
GlyphClass: 2
Flags: W
AnchorPoint: "Anchor-10" 209.5 1428 basechar 0
AnchorPoint: "Anchor-7" 320 -172 basechar 0
LayerCount: 2
Fore
SplineSet
636.04296875 206.01953125 m 1,0,1
 543 0 543 0 160.904296875 0 c 2,2,-1
 -10.400390625 0 l 1,3,-1
 -10.400390625 264.951171875 l 1,4,-1
 240.876953125 265.129882812 l 2,5,6
 418 265 418 265 437.84375 364.568359375 c 0,7,8
 449.085656473 419.41792021 449.085656473 419.41792021 388.208984375 487.004882812 c 2,9,-1
 127.225585938 776.755859375 l 2,10,11
 26 889 26 889 22.9287109375 967.979003906 c 0,12,13
 16.9934184541 1118.16654043 16.9934184541 1118.16654043 161.575195312 1196.20996094 c 2,14,-1
 907.25 1598.71582031 l 5,15,-1
 907.25 1322.86035156 l 5,16,-1
 276.36328125 980.873046875 l 1,17,-1
 851.184570312 342.790039062 l 2,18,19
 921.675760115 264.360752923 921.675760115 264.360752923 1012.53808594 265.291015625 c 2,20,-1
 1039.15039062 265.563476562 l 1,21,-1
 1039.15039062 0.5 l 1,22,-1
 982.484375 0.5 l 2,23,24
 815 0 815 0 636.04296875 206.01953125 c 1,0,1
EndSplineSet
EndChar

StartChar: uniFEDE
Encoding: 65246 65246 232
Width: 1461
VWidth: 2181
GlyphClass: 2
Flags: W
AnchorPoint: "Anchor-10" 533.5 973.5 basechar 0
AnchorPoint: "Anchor-7" 483.974 -681.619 basechar 0
LayerCount: 2
Fore
SplineSet
1225.03125 42.56640625 m 1,0,1
 1129 -397 1129 -397 683.4140625 -399.99609375 c 0,2,3
 380 -402 380 -402 209.383789062 -223.002929688 c 0,4,5
 83 -90 83 -90 90.484375 127.51171875 c 128,-1,6
 98.0036920979 345.106842481 98.0036920979 345.106842481 183.6796875 548.336914062 c 2,7,-1
 199.424804688 585.685546875 l 1,8,-1
 433.952148438 514.533203125 l 1,9,-1
 414.4375 468.452148438 l 2,10,11
 334 279 334 279 333.500976562 139.786132812 c 0,12,13
 333 -1 333 -1 405.918945312 -65.38671875 c 0,14,15
 506 -155 506 -155 702.78515625 -152.956054688 c 0,16,17
 848 -151 848 -151 931.734375 -64.6318359375 c 0,18,19
 1033.00769231 39.007872049 1033.00769231 39.007872049 1031.54101562 254.4921875 c 2,20,-1
 1029.91503906 493.380859375 l 1,21,-1
 997.862304688 1373.66601562 l 5,22,-1
 1251.75976562 1478.86230469 l 5,23,-1
 1252.28027344 446.28515625 l 2,24,25
 1252 348 1252 348 1290.32617188 306.689453125 c 128,-1,26
 1328.64759618 265.379882812 1328.64759618 265.379882812 1417.71972656 265.379882812 c 2,27,-1
 1470.96972656 265.379882812 l 1,28,-1
 1470.96972656 0.5 l 1,29,-1
 1430.95117188 0.5 l 2,30,31
 1275 0 1275 0 1225.03125 42.56640625 c 1,0,1
EndSplineSet
EndChar

StartChar: uniFEDF
Encoding: 65247 65247 233
Width: 575
VWidth: 2181
GlyphClass: 2
Flags: W
AnchorPoint: "Anchor-10" 300.73 1521 basechar 0
AnchorPoint: "Anchor-7" 233.73 -146.5 basechar 0
LayerCount: 2
Fore
SplineSet
444.169921875 484.690429688 m 2,0,1
 444.169921875 235.188125532 444.169921875 235.188125532 337.715332031 117.329101562 c 0,2,3
 231 0 231 0 64.7001953125 0 c 2,4,-1
 -10.400390625 0 l 1,5,-1
 -10.400390625 264.98046875 l 1,6,-1
 15.8427734375 264.98046875 l 2,7,8
 238.7322536 264.999976566 238.7322536 264.999976566 228.328125 495.616210938 c 2,9,-1
 189.021484375 1366.88085938 l 1,10,-1
 444.169921875 1478.39257812 l 5,11,-1
 444.169921875 484.690429688 l 2,0,1
EndSplineSet
EndChar

StartChar: uniFEE0
Encoding: 65248 65248 234
Width: 621
VWidth: 2181
GlyphClass: 2
Flags: W
AnchorPoint: "Anchor-10" 280.73 1519 basechar 0
AnchorPoint: "Anchor-7" 246.73 -196.5 basechar 0
LayerCount: 2
Fore
SplineSet
290.465820312 89.8134765625 m 1,0,1
 193 0 193 0 83.7001953125 0 c 2,2,-1
 -10.400390625 0 l 5,3,-1
 -10.400390625 264.98046875 l 5,4,-1
 25.322265625 264.98046875 l 2,5,6
 210.239476124 265.000025327 210.239476124 265.000025327 202.326171875 446.444335938 c 2,7,-1
 162.041992188 1370.12109375 l 1,8,-1
 416.169921875 1478.65332031 l 1,9,-1
 416.169921875 448.2734375 l 2,10,11
 416 349 416 349 458.30859375 307.075195312 c 0,12,13
 501.019817294 264.98046875 501.019817294 264.98046875 597.610351562 264.98046875 c 2,14,-1
 631.860351562 264.98046875 l 1,15,-1
 631.860351562 0 l 1,16,-1
 538.759765625 0 l 2,17,18
 396 0 396 0 290.465820312 89.8134765625 c 1,0,1
EndSplineSet
EndChar

StartChar: uniFEE2
Encoding: 65250 65250 236
Width: 1165
VWidth: 2181
GlyphClass: 2
Flags: W
AnchorPoint: "Anchor-10" 591.5 1039 basechar 0
AnchorPoint: "Anchor-7" 229.188 -710.422 basechar 0
LayerCount: 2
Fore
SplineSet
549.071289062 415.752929688 m 1,0,1
 561.283124402 253.351525936 561.283124402 253.351525936 649.720703125 190.639648438 c 0,2,3
 701.470372197 153.866357159 701.470372197 153.866357159 762.616210938 172.682617188 c 0,4,5
 792.919902274 182.11029325 792.919902274 182.11029325 799.455556606 245.333955219 c 128,-1,6
 805.991210938 308.557617188 805.991210938 308.557617188 798.995605469 359.278808594 c 132,-1,7
 792 410 792 410 778.671875 430.6015625 c 0,8,9
 752.638135267 472.753982481 752.638135267 472.753982481 654.229492188 456.250976562 c 0,10,11
 597.049250808 446.661921857 597.049250808 446.661921857 549.071289062 415.752929688 c 1,0,1
1134.44726562 0.7099609375 m 2,12,13
 1026.44653548 0.7099609375 1026.44653548 0.7099609375 959.754882812 44.0283203125 c 1,14,15
 889 -82 889 -82 710.6484375 -75.001953125 c 0,16,17
 642 -72 642 -72 580.692382812 -48.0751953125 c 0,18,19
 375 35 375 35 334.688476562 294.301757812 c 1,20,21
 295.561747673 223.203641195 295.561747673 223.203641195 305.354492188 70.16015625 c 2,22,-1
 344.385742188 -539.830078125 l 1,23,-1
 90.9140625 -666.703125 l 1,24,-1
 90.9140625 126.526367188 l 2,25,26
 91 416 91 416 283.648925781 554.677734375 c 0,27,28
 476 694 476 694 700.024414062 696.677734375 c 0,29,30
 827 698 827 698 908.833984375 632.915039062 c 0,31,32
 991 567 991 567 1016.33691406 443.4453125 c 0,33,34
 1028 390 1028 390 1036.55957031 308.39453125 c 1,35,36
 1071.27471438 265.661839662 1071.27471438 265.661839662 1148.75683594 264.712890625 c 2,37,-1
 1174.99023438 264.391601562 l 5,38,-1
 1174.99023438 0.7099609375 l 5,39,-1
 1134.44726562 0.7099609375 l 2,12,13
EndSplineSet
EndChar

StartChar: uniFEE3
Encoding: 65251 65251 237
Width: 959
VWidth: 2181
GlyphClass: 2
Flags: W
AnchorPoint: "Anchor-10" 383.69 1018.5 basechar 0
AnchorPoint: "Anchor-7" 347.69 -161.5 basechar 0
LayerCount: 2
Fore
SplineSet
823.171875 508.833007812 m 4,0,1
 896.495411403 320.766532765 896.495411403 320.766532765 858 183.5 c 4,2,3
 820 48 820 48 721 -7 c 132,-1,4
 622 -62 622 -62 487 -36.5 c 132,-1,5
 352 -11 352 -11 257.594726562 68.3447265625 c 5,6,7
 183 0 183 0 38.98046875 0 c 6,8,-1
 -11.400390625 0 l 5,9,-1
 -11.400390625 264.978515625 l 5,10,-1
 53.9462890625 264.978515625 l 6,11,12
 87 265 87 265 112 300 c 4,13,14
 139.760407819 338.864570947 139.760407819 338.864570947 172.433105469 422.855957031 c 4,15,16
 219 542 219 542 248.5 590 c 4,17,18
 360 769 360 769 532.140625 760.12109375 c 4,19,20
 610.024575756 756.151646018 610.024575756 756.151646018 659.606445312 724.4296875 c 4,21,22
 765 658 765 658 823.171875 508.833007812 c 4,0,1
362.369140625 285.482421875 m 5,23,24
 389 256 389 256 462.549804688 222.014648438 c 4,25,26
 570 174 570 174 617.369140625 236.360351562 c 4,27,28
 663.327673272 296.428269793 663.327673272 296.428269793 605 416 c 4,29,30
 565 498 565 498 516.517578125 498.875976562 c 4,31,32
 476.811481308 500.464700575 476.811481308 500.464700575 427 420 c 4,33,34
 387.115291229 357.513956259 387.115291229 357.513956259 362.369140625 285.482421875 c 5,23,24
EndSplineSet
EndChar

StartChar: uniFEE4
Encoding: 65252 65252 238
Width: 1021
VWidth: 2181
GlyphClass: 2
Flags: W
AnchorPoint: "Anchor-10" 435.79 984.5 basechar 0
AnchorPoint: "Anchor-7" 399.79 -170.5 basechar 0
LayerCount: 2
Fore
SplineSet
362.369140625 285.482421875 m 1,0,1
 389 256 389 256 462.549804688 222.014648438 c 0,2,3
 570 174 570 174 617.369140625 236.360351562 c 0,4,5
 663.327673272 296.428269793 663.327673272 296.428269793 605 416 c 0,6,7
 565 498 565 498 516.517578125 498.875976562 c 0,8,9
 476.811481308 500.464700575 476.811481308 500.464700575 427 420 c 0,10,11
 387.115291229 357.513956259 387.115291229 357.513956259 362.369140625 285.482421875 c 1,0,1
852.783203125 416.241210938 m 24,12,13
 893 265 893 265 998.280273438 265.08984375 c 2,14,-1
 1031.1796875 265.08984375 l 1,15,-1
 1031.1796875 0.2099609375 l 1,16,-1
 995.467773438 0.2099609375 l 2,17,18
 878.758150511 0.2099609375 878.758150511 0.2099609375 803.009765625 65.970703125 c 1,19,20
 769 20 769 20 721 -7 c 0,21,22
 622 -62 622 -62 487 -36.5 c 128,-1,23
 352 -11 352 -11 257.594726562 68.3447265625 c 1,24,25
 183 0 183 0 38.98046875 0 c 2,26,-1
 -11.400390625 0 l 1,27,-1
 -11.400390625 264.978515625 l 1,28,-1
 53.9462890625 264.978515625 l 2,29,30
 86.9846540179 264.978515625 86.9846540179 264.978515625 112 300 c 0,31,32
 140 339 140 339 172.433105469 422.855957031 c 0,33,34
 219 542 219 542 248.5 590 c 0,35,36
 358.55618534 769.074471061 358.55618534 769.074471061 532.140625 760.12109375 c 0,37,38
 610 756 610 756 659.606445312 724.4296875 c 0,39,40
 765 658 765 658 823.171875 508.833007812 c 0,41,42
 839 469 839 469 852.783203125 416.241210938 c 24,12,13
EndSplineSet
EndChar

StartChar: uniFEEA
Encoding: 65258 65258 244
Width: 1125
VWidth: 2181
GlyphClass: 2
Flags: W
AnchorPoint: "Anchor-10" 643.95 1233.81 basechar 0
AnchorPoint: "Anchor-7" 442.88 -138 basechar 0
LayerCount: 2
Fore
SplineSet
692.982421875 471.684570312 m 1,0,1
 682.978515625 569.87109375 682.978515625 569.87109375 671.86328125 649.54296875 c 1,2,3
 416.263749241 597.748219125 416.263749241 597.748219125 349.569335938 530.415039062 c 0,4,5
 338.659179688 519.399414062 338.659179688 519.399414062 336.672363281 503.540039062 c 128,-1,6
 334.685546875 487.680664062 334.685546875 487.680664062 341.642578125 478.791992188 c 128,-1,7
 348.599609375 469.903320312 348.599609375 469.903320312 377.810546875 464.12890625 c 0,8,9
 483.241210938 442.873046875 483.241210938 442.873046875 692.982421875 471.684570312 c 1,0,1
641.56640625 878.213867188 m 1,10,11
 638.894433067 904.019556438 638.894433067 904.019556438 631.16796875 960.166015625 c 2,12,-1
 625.63671875 1000.36035156 l 1,13,-1
 864.041992188 1058.73144531 l 1,14,-1
 869.434570312 1007.47460938 l 2,15,16
 922 506 922 506 932.802734375 447.213867188 c 0,17,18
 943 392 943 392 947.059570312 376.729980469 c 0,19,20
 962.686726889 314.347223455 962.686726889 314.347223455 990 292 c 4,21,22
 1023 265 1023 265 1116.34863281 265 c 2,23,-1
 1135.25976562 264.934570312 l 1,24,-1
 1135.25976562 0 l 1,25,-1
 1095.33984375 0 l 2,26,27
 949 0 949 0 853.135742188 59.345703125 c 0,28,29
 757 119 757 119 724.741210938 235.12109375 c 1,30,31
 236 167 236 167 117.15625 389.083007812 c 0,32,33
 93 434 93 434 91.4780273438 499.628417969 c 0,34,35
 90 565 90 565 126.46875 625.344726562 c 0,36,37
 163 686 163 686 236.499023438 732.537109375 c 0,38,39
 378 823 378 823 641.56640625 878.213867188 c 1,10,11
EndSplineSet
EndChar

StartChar: uniFEEB
Encoding: 65259 65259 245
Width: 1196
VWidth: 2181
GlyphClass: 2
Flags: W
AnchorPoint: "Anchor-10" 558.801 1261.23 basechar 0
AnchorPoint: "Anchor-7" 382.542 -182.946 basechar 0
LayerCount: 2
Fore
SplineSet
758.236328125 449.299804688 m 1,0,1
 748 339 748 339 613 232 c 5,2,3
 784 164 784 164 848 218 c 0,4,5
 868 235 868 235 875.412597656 265.764648438 c 0,6,7
 889 328 889 328 758.236328125 449.299804688 c 1,0,1
383.953125 66.9501953125 m 1,8,9
 224 0 224 0 8.6298828125 0 c 2,10,-1
 -10.400390625 0 l 1,11,-1
 -10.400390625 264.98046875 l 1,12,-1
 49.7197265625 264.98046875 l 2,13,14
 52 265 52 265 82.44921875 265.247070312 c 1,15,16
 54 332 54 332 58.4711914062 430.075195312 c 128,-1,17
 63 528 63 528 127.827148438 629.834960938 c 0,18,19
 193 732 193 732 297.508789062 780.260742188 c 1,20,-1
 387.813476562 988.209960938 l 1,21,-1
 767.409179688 747.142578125 l 1,22,23
 1083.12297572 538.257006099 1083.12297572 538.257006099 1103.77929688 346.961914062 c 0,24,25
 1121 186 1121 186 1046.27734375 89.4775390625 c 0,26,27
 971 -7 971 -7 814.71484375 -24.1572265625 c 0,28,29
 634 -43 634 -43 383.953125 66.9501953125 c 1,8,9
542.896484375 568.556640625 m 0,30,31
 454 646 454 646 346 533 c 0,32,33
 300 485 300 485 294.267578125 427.092285156 c 0,34,35
 290 376 290 376 306.778320312 345.791992188 c 0,36,37
 324 315 324 315 372.57421875 295.36328125 c 1,38,39
 512 365 512 365 549.791992188 450.328125 c 0,40,41
 586 531 586 531 542.896484375 568.556640625 c 0,30,31
EndSplineSet
EndChar

StartChar: uniFEEC
Encoding: 65260 65260 246
Width: 914
VWidth: 2181
GlyphClass: 2
Flags: W
AnchorPoint: "Anchor-7" 276.88 -645.244 basechar 0
AnchorPoint: "Anchor-10" 416.76 1130.74 basechar 0
LayerCount: 2
Fore
SplineSet
353.432617188 265.428710938 m 1,0,1
 397 269 397 269 422.625 306.836914062 c 0,2,3
 478 393 478 393 477.913085938 510.297851562 c 0,4,5
 478 590 478 590 457.064453125 600.743164062 c 0,6,7
 453 603 453 603 442.643554688 603.06640625 c 0,8,9
 397 603 397 603 370.766113281 484.486328125 c 0,10,11
 345 366 345 366 353.432617188 265.428710938 c 1,0,1
522.360351562 63.7587890625 m 24,12,13
 673.19976836 256.254937606 673.19976836 256.254937606 908.05859375 264.333007812 c 2,14,-1
 924.639648438 264.903320312 l 1,15,-1
 924.639648438 0.677734375 l 1,16,-1
 821.859375 0 l 2,17,18
 724 -1 724 -1 651.708007812 -111.881835938 c 0,19,20
 573.203823677 -234.240945653 573.203823677 -234.240945653 519.13671875 -486.834960938 c 2,21,-1
 509.110351562 -533.676757812 l 1,22,-1
 465.180664062 -517.999023438 l 2,23,24
 189 -419 189 -419 151.861328125 0 c 1,25,-1
 -10.935546875 0 l 1,26,-1
 -10.935546875 264.96484375 l 1,27,-1
 145.8984375 265.323242188 l 1,28,29
 141 521 141 521 192.059570312 638.783203125 c 0,30,31
 271 823 271 823 443.868164062 821.92578125 c 0,32,33
 543 821 543 821 607.185546875 767.407226562 c 0,34,35
 701 689 701 689 700.915039062 535.55859375 c 0,36,37
 701 322 701 322 580.3203125 171.05078125 c 24,38,39
 498 68 498 68 371.22265625 0 c 1,40,41
 373 -86 373 -86 398.680664062 -148.086914062 c 1,42,43
 424 -63 424 -63 522.360351562 63.7587890625 c 24,12,13
EndSplineSet
EndChar

StartChar: uniFEEE
Encoding: 65262 65262 248
Width: 899
VWidth: 2181
GlyphClass: 2
Flags: W
AnchorPoint: "Anchor-10" 370 1107 basechar 0
AnchorPoint: "Anchor-7" 547.515 -566.238 basechar 0
LayerCount: 2
Fore
SplineSet
539.22265625 491.040039062 m 0,0,1
 523 510 523 510 499 516 c 0,2,3
 434 531 434 531 387.83203125 476.529296875 c 0,4,5
 342 423 342 423 340 356 c 0,6,7
 339 311 339 311 360 284 c 0,8,9
 384 253 384 253 443.8359375 251.440917969 c 0,10,11
 493 250 493 250 594.848632812 254.032226562 c 1,12,13
 590 431 590 431 539.22265625 491.040039062 c 0,0,1
573.139648438 1.1630859375 m 1,14,15
 532 1 532 1 465.825195312 1.2392578125 c 0,16,17
 266 1 266 1 176.504394531 104.23828125 c 0,18,19
 93 202 93 202 109.92578125 354.787109375 c 4,20,21
 131 549 131 549 242.807617188 655.678710938 c 0,22,23
 400 807 400 807 580.772460938 747.275390625 c 0,24,25
 698 709 698 709 756.998688533 587.814023298 c 0,26,27
 815 470 815 470 828.84765625 308.354492188 c 0,28,29
 831 284 831 284 832.479492188 265 c 1,30,-1
 909.66015625 265 l 1,31,-1
 909.66015625 0 l 1,32,-1
 814.907226562 0 l 1,33,34
 779 -171 779 -171 663.37109375 -305.323242188 c 0,35,36
 491.042192193 -505.950879278 491.042192193 -505.950879278 139.294921875 -506.138671875 c 2,37,-1
 110.028320312 -506.154296875 l 1,38,-1
 -2.1513671875 -288.696289062 l 1,39,-1
 66.7626953125 -284.506835938 l 2,40,41
 486 -259 486 -259 573.139648438 1.1630859375 c 1,14,15
EndSplineSet
EndChar

StartChar: uniFEF0
Encoding: 65264 65264 250
Width: 1487
VWidth: 2181
GlyphClass: 2
Flags: W
AnchorPoint: "Anchor-10" 594.857 511.69 basechar 0
AnchorPoint: "Anchor-7" 367.067 -687.505 basechar 0
LayerCount: 2
Fore
SplineSet
1497.88964844 265.348632812 m 1,0,-1
 1497.88964844 0.4833984375 l 1,1,-1
 1330.85742188 0.544921875 l 1,2,-1
 1181.47167969 0.04296875 l 1,3,4
 1343 -20 1343 -20 1383.28027344 -86.6845703125 c 0,5,6
 1410 -131 1410 -131 1410 -176.5 c 0,7,8
 1410 -276 1410 -276 1366 -359 c 0,9,10
 1307 -471 1307 -471 1174.61035156 -542.329101562 c 0,11,12
 983 -646 983 -646 705.265625 -644.469726562 c 0,13,14
 293 -643 293 -643 154.934570312 -393.544921875 c 0,15,16
 92 -279 92 -279 91.1337890625 -118.11328125 c 0,17,18
 91 141 91 141 265.103515625 399.25 c 1,19,-1
 478.30859375 303.624023438 l 1,20,21
 365.874959372 134.274274001 365.874959372 134.274274001 340.5 -13 c 4,22,23
 315 -161 315 -161 378.671875 -258.951171875 c 0,24,25
 462 -386 462 -386 730 -386 c 128,-1,26
 998 -386 998 -386 1121.79785156 -296.088867188 c 0,27,28
 1217 -227 1217 -227 1144.70507812 -224.982421875 c 0,29,30
 1025 -222 1025 -222 957.5 -160.5 c 128,-1,31
 890 -99 890 -99 889.891601562 12.7998046875 c 0,32,33
 890 78 890 78 923.734375 141.096679688 c 0,34,35
 990.810671471 265.648442099 990.810671471 265.648442099 1175.80859375 265.5390625 c 2,36,-1
 1497.88964844 265.348632812 l 1,0,-1
EndSplineSet
EndChar

StartChar: uniFEFB
Encoding: 65275 65275 261
Width: 1228
VWidth: 2181
GlyphClass: 3
Flags: W
AnchorPoint: "Anchor-9" 983.69 1552 baselig 0
AnchorPoint: "Anchor-6" 903.69 -171.5 baselig 0
AnchorPoint: "Anchor-6" 339.5 -216.908 baselig 1
AnchorPoint: "Anchor-9" 284.565 1484.7 baselig 1
LayerCount: 2
Fore
SplineSet
320.622070312 1313.578125 m 2,0,1
 558.635366411 860.121523791 558.635366411 860.121523791 659.76953125 271.69921875 c 1,2,3
 783 292 783 292 832.044921875 355.518554688 c 0,4,5
 891.714909893 431.636325994 891.714909893 431.636325994 884.342773438 573.282226562 c 2,6,-1
 841.794921875 1390.78320312 l 1,7,-1
 1097.16992188 1502.39160156 l 1,8,-1
 1097.16992188 562.66015625 l 2,9,10
 1097 271 1097 271 934.641601562 128.407226562 c 0,11,12
 775 -11 775 -11 378.904296875 3.501953125 c 0,13,14
 255.300929587 7.95315099312 255.300929587 7.95315099312 200.298828125 25.09765625 c 2,15,-1
 168.690429688 34.9501953125 l 1,16,-1
 168.690429688 292.670898438 l 1,17,-1
 226.408203125 275.665039062 l 2,18,19
 311 251 311 251 428.547851562 252.6484375 c 5,20,21
 349.734062591 749.677098844 349.734062591 749.677098844 109.8671875 1162.92871094 c 2,22,-1
 90.5517578125 1196.20605469 l 1,23,-1
 295.08203125 1362.23632812 l 1,24,-1
 320.622070312 1313.578125 l 2,0,1
EndSplineSet
LCarets2: 1 0
Ligature2: "'rlig' Required Ligatures in Arabic lookup 16 subtable" uniFEDF uniFE8E
EndChar

StartChar: uniFEFC
Encoding: 65276 65276 262
Width: 1228
VWidth: 2181
GlyphClass: 3
Flags: W
AnchorPoint: "Anchor-9" 938.69 1521 baselig 0
AnchorPoint: "Anchor-6" 930.69 -164.5 baselig 0
AnchorPoint: "Anchor-6" 295 -218 baselig 1
AnchorPoint: "Anchor-9" 171.5 1385.5 baselig 1
LayerCount: 2
Fore
SplineSet
654.888671875 310.73828125 m 5,0,1
 899 438 899 438 866.454101562 953.624023438 c 2,2,-1
 840.6875 1364.55761719 l 1,3,-1
 1095.12988281 1478.08984375 l 1,4,-1
 1095.12988281 680.481445312 l 2,5,6
 1095.12988281 392.870018671 1095.12988281 392.870018671 1185.12207031 302.809570312 c 0,7,8
 1223 265 1223 265 1286.58984375 265.379882812 c 2,9,-1
 1312.94042969 265.379882812 l 1,10,-1
 1312.94042969 0.5 l 1,11,-1
 1274.9609375 0.5 l 1,12,13
 1036 -1 1036 -1 939.405273438 261.318359375 c 1,14,15
 911 217 911 217 873.93359375 175.869140625 c 0,16,17
 718 2 718 2 402.2265625 0.5009765625 c 0,18,19
 298 -0 298 -0 205.719726562 17.4072265625 c 2,20,-1
 169.080078125 24.3349609375 l 1,21,-1
 169.080078125 285.198242188 l 1,22,-1
 223.458007812 273.611328125 l 2,23,24
 362.265702792 244.034019054 362.265702792 244.034019054 429.547851562 252.6484375 c 1,25,26
 351 749 351 749 110.8671875 1162.92871094 c 2,27,-1
 91.5517578125 1196.20605469 l 1,28,-1
 296.08203125 1362.23632812 l 1,29,-1
 321.622070312 1313.578125 l 2,30,31
 560.866685779 857.775646882 560.866685779 857.775646882 654.888671875 310.73828125 c 5,0,1
EndSplineSet
LCarets2: 1 0
Ligature2: "'rlig' Required Ligatures in Arabic lookup 16 subtable" uniFEE0 uniFE8E
EndChar

StartChar: arabic_dot
Encoding: 65536 -1 263
Width: 156
GlyphClass: 2
Flags: W
LayerCount: 2
Fore
SplineSet
113.942220337 195.781946537 m 2,0,-1
 192.442021841 117.28214503 l 2,1,2
 207.249660013 102.475092024 207.249660013 102.475092024 207.425522421 85.7167000292 c 128,-1,3
 207.60138483 68.9583080342 207.60138483 68.9583080342 192.942161562 54.2179946881 c 2,4,-1
 110.942292485 -27.7818743868 l 2,5,6
 95.2922525941 -43.4324938225 95.2922525941 -43.4324938225 77.7359680052 -43.6177965155 c 128,-1,7
 60.1796834164 -43.8030992085 60.1796834164 -43.8030992085 44.5578384381 -28.2820053119 c 2,8,-1
 -37.4420218409 53.7178549699 l 2,9,10
 -69.2254077558 85.4999848728 -69.2254077558 85.4999848728 -34.4421615619 120.282005312 c 2,11,-1
 42.0577167446 196.781883616 l 2,12,13
 58.8830145788 213.570010403 58.8830145788 213.570010403 77.801608963 213.287273273 c 128,-1,14
 96.7202033473 213.004536143 96.7202033473 213.004536143 113.942220337 195.781946537 c 2,0,-1
EndSplineSet
EndChar

StartChar: arabic_2dots
Encoding: 65537 -1 264
Width: 458
GlyphClass: 2
Flags: W
LayerCount: 2
Fore
SplineSet
406.942220337 195.781946537 m 2,0,-1
 485.442021841 117.28214503 l 2,1,2
 500.249660013 102.475092024 500.249660013 102.475092024 500.425522421 85.7167000292 c 128,-1,3
 500.60138483 68.9583080342 500.60138483 68.9583080342 485.942161562 54.2179946881 c 2,4,-1
 403.942161562 -27.7820053119 l 2,5,6
 388.292102131 -43.4320647423 388.292102131 -43.4320647423 370.735981847 -43.617354351 c 128,-1,7
 353.179861562 -43.8026439597 353.179861562 -43.8026439597 337.557838438 -28.2820053119 c 2,8,-1
 255.557978159 53.71785497 l 2,9,10
 223.774592245 85.4999848728 223.774592245 85.4999848728 258.557838438 120.282005312 c 2,11,-1
 335.057716745 196.781883616 l 2,12,13
 370.499995857 232.225382688 370.499995857 232.225382688 406.942220337 195.781946537 c 2,0,-1
123.942220337 195.781946537 m 2,14,-1
 202.442021841 117.28214503 l 2,15,16
 217.249660013 102.475092024 217.249660013 102.475092024 217.425522421 85.7167000292 c 128,-1,17
 217.60138483 68.9583080342 217.60138483 68.9583080342 202.942161562 54.2179946881 c 2,18,-1
 120.942161562 -27.7820053119 l 2,19,20
 105.292102131 -43.4320647423 105.292102131 -43.4320647423 87.7359818465 -43.617354351 c 128,-1,21
 70.1798615615 -43.8026439597 70.1798615615 -43.8026439597 54.5578384381 -28.2820053119 c 2,22,-1
 -27.4421615619 53.7179946881 l 2,23,24
 -59.2241668737 85.5 -59.2241668737 85.5 -24.4421615619 120.282005312 c 2,25,-1
 52.0577167446 196.781883616 l 2,26,27
 68.8830145788 213.570010403 68.8830145788 213.570010403 87.8016089631 213.287273273 c 128,-1,28
 106.720203347 213.004536143 106.720203347 213.004536143 123.942220337 195.781946537 c 2,14,-1
EndSplineSet
EndChar

StartChar: arabic_3dots
Encoding: 65538 -1 265
Width: 461
GlyphClass: 2
Flags: W
LayerCount: 2
Fore
SplineSet
265.858177187 408.192161562 m 2,0,-1
 344.357169123 329.693169483 l 2,1,2
 359.168705408 314.885855414 359.168705408 314.885855414 359.346360794 298.131809304 c 128,-1,3
 359.524016181 281.377763194 359.524016181 281.377763194 344.858177187 266.627174376 c 2,4,-1
 262.858177187 184.627174376 l 2,5,6
 247.208117756 168.977114946 247.208117756 168.977114946 229.651997472 168.791825337 c 128,-1,7
 212.095877187 168.606535728 212.095877187 168.606535728 196.473854063 184.127174376 c 2,8,-1
 114.453049492 266.147978947 l 2,9,10
 82.8770138481 298.09783091 82.8770138481 298.09783091 117.473854063 332.692161562 c 2,11,-1
 193.973854063 409.192161562 l 2,12,13
 229.416015625 444.634323124 229.416015625 444.634323124 265.858177187 408.192161562 c 2,0,-1
407.942220338 183.781946536 m 2,14,-1
 486.442021841 105.28214503 l 2,15,16
 501.249660013 90.4750920242 501.249660013 90.4750920242 501.425522421 73.7167000292 c 128,-1,17
 501.60138483 56.9583080342 501.60138483 56.9583080342 486.942161562 42.2179946881 c 2,18,-1
 404.942161562 -39.7820053119 l 2,19,20
 389.292102131 -55.4320647423 389.292102131 -55.4320647423 371.735981847 -55.617354351 c 128,-1,21
 354.179861562 -55.8026439597 354.179861562 -55.8026439597 338.557838438 -40.2820053119 c 2,22,-1
 256.557978159 41.71785497 l 2,23,24
 224.774592245 73.4999848728 224.774592245 73.4999848728 259.557838438 108.282005312 c 2,25,-1
 336.057716745 184.781883616 l 2,26,27
 347.190844192 195.915394277 347.190844192 195.915394277 359.488722184 199.578138803 c 128,-1,28
 371.786600176 203.240883329 371.786600176 203.240883329 384.158575649 199.217439254 c 128,-1,29
 396.530551122 195.193995179 396.530551122 195.193995179 407.942220338 183.781946536 c 2,14,-1
124.942220338 183.781946536 m 2,30,-1
 203.442021841 105.28214503 l 2,31,32
 218.249660013 90.4750920242 218.249660013 90.4750920242 218.425522421 73.7167000292 c 128,-1,33
 218.60138483 56.9583080342 218.60138483 56.9583080342 203.942161562 42.2179946881 c 2,34,-1
 121.942161562 -39.7820053119 l 2,35,36
 106.292102131 -55.4320647423 106.292102131 -55.4320647423 88.7359818465 -55.617354351 c 128,-1,37
 71.1798615615 -55.8026439597 71.1798615615 -55.8026439597 55.5578384381 -40.2820053119 c 2,38,-1
 -26.4421615619 41.7179946881 l 2,39,40
 -58.2241668737 73.5 -58.2241668737 73.5 -23.4421615619 108.282005312 c 2,41,-1
 53.0577167446 184.781883616 l 2,42,43
 88.4999958567 220.225382688 88.4999958567 220.225382688 124.942220338 183.781946536 c 2,30,-1
EndSplineSet
EndChar

StartChar: arabic_3dots_a
Encoding: 65539 -1 266
Width: 460
GlyphClass: 2
Flags: W
LayerCount: 2
Fore
SplineSet
260.192161562 -4.3556900006 m 2,0,-1
 338.692021841 -82.8555502824 l 2,1,2
 353.499708293 -97.6626515663 353.499708293 -97.6626515663 353.675560567 -114.421205937 c 128,-1,3
 353.851412841 -131.179760309 353.851412841 -131.179760309 339.192161562 -145.920677187 c 2,4,-1
 257.192161562 -227.920677187 l 2,5,6
 241.542102131 -243.570736617 241.542102131 -243.570736617 223.985981847 -243.756026226 c 128,-1,7
 206.429861562 -243.941315835 206.429861562 -243.941315835 190.807838438 -228.420677187 c 2,8,-1
 108.80769872 -146.420537466 l 2,9,10
 77.0259728445 -114.637555594 77.0259728445 -114.637555594 111.807838438 -79.8556900006 c 2,11,-1
 188.733769781 -2.92975865738 l 2,12,13
 224.254454551 31.5820170098 224.254454551 31.5820170098 260.192161562 -4.3556900006 c 2,0,-1
407.942220338 203.781946536 m 2,14,-1
 486.442021841 125.28214503 l 2,15,16
 501.249660013 110.475092024 501.249660013 110.475092024 501.425522421 93.7167000292 c 128,-1,17
 501.60138483 76.9583080342 501.60138483 76.9583080342 486.942161562 62.2179946881 c 2,18,-1
 404.942161562 -19.7820053119 l 2,19,20
 389.292102131 -35.4320647423 389.292102131 -35.4320647423 371.735981847 -35.617354351 c 128,-1,21
 354.179861562 -35.8026439597 354.179861562 -35.8026439597 338.557838438 -20.2820053119 c 2,22,-1
 256.557978159 61.71785497 l 2,23,24
 224.774592245 93.4999848728 224.774592245 93.4999848728 259.557838438 128.282005312 c 2,25,-1
 336.057716745 204.781883616 l 2,26,27
 347.190844192 215.915394277 347.190844192 215.915394277 359.488722184 219.578138803 c 128,-1,28
 371.786600176 223.240883329 371.786600176 223.240883329 384.158575649 219.217439254 c 128,-1,29
 396.530551122 215.193995179 396.530551122 215.193995179 407.942220338 203.781946536 c 2,14,-1
124.942220338 203.781946536 m 2,30,-1
 203.442021841 125.28214503 l 2,31,32
 218.249660013 110.475092024 218.249660013 110.475092024 218.425522421 93.7167000292 c 128,-1,33
 218.60138483 76.9583080342 218.60138483 76.9583080342 203.942161562 62.2179946881 c 2,34,-1
 121.942161562 -19.7820053119 l 2,35,36
 106.292102131 -35.4320647423 106.292102131 -35.4320647423 88.7359818465 -35.617354351 c 128,-1,37
 71.1798615615 -35.8026439597 71.1798615615 -35.8026439597 55.5578384381 -20.2820053119 c 2,38,-1
 -26.4421615619 61.7179946881 l 2,39,40
 -58.2241668737 93.5 -58.2241668737 93.5 -23.4421615619 128.282005312 c 2,41,-1
 53.0577167446 204.781883616 l 2,42,43
 88.4999958567 240.225382688 88.4999958567 240.225382688 124.942220338 203.781946536 c 2,30,-1
EndSplineSet
EndChar

StartChar: uni066E.fina
Encoding: 65540 -1 267
Width: 2054
VWidth: 2181
GlyphClass: 2
Flags: W
AnchorPoint: "Anchor-10" 743 1108.5 basechar 0
AnchorPoint: "Anchor-7" 743 -131 basechar 0
LayerCount: 2
Fore
SplineSet
2000.08789062 0.5 m 6,0,1
 1781.70800781 0.5 1781.70800781 0.5 1677.71777344 178.755859375 c 5,2,3
 1623 136 1623 136 1531.42578125 93.4423828125 c 4,4,5
 1333 0 1333 0 897.779296875 0 c 4,6,7
 568 0 568 0 414.958984375 63.982421875 c 4,8,9
 118 188 118 188 91.1904296875 481.735351562 c 4,10,11
 79.1181640625 614.701171875 79.1181640625 614.701171875 122.399414062 766.73046875 c 6,12,-1
 134.484375 809.1796875 l 5,13,-1
 350.280273438 752.243164062 l 5,14,-1
 344.34765625 712.38671875 l 6,15,16
 325 583 325 583 327.657226562 519.677734375 c 4,17,18
 330 456 330 456 359.352539062 407.09375 c 4,19,20
 433 284 433 284 704.005859375 270.54296875 c 4,21,22
 764 267 764 267 845.286132812 267.016601562 c 4,23,24
 1291 266 1291 266 1448.44042969 340.553710938 c 4,25,26
 1605.59667969 414.809570312 1605.59667969 414.809570312 1628.0078125 594.368164062 c 6,27,-1
 1632.92871094 633.794921875 l 5,28,-1
 1828.44140625 633.794921875 l 5,29,-1
 1831.82421875 592.465820312 l 6,30,31
 1851 359 1851 359 1912.09960938 299.157226562 c 4,32,33
 1945.62304688 265.379882812 1945.62304688 265.379882812 2021.96972656 265.379882812 c 6,34,-1
 2064.16992188 265.379882812 l 5,35,-1
 2064.16992188 0.5 l 5,36,-1
 2000.08789062 0.5 l 6,0,1
EndSplineSet
EndChar

StartChar: uni06A1.fina
Encoding: 65543 -1 270
Width: 1880
VWidth: 2181
GlyphClass: 2
Flags: W
AnchorPoint: "Anchor-10" 530 1215.5 basechar 0
AnchorPoint: "Anchor-7" 637 -175.5 basechar 0
LayerCount: 2
Fore
SplineSet
1679.8046875 299.604492188 m 1,0,1
 1739.41749837 265.379882812 1739.41749837 265.379882812 1825.88964844 265.379882812 c 2,2,-1
 1935.59960938 265.379882812 l 1,3,-1
 1935.59960938 0.5 l 1,4,-1
 1818.27636719 0.5 l 2,5,6
 1592.84667969 0.00390625 1592.84667969 0.00390625 1436.64648438 136.796875 c 1,7,8
 1322.46972656 65.5048828125 1322.46972656 65.5048828125 1209.12402344 32.7524414062 c 128,-1,9
 1095.77832031 0 1095.77832031 0 809.081054688 0 c 128,-1,10
 522.383789062 0 522.383789062 0 368.949707031 63.9858398438 c 0,11,12
 4.65459504265 215.905989415 4.65459504265 215.905989415 47.8857421875 621.14453125 c 0,13,14
 55.4853515625 692.390625 55.4853515625 692.390625 76.3505859375 766.592773438 c 2,15,-1
 88.3369140625 809.21875 l 1,16,-1
 304.61328125 752.154296875 l 1,17,-1
 298.313476562 712.026367188 l 2,18,19
 277.16796875 577.330078125 277.16796875 577.330078125 279.4921875 525.338867188 c 0,20,21
 283.921875 422.353515625 283.921875 422.353515625 351.323242188 361.771484375 c 128,-1,22
 418.724609375 301.188476562 418.724609375 301.188476562 563.161132812 278.806640625 c 0,23,24
 607.333984375 271.905273438 607.333984375 271.905273438 761.041503906 267.985351562 c 0,25,26
 1004.0946975 261.786894042 1004.0946975 261.786894042 1158.48339844 288.635742188 c 1,27,28
 1139.01171875 307.729492188 1139.01171875 307.729492188 1123.38085938 327.53515625 c 0,29,30
 984.20703125 507.374023438 984.20703125 507.374023438 1063.52148438 704.795898438 c 1,31,32
 1128.64045028 850.515067833 1128.64045028 850.515067833 1293.26269531 907.84765625 c 0,33,34
 1459.38599018 965.629843988 1459.38599018 965.629843988 1611.48632812 875.28515625 c 0,35,36
 1760.37677222 787.094562094 1760.37677222 787.094562094 1789.08398438 626.684570312 c 0,37,38
 1824.36523438 435.83203125 1824.36523438 435.83203125 1679.8046875 299.604492188 c 1,0,1
1419.12011719 690.896484375 m 128,-1,40
 1361.97425387 690.896484375 1361.97425387 690.896484375 1331.1443535 660.069824219 c 0,41,42
 1281.05957031 609.990304934 1281.05957031 609.990304934 1281.05957031 561.918980592 c 0,43,44
 1281.05957031 473.235829774 1281.05957031 473.235829774 1350.68359375 432.411132812 c 0,45,46
 1440.96540465 379.482045544 1440.96540465 379.482045544 1525.64355469 464.153320312 c 0,47,48
 1557.1796875 495.6875 1557.1796875 495.6875 1557.1796875 552.83984375 c 128,-1,49
 1557.1796875 609.9921875 1557.1796875 609.9921875 1516.73144531 650.44140625 c 128,-1,39
 1476.27050781 690.896484375 1476.27050781 690.896484375 1419.12011719 690.896484375 c 128,-1,40
EndSplineSet
EndChar

StartChar: uni06A1.init
Encoding: 65544 -1 271
Width: 857
VWidth: 2181
GlyphClass: 2
Flags: W
AnchorPoint: "Anchor-10" 408.53 1272.5 basechar 0
AnchorPoint: "Anchor-7" 383.53 -122 basechar 0
LayerCount: 2
Fore
SplineSet
378.079101562 844.57421875 m 0,0,1
 314.920460883 822.475313742 314.920460883 822.475313742 297.294979507 722.136770775 c 0,2,3
 281.806247856 639.722751801 281.806247856 639.722751801 316 611 c 0,4,5
 330 599 330 599 370.402927088 592.548022898 c 0,6,7
 468 576 468 576 541.456054688 622.571289062 c 1,8,9
 540 651 540 651 527.589407198 718.689365958 c 0,10,11
 515 787 515 787 476.668457031 825.356445312 c 0,12,13
 437 865 437 865 378.079101562 844.57421875 c 0,0,1
684.498046875 940.96484375 m 0,14,15
 812 728 812 728 765.892578125 368.065429688 c 0,16,17
 740 165 740 165 588.02734375 67.5029296875 c 0,18,19
 482 0 482 0 199.23046875 -0 c 2,20,-1
 -20.400390625 0 l 5,21,-1
 -20.400390625 264.98046875 l 5,22,-1
 85 264.98046875 l 2,23,24
 396.393026374 265.000279483 396.393026374 265.000279483 431.758789062 277.200195312 c 0,25,26
 495 299 495 299 518.877929688 365.225585938 c 1,27,28
 473 352 473 352 384.333496094 350.396972656 c 0,29,30
 202 347 202 347 122.645167166 452.823118834 c 0,31,32
 43 559 43 559 61.9326171875 721.185546875 c 0,33,34
 81 884 81 884 183.006835938 991.372070312 c 0,35,36
 314 1129 314 1129 485.90625 1092.58496094 c 0,37,38
 609 1067 609 1067 684.498046875 940.96484375 c 0,14,15
EndSplineSet
EndChar

StartChar: uni06A1.medi
Encoding: 65545 -1 272
Width: 1010
VWidth: 2181
GlyphClass: 2
Flags: W
AnchorPoint: "Anchor-10" 513.26 1055 basechar 0
AnchorPoint: "Anchor-7" 513.26 -122 basechar 0
LayerCount: 2
Fore
SplineSet
372.426757812 536.6015625 m 0,0,1
 372 480 372 480 413.691894531 440.028320312 c 0,2,3
 455 400 455 400 514.033203125 399.689453125 c 0,4,5
 573 400 573 400 614.370605469 440.026855469 c 0,6,7
 656 480 656 480 655.635742188 536.6015625 c 0,8,9
 656 593 656 593 611.730957031 635.749023438 c 0,10,11
 600 647 600 647 584.895507812 655.838867188 c 0,12,13
 556 673 556 673 508 673 c 0,14,15
 453 673 453 673 413.857421875 635.91796875 c 4,16,17
 372 597 372 597 372.426757812 536.6015625 c 0,0,1
512.642578125 98.4375 m 1,18,19
 351 0 351 0 210.790039062 -0 c 2,20,-1
 -10.400390625 0 l 1,21,-1
 -10.400390625 264.98046875 l 1,22,-1
 73.486328125 264.98046875 l 2,23,24
 167 265 167 265 232.114257812 272.506835938 c 1,25,26
 77 435 77 435 134.436523438 643.663085938 c 0,27,28
 182 815 182 815 350.795898438 883.829101562 c 0,29,30
 478.250757108 935.313108043 478.250757108 935.313108043 615.556640625 905.61328125 c 0,31,32
 660 896 660 896 700.637695312 877.692382812 c 0,33,34
 857 805 857 805 897.723632812 641.033203125 c 0,35,36
 924 536 924 536 892.900878906 435.109863281 c 0,37,38
 862 335 862 335 793.650390625 270.658203125 c 1,39,40
 858.478433114 264.053140306 858.478433114 264.053140306 952.762695312 264.978515625 c 2,41,-1
 1020.91992188 265.647460938 l 1,42,-1
 1020.91992188 0.6064453125 l 1,43,-1
 816.775390625 0 l 2,44,45
 668 -0 668 -0 512.642578125 98.4375 c 1,18,19
EndSplineSet
EndChar

StartChar: uni066F.fina
Encoding: 65546 -1 273
Width: 1575
VWidth: 2181
GlyphClass: 2
Flags: W
AnchorPoint: "Anchor-10" 431 948 basechar 0
AnchorPoint: "Anchor-7" 514.645 -670.82 basechar 0
LayerCount: 2
Fore
SplineSet
1264.93652344 254.069335938 m 5,0,1
 1258.06347656 524.580078125 1258.06347656 524.580078125 1144.00488281 521.650390625 c 4,2,3
 1096.85742188 520.573242188 1096.85742188 520.573242188 1065.1796875 491.587890625 c 4,4,5
 1023.40234375 453.364257812 1023.40234375 453.364257812 1006.04589844 368.990234375 c 4,6,7
 990.353515625 292.70703125 990.353515625 292.70703125 1043.55078125 268.881835938 c 4,8,9
 1082.8046875 251.301757812 1082.8046875 251.301757812 1148.59472656 251.669921875 c 132,-1,10
 1214.38378906 252.038085938 1214.38378906 252.038085938 1264.93652344 254.069335938 c 5,0,1
1253.64453125 1.689453125 m 5,11,12
 1205 1 1205 1 1114.58398438 1.2080078125 c 4,13,14
 929 1 929 1 839.2890625 105.427734375 c 4,15,16
 749 210 749 210 766.954101562 355.0390625 c 4,17,18
 790 550 790 550 907.7578125 663.930664062 c 4,19,20
 1026 778 1026 778 1161.03222656 769.735351562 c 4,21,22
 1461 752 1461 752 1498.85546875 308.219726562 c 4,23,24
 1501 283 1501 283 1502.25878906 265.419921875 c 5,25,-1
 1535.57714844 265.379882812 l 5,26,-1
 1585.95996094 265.379882812 l 5,27,-1
 1585.95996094 0.076171875 l 5,28,-1
 1498.97363281 1.3154296875 l 5,29,30
 1469 -253 1469 -253 1276.69824219 -424.032226562 c 4,31,32
 1084 -595 1084 -595 750.279296875 -588.010742188 c 4,33,34
 417 -581 417 -581 259.552734375 -420.856445312 c 4,35,36
 102 -261 102 -261 91.5791015625 -9.6328125 c 5,37,38
 89 39 89 39 92.4931640625 86.3671875 c 28,39,40
 104 279 104 279 189.729492188 456.29296875 c 6,41,-1
 205.720703125 489.373046875 l 5,42,-1
 445.487304688 428.42578125 l 5,43,-1
 427.48828125 381.224609375 l 6,44,45
 344 162 344 162 344.782226562 34.4111328125 c 4,46,47
 346 -157 346 -157 449.655273438 -246.40625 c 4,48,49
 553 -336 553 -336 776.021484375 -333.857421875 c 4,50,51
 1050 -331 1050 -331 1172.40429688 -187.26953125 c 4,52,53
 1240 -108 1240 -108 1253.64453125 1.689453125 c 5,11,12
EndSplineSet
EndChar

StartChar: arabic_ring
Encoding: 65549 -1 276
Width: 444
GlyphClass: 2
Flags: W
LayerCount: 2
Fore
SplineSet
215.313476562 317 m 0,0,1
 200.881835938 317 200.881835938 317 186.940429688 303.059570312 c 128,-1,2
 173 289.118164062 173 289.118164062 173 274.504882812 c 128,-1,3
 173 259.891601562 173 259.891601562 176.381835938 246.345214844 c 0,4,5
 183.208529446 219 183.208529446 219 227.104264723 219 c 128,-1,6
 271 219 271 219 271 262.967433004 c 0,7,8
 271 317 271 317 215.313476562 317 c 0,0,1
489 268 m 128,-1,10
 489 156.338139578 489 156.338139578 412.06640625 78.1845703125 c 0,11,12
 333.881835938 0 333.881835938 0 222 0 c 128,-1,13
 110 0 110 0 32.4267578125 78.1845703125 c 128,-1,14
 -45 156.221679688 -45 156.221679688 -45 268 c 128,-1,15
 -45 379.881835938 -45 379.881835938 32.5595703125 457.440429688 c 128,-1,16
 110.118164062 535 110.118164062 535 221.889648438 535 c 128,-1,17
 333.661132812 535 333.661132812 535 411.94140625 457.94140625 c 0,18,9
 489 379.661132812 489 379.661132812 489 268 c 128,-1,10
EndSplineSet
EndChar

StartChar: arabic_gaf_bar
Encoding: 65550 -1 277
Width: 680
GlyphClass: 2
Flags: W
LayerCount: 2
Fore
SplineSet
672 1674.19238281 m 1,0,-1
 0 1319.02148438 l 1,1,-1
 0 1454.80761719 l 5,2,-1
 672 1809.97851562 l 5,3,-1
 672 1674.19238281 l 1,0,-1
EndSplineSet
EndChar

StartChar: uni066E.init.math
Encoding: 65560 -1 287
Width: 883
VWidth: 2181
GlyphClass: 2
Flags: W
LayerCount: 2
Fore
SplineSet
613.372070312 111.1875 m 0,0,1
 526.693359375 8.5 526.693359375 8.5 345.400390625 8.5 c 2,2,-1
 -48.400390625 8.5 l 1,3,-1
 -48.400390625 265.379882812 l 1,4,-1
 286.549804688 265.379882812 l 2,5,6
 380.389648438 265.379882812 380.389648438 265.379882812 421.189453125 307.561523438 c 128,-1,7
 461.990234375 349.744140625 461.990234375 349.744140625 461.990234375 448.309570312 c 2,8,-1
 461.990234375 710.5 l 1,9,-1
 718.870117188 710.5 l 1,10,-1
 718.870117188 448.309570312 l 2,11,12
 718.870117188 237.96484375 718.870117188 237.96484375 613.372070312 111.1875 c 0,0,1
EndSplineSet
EndChar

StartChar: guillemotleft
Encoding: 171 171 288
Width: 1001
Flags: W
LayerCount: 2
Fore
SplineSet
266.27734375 26.0595703125 m 2,0,1
 103.0546875 283.166015625 103.0546875 283.166015625 103.0546875 515.66015625 c 128,-1,2
 103.0546875 748.109375 103.0546875 748.109375 266.201171875 1006.14550781 c 2,3,-1
 279.448242188 1027.09765625 l 1,4,-1
 522.375976562 1027.09765625 l 1,5,-1
 456.088867188 910.538085938 l 2,6,7
 343.0546875 711.793599365 343.0546875 711.793599365 343.0546875 516.6171875 c 0,8,9
 343.0546875 319.706626934 343.0546875 319.706626934 456.004882812 121.853515625 c 2,10,-1
 522.625976562 5.177734375 l 1,11,-1
 279.534179688 5.177734375 l 1,12,-1
 266.27734375 26.0595703125 l 2,0,1
642.27734375 26.0595703125 m 2,13,14
 479.0546875 283.166015625 479.0546875 283.166015625 479.0546875 515.66015625 c 128,-1,15
 479.0546875 748.109375 479.0546875 748.109375 642.201171875 1006.14550781 c 2,16,-1
 655.448242188 1027.09765625 l 1,17,-1
 898.375976562 1027.09765625 l 1,18,-1
 832.088867188 910.538085938 l 2,19,20
 719.0546875 711.795777267 719.0546875 711.795777267 719.0546875 516.6171875 c 0,21,22
 719.0546875 320.093550702 719.0546875 320.093550702 831.75390625 122.294921875 c 2,23,-1
 898.625 5.177734375 l 1,24,-1
 655.534179688 5.177734375 l 1,25,-1
 642.27734375 26.0595703125 l 2,13,14
EndSplineSet
EndChar

StartChar: guillemotright
Encoding: 187 187 289
Width: 998
Flags: W
LayerCount: 2
Fore
SplineSet
734.798828125 1006.14550781 m 2,0,1
 897.9453125 748.109375 897.9453125 748.109375 897.9453125 515.66796875 c 128,-1,2
 897.9453125 283.183533687 897.9453125 283.183533687 734.72265625 26.060546875 c 2,3,-1
 721.466796875 5.177734375 l 1,4,-1
 478.374023438 5.177734375 l 1,5,-1
 544.995117188 121.852539062 l 2,6,7
 657.9453125 319.672851562 657.9453125 319.672851562 657.9453125 515.712402344 c 128,-1,8
 657.9453125 711.751953125 657.9453125 711.751953125 544.91015625 910.5390625 c 2,9,-1
 478.624023438 1027.09765625 l 1,10,-1
 721.551757812 1027.09765625 l 1,11,-1
 734.798828125 1006.14550781 l 2,0,1
358.798828125 1006.14550781 m 2,12,13
 521.9453125 748.109375 521.9453125 748.109375 521.9453125 515.663085938 c 128,-1,14
 521.9453125 283.172851562 521.9453125 283.172851562 358.72265625 26.0595703125 c 2,15,-1
 345.465820312 5.177734375 l 1,16,-1
 102.374023438 5.177734375 l 1,17,-1
 168.995117188 121.852539062 l 2,18,19
 281.9453125 319.672851562 281.9453125 319.672851562 281.9453125 515.712402344 c 128,-1,20
 281.9453125 711.751953125 281.9453125 711.751953125 168.91015625 910.5390625 c 2,21,-1
 102.624023438 1027.09765625 l 1,22,-1
 345.551757812 1027.09765625 l 1,23,-1
 358.798828125 1006.14550781 l 2,12,13
EndSplineSet
EndChar

StartChar: NameMe.337
Encoding: 65562 -1 296
Width: 621
VWidth: 2181
Flags: W
LayerCount: 2
Fore
SplineSet
538.759765625 0 m 2,0,1
 387.70381347 0 387.70381347 0 290.217773438 87.8212890625 c 1,2,3
 198.467773438 0 198.467773438 0 83.7001953125 0 c 2,4,-1
 -65.400390625 0 l 1,5,-1
 -65.400390625 264.98046875 l 1,6,-1
 24.849609375 264.98046875 l 2,7,8
 211.107305003 264.98046875 211.107305003 264.98046875 202.346679688 445.989257812 c 2,9,-1
 161.758789062 1284.42089844 l 1,10,-1
 416.169921875 1397.93945312 l 1,11,-1
 416.169921875 448.309570312 l 2,12,13
 416.169921875 343.98362213 416.169921875 343.98362213 434.661132812 317.40625 c 0,14,15
 471.130859375 264.98046875 471.130859375 264.98046875 597.610351562 264.98046875 c 2,16,-1
 686.860351562 264.98046875 l 1,17,-1
 686.860351562 0 l 1,18,-1
 538.759765625 0 l 2,0,1
EndSplineSet
EndChar

StartChar: NameMe.338
Encoding: 65563 -1 297
Width: 538
VWidth: 2181
Flags: W
LayerCount: 2
Fore
SplineSet
444.169921875 484.690429688 m 2,0,1
 444.169921875 220.587492793 444.169921875 220.587492793 331.156738281 110.293746396 c 128,-1,2
 218.143554688 0 218.143554688 0 57.7001953125 0 c 2,3,-1
 -65.400390625 0 l 1,4,-1
 -65.400390625 264.98046875 l 1,5,-1
 15.849609375 264.98046875 l 2,6,7
 131.934570312 264.98046875 131.934570312 264.98046875 182.4140625 328.05859375 c 128,-1,8
 232.893554688 391.13671875 232.893554688 391.13671875 228.3359375 495.434570312 c 2,9,-1
 188.90625 1397.64160156 l 1,10,-1
 444.169921875 1510.81835938 l 1,11,-1
 444.169921875 484.690429688 l 2,0,1
EndSplineSet
EndChar

